<svg xmlns="http://www.w3.org/2000/svg" width="114.434" height="113.847" viewBox="0 0 114.434 113.847">
  <g id="Group_38886" data-name="Group 38886" transform="translate(-1189.558 -2866.656)">
    <rect id="Rectangle_3665" data-name="Rectangle 3665" width="12.795" height="35.4" transform="translate(1241.749 2892.343)" fill="#88878c"/>
    <rect id="Rectangle_3666" data-name="Rectangle 3666" width="35.4" height="12.794" transform="translate(1230.446 2903.646)" fill="#88878c"/>
    <path id="Path_7991" data-name="Path 7991" d="M100.135,10522.876a14,14,0,0,1-9.219-3.493,6.436,6.436,0,0,1-1.071-1.2l-14.228-20.7H27.631A27.663,27.663,0,0,1,0,10469.846v-33.186a27.662,27.662,0,0,1,27.631-27.631H86.8a27.63,27.63,0,0,1,27.631,27.7l-.147,72.051a13.959,13.959,0,0,1-8.277,12.814,14.2,14.2,0,0,1-5.874,1.286m-.39-12.878a1.332,1.332,0,0,0,1.747-1.25l.147-72.052a14.836,14.836,0,0,0-14.837-14.873H27.631a14.853,14.853,0,0,0-14.837,14.837v33.186a14.853,14.853,0,0,0,14.837,14.837H78.982a6.4,6.4,0,0,1,5.272,2.774Z" transform="translate(1189.558 -7542.373)" fill="#88878c"/>
  </g>
</svg>
