<svg xmlns="http://www.w3.org/2000/svg" xmlns:xlink="http://www.w3.org/1999/xlink" width="101.64" height="100.855" viewBox="0 0 101.64 100.855">
  <defs>
    <clipPath id="clip-path">
      <path id="Path_8064" data-name="Path 8064" d="M217.989,3158.4h25.386a7.483,7.483,0,0,1,7.474,7.475v70.715h-32.86Zm-11.333-11.332v100.855h55.525v-82.047a18.807,18.807,0,0,0-18.807-18.808Z" transform="translate(-206.656 -3147.063)" fill="none"/>
    </clipPath>
  </defs>
  <g id="Group_38877" data-name="Group 38877" transform="translate(-355.406 -1021.408)">
    <path id="Path_8062" data-name="Path 8062" d="M71.313,3263.665v46.989h-34.8v-26.921A7.474,7.474,0,0,1,41,3276.879Zm11.332-17.3-46.176,20.128a18.807,18.807,0,0,0-11.292,17.241v38.254H82.645Z" transform="translate(330.23 -2199.723)" fill="#ff3c00"/>
    <g id="Group_38771" data-name="Group 38771" transform="translate(401.521 1021.408)" clip-path="url(#clip-path)">
      <rect id="Rectangle_3694" data-name="Rectangle 3694" width="0.04" height="100.854" transform="translate(0.001)" fill="#201cf9"/>
      <rect id="Rectangle_3695" data-name="Rectangle 3695" width="0.539" height="100.854" transform="translate(0.041)" fill="#201cf9"/>
      <rect id="Rectangle_3696" data-name="Rectangle 3696" width="0.539" height="100.854" transform="translate(0.579)" fill="#211cf9"/>
      <rect id="Rectangle_3697" data-name="Rectangle 3697" width="0.539" height="100.854" transform="translate(1.118)" fill="#221cf9"/>
      <rect id="Rectangle_3698" data-name="Rectangle 3698" width="0.539" height="100.854" transform="translate(1.657)" fill="#231cf9"/>
      <rect id="Rectangle_3699" data-name="Rectangle 3699" width="0.539" height="100.854" transform="translate(2.195)" fill="#241cf9"/>
      <rect id="Rectangle_3700" data-name="Rectangle 3700" width="0.539" height="100.854" transform="translate(2.734)" fill="#251cf9"/>
      <rect id="Rectangle_3701" data-name="Rectangle 3701" width="0.539" height="100.854" transform="translate(3.273)" fill="#261cf9"/>
      <rect id="Rectangle_3702" data-name="Rectangle 3702" width="0.539" height="100.854" transform="translate(3.811)" fill="#271cf9"/>
      <rect id="Rectangle_3703" data-name="Rectangle 3703" width="0.539" height="100.854" transform="translate(4.35)" fill="#281cf9"/>
      <rect id="Rectangle_3704" data-name="Rectangle 3704" width="0.539" height="100.854" transform="translate(4.889)" fill="#291cf8"/>
      <rect id="Rectangle_3705" data-name="Rectangle 3705" width="0.539" height="100.854" transform="translate(5.428)" fill="#2a1cf8"/>
      <rect id="Rectangle_3706" data-name="Rectangle 3706" width="0.539" height="100.854" transform="translate(5.966)" fill="#2b1cf8"/>
      <rect id="Rectangle_3707" data-name="Rectangle 3707" width="0.539" height="100.854" transform="translate(6.505)" fill="#2c1cf8"/>
      <rect id="Rectangle_3708" data-name="Rectangle 3708" width="0.539" height="100.854" transform="translate(7.044)" fill="#2d1cf8"/>
      <rect id="Rectangle_3709" data-name="Rectangle 3709" width="0.539" height="100.854" transform="translate(7.582)" fill="#2e1cf8"/>
      <rect id="Rectangle_3710" data-name="Rectangle 3710" width="0.539" height="100.854" transform="translate(8.121)" fill="#2f1cf8"/>
      <rect id="Rectangle_3711" data-name="Rectangle 3711" width="0.539" height="100.854" transform="translate(8.66)" fill="#301cf8"/>
      <rect id="Rectangle_3712" data-name="Rectangle 3712" width="0.539" height="100.854" transform="translate(9.198)" fill="#311cf8"/>
      <rect id="Rectangle_3713" data-name="Rectangle 3713" width="0.539" height="100.854" transform="translate(9.737)" fill="#321cf8"/>
      <rect id="Rectangle_3714" data-name="Rectangle 3714" width="0.539" height="100.854" transform="translate(10.276)" fill="#331cf8"/>
      <rect id="Rectangle_3715" data-name="Rectangle 3715" width="0.539" height="100.854" transform="translate(10.814)" fill="#341cf8"/>
      <rect id="Rectangle_3716" data-name="Rectangle 3716" width="0.539" height="100.854" transform="translate(11.353)" fill="#351cf8"/>
      <rect id="Rectangle_3717" data-name="Rectangle 3717" width="0.539" height="100.854" transform="translate(11.892)" fill="#361cf8"/>
      <rect id="Rectangle_3718" data-name="Rectangle 3718" width="0.539" height="100.854" transform="translate(12.43)" fill="#371cf8"/>
      <rect id="Rectangle_3719" data-name="Rectangle 3719" width="0.539" height="100.854" transform="translate(12.969)" fill="#381cf8"/>
      <rect id="Rectangle_3720" data-name="Rectangle 3720" width="0.539" height="100.854" transform="translate(13.508)" fill="#391cf8"/>
      <rect id="Rectangle_3721" data-name="Rectangle 3721" width="0.539" height="100.854" transform="translate(14.047)" fill="#3a1cf7"/>
      <rect id="Rectangle_3722" data-name="Rectangle 3722" width="0.539" height="100.854" transform="translate(14.585)" fill="#3b1cf7"/>
      <rect id="Rectangle_3723" data-name="Rectangle 3723" width="0.539" height="100.854" transform="translate(15.124)" fill="#3c1cf7"/>
      <rect id="Rectangle_3724" data-name="Rectangle 3724" width="0.539" height="100.854" transform="translate(15.663)" fill="#3d1cf7"/>
      <rect id="Rectangle_3725" data-name="Rectangle 3725" width="0.539" height="100.854" transform="translate(16.201)" fill="#3e1cf7"/>
      <rect id="Rectangle_3726" data-name="Rectangle 3726" width="0.539" height="100.854" transform="translate(16.74)" fill="#3f1cf7"/>
      <rect id="Rectangle_3727" data-name="Rectangle 3727" width="0.539" height="100.854" transform="translate(17.279)" fill="#401cf7"/>
      <rect id="Rectangle_3728" data-name="Rectangle 3728" width="0.539" height="100.854" transform="translate(17.817)" fill="#411cf7"/>
      <rect id="Rectangle_3729" data-name="Rectangle 3729" width="0.539" height="100.854" transform="translate(18.356)" fill="#421cf7"/>
      <rect id="Rectangle_3730" data-name="Rectangle 3730" width="0.539" height="100.854" transform="translate(18.895)" fill="#431cf7"/>
      <rect id="Rectangle_3731" data-name="Rectangle 3731" width="0.539" height="100.854" transform="translate(19.433)" fill="#441cf7"/>
      <rect id="Rectangle_3732" data-name="Rectangle 3732" width="0.539" height="100.854" transform="translate(19.972)" fill="#451cf7"/>
      <rect id="Rectangle_3733" data-name="Rectangle 3733" width="0.539" height="100.854" transform="translate(20.511)" fill="#461cf7"/>
      <rect id="Rectangle_3734" data-name="Rectangle 3734" width="0.539" height="100.854" transform="translate(21.049)" fill="#471cf7"/>
      <rect id="Rectangle_3735" data-name="Rectangle 3735" width="0.539" height="100.854" transform="translate(21.588)" fill="#481cf7"/>
      <rect id="Rectangle_3736" data-name="Rectangle 3736" width="0.539" height="100.854" transform="translate(22.127)" fill="#491cf7"/>
      <rect id="Rectangle_3737" data-name="Rectangle 3737" width="0.539" height="100.854" transform="translate(22.666)" fill="#4a1cf7"/>
      <rect id="Rectangle_3738" data-name="Rectangle 3738" width="0.539" height="100.854" transform="translate(23.204)" fill="#4b1cf6"/>
      <rect id="Rectangle_3739" data-name="Rectangle 3739" width="0.539" height="100.854" transform="translate(23.743)" fill="#4c1cf6"/>
      <rect id="Rectangle_3740" data-name="Rectangle 3740" width="0.539" height="100.854" transform="translate(24.282)" fill="#4d1cf6"/>
      <rect id="Rectangle_3741" data-name="Rectangle 3741" width="0.539" height="100.854" transform="translate(24.82)" fill="#4e1cf6"/>
      <rect id="Rectangle_3742" data-name="Rectangle 3742" width="0.539" height="100.854" transform="translate(25.359)" fill="#4f1cf6"/>
      <rect id="Rectangle_3743" data-name="Rectangle 3743" width="0.539" height="100.854" transform="translate(25.898)" fill="#501cf6"/>
      <rect id="Rectangle_3744" data-name="Rectangle 3744" width="0.539" height="100.854" transform="translate(26.436)" fill="#511cf6"/>
      <rect id="Rectangle_3745" data-name="Rectangle 3745" width="0.539" height="100.854" transform="translate(26.975)" fill="#521cf6"/>
      <rect id="Rectangle_3746" data-name="Rectangle 3746" width="0.539" height="100.854" transform="translate(27.514)" fill="#541cf6"/>
      <rect id="Rectangle_3747" data-name="Rectangle 3747" width="0.539" height="100.854" transform="translate(28.052)" fill="#551cf6"/>
      <rect id="Rectangle_3748" data-name="Rectangle 3748" width="0.539" height="100.854" transform="translate(28.591)" fill="#561cf6"/>
      <rect id="Rectangle_3749" data-name="Rectangle 3749" width="0.539" height="100.854" transform="translate(29.13)" fill="#571cf6"/>
      <rect id="Rectangle_3750" data-name="Rectangle 3750" width="0.539" height="100.854" transform="translate(29.668)" fill="#581cf6"/>
      <rect id="Rectangle_3751" data-name="Rectangle 3751" width="0.539" height="100.854" transform="translate(30.207)" fill="#591cf6"/>
      <rect id="Rectangle_3752" data-name="Rectangle 3752" width="0.539" height="100.854" transform="translate(30.746)" fill="#5a1cf6"/>
      <rect id="Rectangle_3753" data-name="Rectangle 3753" width="0.539" height="100.854" transform="translate(31.285)" fill="#5b1cf6"/>
      <rect id="Rectangle_3754" data-name="Rectangle 3754" width="0.539" height="100.854" transform="translate(31.823)" fill="#5c1cf6"/>
      <rect id="Rectangle_3755" data-name="Rectangle 3755" width="0.539" height="100.854" transform="translate(32.362)" fill="#5d1cf5"/>
      <rect id="Rectangle_3756" data-name="Rectangle 3756" width="0.539" height="100.854" transform="translate(32.901)" fill="#5e1cf5"/>
      <rect id="Rectangle_3757" data-name="Rectangle 3757" width="0.539" height="100.854" transform="translate(33.439)" fill="#5f1cf5"/>
      <rect id="Rectangle_3758" data-name="Rectangle 3758" width="0.539" height="100.854" transform="translate(33.978)" fill="#601cf5"/>
      <rect id="Rectangle_3759" data-name="Rectangle 3759" width="0.539" height="100.854" transform="translate(34.517)" fill="#611cf5"/>
      <rect id="Rectangle_3760" data-name="Rectangle 3760" width="0.539" height="100.854" transform="translate(35.055)" fill="#621cf5"/>
      <rect id="Rectangle_3761" data-name="Rectangle 3761" width="0.539" height="100.854" transform="translate(35.594)" fill="#631cf5"/>
      <rect id="Rectangle_3762" data-name="Rectangle 3762" width="0.539" height="100.854" transform="translate(36.133)" fill="#641cf5"/>
      <rect id="Rectangle_3763" data-name="Rectangle 3763" width="0.539" height="100.854" transform="translate(36.671)" fill="#651cf5"/>
      <rect id="Rectangle_3764" data-name="Rectangle 3764" width="0.539" height="100.854" transform="translate(37.21)" fill="#661cf5"/>
      <rect id="Rectangle_3765" data-name="Rectangle 3765" width="0.539" height="100.854" transform="translate(37.749)" fill="#671cf5"/>
      <rect id="Rectangle_3766" data-name="Rectangle 3766" width="0.539" height="100.854" transform="translate(38.287)" fill="#681cf5"/>
      <rect id="Rectangle_3767" data-name="Rectangle 3767" width="0.539" height="100.854" transform="translate(38.826)" fill="#691cf5"/>
      <rect id="Rectangle_3768" data-name="Rectangle 3768" width="0.539" height="100.854" transform="translate(39.365)" fill="#6a1cf5"/>
      <rect id="Rectangle_3769" data-name="Rectangle 3769" width="0.539" height="100.854" transform="translate(39.903)" fill="#6b1cf5"/>
      <rect id="Rectangle_3770" data-name="Rectangle 3770" width="0.539" height="100.854" transform="translate(40.442)" fill="#6c1cf5"/>
      <rect id="Rectangle_3771" data-name="Rectangle 3771" width="0.539" height="100.854" transform="translate(40.981)" fill="#6d1cf5"/>
      <rect id="Rectangle_3772" data-name="Rectangle 3772" width="0.539" height="100.854" transform="translate(41.52)" fill="#6e1cf4"/>
      <rect id="Rectangle_3773" data-name="Rectangle 3773" width="0.539" height="100.854" transform="translate(42.058)" fill="#6f1cf4"/>
      <rect id="Rectangle_3774" data-name="Rectangle 3774" width="0.539" height="100.854" transform="translate(42.597)" fill="#701cf4"/>
      <rect id="Rectangle_3775" data-name="Rectangle 3775" width="0.539" height="100.854" transform="translate(43.136)" fill="#711cf4"/>
      <rect id="Rectangle_3776" data-name="Rectangle 3776" width="0.539" height="100.854" transform="translate(43.674)" fill="#721cf4"/>
      <rect id="Rectangle_3777" data-name="Rectangle 3777" width="0.539" height="100.854" transform="translate(44.213)" fill="#731cf4"/>
      <rect id="Rectangle_3778" data-name="Rectangle 3778" width="0.539" height="100.854" transform="translate(44.752)" fill="#741cf4"/>
      <rect id="Rectangle_3779" data-name="Rectangle 3779" width="0.539" height="100.854" transform="translate(45.29)" fill="#751cf4"/>
      <rect id="Rectangle_3780" data-name="Rectangle 3780" width="0.539" height="100.854" transform="translate(45.829)" fill="#761cf4"/>
      <rect id="Rectangle_3781" data-name="Rectangle 3781" width="0.539" height="100.854" transform="translate(46.368)" fill="#771cf4"/>
      <rect id="Rectangle_3782" data-name="Rectangle 3782" width="0.539" height="100.854" transform="translate(46.906)" fill="#781cf4"/>
      <rect id="Rectangle_3783" data-name="Rectangle 3783" width="0.539" height="100.854" transform="translate(47.445)" fill="#791cf4"/>
      <rect id="Rectangle_3784" data-name="Rectangle 3784" width="0.539" height="100.854" transform="translate(47.984)" fill="#7a1cf4"/>
      <rect id="Rectangle_3785" data-name="Rectangle 3785" width="0.539" height="100.854" transform="translate(48.522)" fill="#7b1cf4"/>
      <rect id="Rectangle_3786" data-name="Rectangle 3786" width="0.539" height="100.854" transform="translate(49.061)" fill="#7c1cf4"/>
      <rect id="Rectangle_3787" data-name="Rectangle 3787" width="0.539" height="100.854" transform="translate(49.6)" fill="#7d1cf4"/>
      <rect id="Rectangle_3788" data-name="Rectangle 3788" width="0.539" height="100.854" transform="translate(50.139)" fill="#7e1cf4"/>
      <rect id="Rectangle_3789" data-name="Rectangle 3789" width="0.539" height="100.854" transform="translate(50.677)" fill="#7f1cf3"/>
      <rect id="Rectangle_3790" data-name="Rectangle 3790" width="0.539" height="100.854" transform="translate(51.216)" fill="#801cf3"/>
      <rect id="Rectangle_3791" data-name="Rectangle 3791" width="0.539" height="100.854" transform="translate(51.755)" fill="#811cf3"/>
      <rect id="Rectangle_3792" data-name="Rectangle 3792" width="0.539" height="100.854" transform="translate(52.293)" fill="#821cf3"/>
      <rect id="Rectangle_3793" data-name="Rectangle 3793" width="0.539" height="100.854" transform="translate(52.832)" fill="#831cf3"/>
      <rect id="Rectangle_3794" data-name="Rectangle 3794" width="0.539" height="100.854" transform="translate(53.371)" fill="#841cf3"/>
      <rect id="Rectangle_3795" data-name="Rectangle 3795" width="0.539" height="100.854" transform="translate(53.909)" fill="#851cf3"/>
      <rect id="Rectangle_3796" data-name="Rectangle 3796" width="0.539" height="100.854" transform="translate(54.448)" fill="#861cf3"/>
      <rect id="Rectangle_3797" data-name="Rectangle 3797" width="0.539" height="100.854" transform="translate(54.987)" fill="#871cf3"/>
      <path id="Path_8063" data-name="Path 8063" d="M425.176,3247.918v0Z" transform="translate(-369.651 -3147.064)" fill="#871cf3"/>
      <rect id="Rectangle_3798" data-name="Rectangle 3798" width="0.02" height="78.19" transform="translate(11.333 11.333)" fill="#341cf8"/>
      <rect id="Rectangle_3799" data-name="Rectangle 3799" width="0.539" height="78.19" transform="translate(11.353 11.333)" fill="#351cf8"/>
      <rect id="Rectangle_3800" data-name="Rectangle 3800" width="0.539" height="78.19" transform="translate(11.892 11.333)" fill="#361cf8"/>
      <rect id="Rectangle_3801" data-name="Rectangle 3801" width="0.539" height="78.19" transform="translate(12.43 11.333)" fill="#371cf8"/>
      <rect id="Rectangle_3802" data-name="Rectangle 3802" width="0.539" height="78.19" transform="translate(12.969 11.333)" fill="#381cf8"/>
      <rect id="Rectangle_3803" data-name="Rectangle 3803" width="0.539" height="78.19" transform="translate(13.508 11.333)" fill="#391cf8"/>
      <rect id="Rectangle_3804" data-name="Rectangle 3804" width="0.539" height="78.19" transform="translate(14.047 11.333)" fill="#3a1cf7"/>
      <rect id="Rectangle_3805" data-name="Rectangle 3805" width="0.539" height="78.19" transform="translate(14.585 11.333)" fill="#3b1cf7"/>
      <rect id="Rectangle_3806" data-name="Rectangle 3806" width="0.539" height="78.19" transform="translate(15.124 11.333)" fill="#3c1cf7"/>
      <rect id="Rectangle_3807" data-name="Rectangle 3807" width="0.539" height="78.19" transform="translate(15.663 11.333)" fill="#3d1cf7"/>
      <rect id="Rectangle_3808" data-name="Rectangle 3808" width="0.539" height="78.19" transform="translate(16.201 11.333)" fill="#3e1cf7"/>
      <rect id="Rectangle_3809" data-name="Rectangle 3809" width="0.539" height="78.19" transform="translate(16.74 11.333)" fill="#3f1cf7"/>
      <rect id="Rectangle_3810" data-name="Rectangle 3810" width="0.539" height="78.19" transform="translate(17.279 11.333)" fill="#401cf7"/>
      <rect id="Rectangle_3811" data-name="Rectangle 3811" width="0.539" height="78.19" transform="translate(17.817 11.333)" fill="#411cf7"/>
      <rect id="Rectangle_3812" data-name="Rectangle 3812" width="0.539" height="78.19" transform="translate(18.356 11.333)" fill="#421cf7"/>
      <rect id="Rectangle_3813" data-name="Rectangle 3813" width="0.539" height="78.19" transform="translate(18.895 11.333)" fill="#431cf7"/>
      <rect id="Rectangle_3814" data-name="Rectangle 3814" width="0.539" height="78.19" transform="translate(19.433 11.333)" fill="#441cf7"/>
      <rect id="Rectangle_3815" data-name="Rectangle 3815" width="0.539" height="78.19" transform="translate(19.972 11.333)" fill="#451cf7"/>
      <rect id="Rectangle_3816" data-name="Rectangle 3816" width="0.539" height="78.19" transform="translate(20.511 11.333)" fill="#461cf7"/>
      <rect id="Rectangle_3817" data-name="Rectangle 3817" width="0.539" height="78.19" transform="translate(21.049 11.333)" fill="#471cf7"/>
      <rect id="Rectangle_3818" data-name="Rectangle 3818" width="0.539" height="78.19" transform="translate(21.588 11.333)" fill="#481cf7"/>
      <rect id="Rectangle_3819" data-name="Rectangle 3819" width="0.539" height="78.19" transform="translate(22.127 11.333)" fill="#491cf7"/>
      <rect id="Rectangle_3820" data-name="Rectangle 3820" width="0.539" height="78.19" transform="translate(22.666 11.333)" fill="#4a1cf7"/>
      <rect id="Rectangle_3821" data-name="Rectangle 3821" width="0.539" height="78.19" transform="translate(23.204 11.333)" fill="#4b1cf6"/>
      <rect id="Rectangle_3822" data-name="Rectangle 3822" width="0.539" height="78.19" transform="translate(23.743 11.333)" fill="#4c1cf6"/>
      <rect id="Rectangle_3823" data-name="Rectangle 3823" width="0.539" height="78.19" transform="translate(24.282 11.333)" fill="#4d1cf6"/>
      <rect id="Rectangle_3824" data-name="Rectangle 3824" width="0.539" height="78.19" transform="translate(24.82 11.333)" fill="#4e1cf6"/>
      <rect id="Rectangle_3825" data-name="Rectangle 3825" width="0.539" height="78.19" transform="translate(25.359 11.333)" fill="#4f1cf6"/>
      <rect id="Rectangle_3826" data-name="Rectangle 3826" width="0.539" height="78.19" transform="translate(25.898 11.333)" fill="#501cf6"/>
      <rect id="Rectangle_3827" data-name="Rectangle 3827" width="0.539" height="78.19" transform="translate(26.436 11.333)" fill="#511cf6"/>
      <rect id="Rectangle_3828" data-name="Rectangle 3828" width="0.539" height="78.19" transform="translate(26.975 11.333)" fill="#521cf6"/>
      <rect id="Rectangle_3829" data-name="Rectangle 3829" width="0.539" height="78.19" transform="translate(27.514 11.333)" fill="#541cf6"/>
      <rect id="Rectangle_3830" data-name="Rectangle 3830" width="0.539" height="78.19" transform="translate(28.052 11.333)" fill="#551cf6"/>
      <rect id="Rectangle_3831" data-name="Rectangle 3831" width="0.539" height="78.19" transform="translate(28.591 11.333)" fill="#561cf6"/>
      <rect id="Rectangle_3832" data-name="Rectangle 3832" width="0.539" height="78.19" transform="translate(29.13 11.333)" fill="#571cf6"/>
      <rect id="Rectangle_3833" data-name="Rectangle 3833" width="0.539" height="78.19" transform="translate(29.668 11.333)" fill="#581cf6"/>
      <rect id="Rectangle_3834" data-name="Rectangle 3834" width="0.539" height="78.19" transform="translate(30.207 11.333)" fill="#591cf6"/>
      <rect id="Rectangle_3835" data-name="Rectangle 3835" width="0.539" height="78.19" transform="translate(30.746 11.333)" fill="#5a1cf6"/>
      <rect id="Rectangle_3836" data-name="Rectangle 3836" width="0.539" height="78.19" transform="translate(31.285 11.333)" fill="#5b1cf6"/>
      <rect id="Rectangle_3837" data-name="Rectangle 3837" width="0.539" height="78.19" transform="translate(31.823 11.333)" fill="#5c1cf6"/>
      <rect id="Rectangle_3838" data-name="Rectangle 3838" width="0.539" height="78.19" transform="translate(32.362 11.333)" fill="#5d1cf5"/>
      <rect id="Rectangle_3839" data-name="Rectangle 3839" width="0.539" height="78.19" transform="translate(32.901 11.333)" fill="#5e1cf5"/>
      <rect id="Rectangle_3840" data-name="Rectangle 3840" width="0.539" height="78.19" transform="translate(33.439 11.333)" fill="#5f1cf5"/>
      <rect id="Rectangle_3841" data-name="Rectangle 3841" width="0.539" height="78.19" transform="translate(33.978 11.333)" fill="#601cf5"/>
      <rect id="Rectangle_3842" data-name="Rectangle 3842" width="0.539" height="78.19" transform="translate(34.517 11.333)" fill="#611cf5"/>
      <rect id="Rectangle_3843" data-name="Rectangle 3843" width="0.539" height="78.19" transform="translate(35.055 11.333)" fill="#621cf5"/>
      <rect id="Rectangle_3844" data-name="Rectangle 3844" width="0.539" height="78.19" transform="translate(35.594 11.333)" fill="#631cf5"/>
      <rect id="Rectangle_3845" data-name="Rectangle 3845" width="0.539" height="78.19" transform="translate(36.133 11.333)" fill="#641cf5"/>
      <rect id="Rectangle_3846" data-name="Rectangle 3846" width="0.539" height="78.19" transform="translate(36.671 11.333)" fill="#651cf5"/>
      <rect id="Rectangle_3847" data-name="Rectangle 3847" width="0.539" height="78.19" transform="translate(37.21 11.333)" fill="#661cf5"/>
      <rect id="Rectangle_3848" data-name="Rectangle 3848" width="0.539" height="78.19" transform="translate(37.749 11.333)" fill="#671cf5"/>
      <rect id="Rectangle_3849" data-name="Rectangle 3849" width="0.539" height="78.19" transform="translate(38.287 11.333)" fill="#681cf5"/>
      <rect id="Rectangle_3850" data-name="Rectangle 3850" width="0.539" height="78.19" transform="translate(38.826 11.333)" fill="#691cf5"/>
      <rect id="Rectangle_3851" data-name="Rectangle 3851" width="0.539" height="78.19" transform="translate(39.365 11.333)" fill="#6a1cf5"/>
      <rect id="Rectangle_3852" data-name="Rectangle 3852" width="0.539" height="78.19" transform="translate(39.903 11.333)" fill="#6b1cf5"/>
      <rect id="Rectangle_3853" data-name="Rectangle 3853" width="0.539" height="78.19" transform="translate(40.442 11.333)" fill="#6c1cf5"/>
      <rect id="Rectangle_3854" data-name="Rectangle 3854" width="0.539" height="78.19" transform="translate(40.981 11.333)" fill="#6d1cf5"/>
      <rect id="Rectangle_3855" data-name="Rectangle 3855" width="0.539" height="78.19" transform="translate(41.52 11.333)" fill="#6e1cf4"/>
      <rect id="Rectangle_3856" data-name="Rectangle 3856" width="0.539" height="78.19" transform="translate(42.058 11.333)" fill="#6f1cf4"/>
      <rect id="Rectangle_3857" data-name="Rectangle 3857" width="0.539" height="78.19" transform="translate(42.597 11.333)" fill="#701cf4"/>
      <rect id="Rectangle_3858" data-name="Rectangle 3858" width="0.539" height="78.19" transform="translate(43.136 11.333)" fill="#711cf4"/>
      <rect id="Rectangle_3859" data-name="Rectangle 3859" width="0.519" height="78.19" transform="translate(43.674 11.332)" fill="#721cf4"/>
    </g>
  </g>
</svg>
