<svg xmlns="http://www.w3.org/2000/svg" width="114.427" height="114.577" viewBox="0 0 114.427 114.577">
  <g id="Group_38884" data-name="Group 38884" transform="translate(-1189.561 -2601.261)">
    <path id="Path_7974" data-name="Path 7974" d="M37.446,9416.133H14.011a14.016,14.016,0,0,1-14-14v-23.57a14.015,14.015,0,0,1,14-14H37.446a14.015,14.015,0,0,1,14,14v23.57a14.016,14.016,0,0,1-14,14m-23.435-38.781a1.213,1.213,0,0,0-1.211,1.211v23.57a1.212,1.212,0,0,0,1.211,1.211H37.446a1.212,1.212,0,0,0,1.211-1.211v-23.57a1.213,1.213,0,0,0-1.211-1.211Z" transform="translate(1189.55 -6763.303)" fill="#88878c"/>
    <path id="Path_7975" data-name="Path 7975" d="M285.356,9416.133H261.921a14.016,14.016,0,0,1-14-14v-23.57a14.015,14.015,0,0,1,14-14h23.435a14.015,14.015,0,0,1,14,14v23.57a14.016,14.016,0,0,1-14,14m-23.435-38.781a1.213,1.213,0,0,0-1.211,1.211v23.57a1.212,1.212,0,0,0,1.211,1.211h23.435a1.212,1.212,0,0,0,1.211-1.211v-23.57a1.213,1.213,0,0,0-1.211-1.211Z" transform="translate(1004.632 -6763.303)" fill="#88878c"/>
    <path id="Path_7976" data-name="Path 7976" d="M51.445,9664.1H.011v-51.569H51.445ZM12.8,9651.313H38.657V9625.32H12.8Z" transform="translate(1189.55 -6948.264)" fill="#88878c"/>
    <path id="Path_7977" data-name="Path 7977" d="M285.356,9664.1H261.921a14.016,14.016,0,0,1-14-14v-23.57a14.015,14.015,0,0,1,14-14h23.435a14.015,14.015,0,0,1,14,14v23.57a14.016,14.016,0,0,1-14,14m-23.435-38.781a1.213,1.213,0,0,0-1.211,1.211v23.57a1.212,1.212,0,0,0,1.211,1.211h23.435a1.212,1.212,0,0,0,1.211-1.211v-23.57a1.213,1.213,0,0,0-1.211-1.211Z" transform="translate(1004.632 -6948.264)" fill="#88878c"/>
  </g>
</svg>
