<svg xmlns="http://www.w3.org/2000/svg" width="114.369" height="114.534" viewBox="0 0 114.369 114.534">
  <g id="Group_38875" data-name="Group 38875" transform="translate(-1454.867 -744.521)">
    <path id="Path_7855" data-name="Path 7855" d="M1225.674,2392.01h-12.731v-17.4a9.425,9.425,0,0,0-18.85,0v17.4h-12.73v-17.4a22.155,22.155,0,0,1,44.311,0Z" transform="translate(308.376 -1532.955)" fill="#88878c"/>
    <path id="Path_7860" data-name="Path 7860" d="M1158.5,2171.5h-12.73v-54.362a25.9,25.9,0,0,0-9.244-19.86L1106.471,2072a8,8,0,0,0-10.321,0l-30.05,25.284a25.9,25.9,0,0,0-9.244,19.859V2171.5h-12.73v-54.362a38.6,38.6,0,0,1,13.778-29.6l30.05-25.284a20.706,20.706,0,0,1,26.713,0l30.05,25.284a38.6,38.6,0,0,1,13.778,29.6Z" transform="translate(410.741 -1312.853)" fill="#88878c"/>
  </g>
</svg>
