<svg xmlns="http://www.w3.org/2000/svg" width="34.47" height="141.267" viewBox="0 0 34.47 141.267">
  <g id="Group_38882" data-name="Group 38882" transform="translate(-1492.247 -1790.432)">
    <path id="Path_7922" data-name="Path 7922" d="M1208.469,6208.023h0a17.234,17.234,0,1,1,12.187-5.048,17.122,17.122,0,0,1-12.187,5.048" transform="translate(301.013 -4383.121)" fill="#88878c"/>
    <path id="Path_7923" data-name="Path 7923" d="M1208.469,6418.172h0a17.234,17.234,0,1,1,12.187-5.048,17.122,17.122,0,0,1-12.187,5.048" transform="translate(301.013 -4539.871)" fill="#88878c"/>
    <path id="Path_7924" data-name="Path 7924" d="M1208.469,6628.32h0a17.234,17.234,0,1,1,12.187-5.048,17.122,17.122,0,0,1-12.187,5.048" transform="translate(301.013 -4696.621)" fill="#88878c"/>
  </g>
</svg>
