<svg xmlns="http://www.w3.org/2000/svg" xmlns:xlink="http://www.w3.org/1999/xlink" width="34.47" height="141.267" viewBox="0 0 34.47 141.267">
  <defs>
    <clipPath id="clip-path">
      <path id="Path_8111" data-name="Path 8111" d="M1196.281,6178.6a17.234,17.234,0,1,0,12.187-5.048,17.121,17.121,0,0,0-12.187,5.048" transform="translate(-1191.233 -6173.552)" fill="none"/>
    </clipPath>
    <clipPath id="clip-path-2">
      <path id="Path_8113" data-name="Path 8113" d="M1196.281,6388.751a17.233,17.233,0,1,0,12.187-5.049,17.12,17.12,0,0,0-12.187,5.049" transform="translate(-1191.233 -6383.702)" fill="none"/>
    </clipPath>
  </defs>
  <g id="Group_38884" data-name="Group 38884" transform="translate(-651.698 -1790.432)">
    <g id="Group_38809" data-name="Group 38809" transform="translate(651.698 1790.432)" clip-path="url(#clip-path)">
      <rect id="Rectangle_4257" data-name="Rectangle 4257" width="0.025" height="34.47" transform="translate(0 0)" fill="#201cf9"/>
      <rect id="Rectangle_4258" data-name="Rectangle 4258" width="0.334" height="34.47" transform="translate(0.025 0)" fill="#201cf9"/>
      <rect id="Rectangle_4259" data-name="Rectangle 4259" width="0.334" height="34.47" transform="translate(0.36 0)" fill="#211cf9"/>
      <rect id="Rectangle_4260" data-name="Rectangle 4260" width="0.334" height="34.47" transform="translate(0.694 0)" fill="#221cf9"/>
      <rect id="Rectangle_4261" data-name="Rectangle 4261" width="0.334" height="34.47" transform="translate(1.028 0)" fill="#231cf9"/>
      <rect id="Rectangle_4262" data-name="Rectangle 4262" width="0.334" height="34.47" transform="translate(1.363 0)" fill="#241cf9"/>
      <rect id="Rectangle_4263" data-name="Rectangle 4263" width="0.334" height="34.47" transform="translate(1.697 0)" fill="#251cf9"/>
      <rect id="Rectangle_4264" data-name="Rectangle 4264" width="0.334" height="34.47" transform="translate(2.031 0)" fill="#261cf9"/>
      <rect id="Rectangle_4265" data-name="Rectangle 4265" width="0.334" height="34.47" transform="translate(2.366 0)" fill="#271cf9"/>
      <rect id="Rectangle_4266" data-name="Rectangle 4266" width="0.334" height="34.47" transform="translate(2.701 0)" fill="#281cf9"/>
      <rect id="Rectangle_4267" data-name="Rectangle 4267" width="0.334" height="34.47" transform="translate(3.035 0)" fill="#291cf8"/>
      <rect id="Rectangle_4268" data-name="Rectangle 4268" width="0.334" height="34.47" transform="translate(3.369 0)" fill="#2a1cf8"/>
      <rect id="Rectangle_4269" data-name="Rectangle 4269" width="0.334" height="34.47" transform="translate(3.704 0)" fill="#2b1cf8"/>
      <rect id="Rectangle_4270" data-name="Rectangle 4270" width="0.334" height="34.47" transform="translate(4.038 0)" fill="#2c1cf8"/>
      <rect id="Rectangle_4271" data-name="Rectangle 4271" width="0.334" height="34.47" transform="translate(4.372 0)" fill="#2d1cf8"/>
      <rect id="Rectangle_4272" data-name="Rectangle 4272" width="0.334" height="34.47" transform="translate(4.707 0)" fill="#2e1cf8"/>
      <rect id="Rectangle_4273" data-name="Rectangle 4273" width="0.334" height="34.47" transform="translate(5.041 0)" fill="#2f1cf8"/>
      <rect id="Rectangle_4274" data-name="Rectangle 4274" width="0.334" height="34.47" transform="translate(5.376 0)" fill="#301cf8"/>
      <rect id="Rectangle_4275" data-name="Rectangle 4275" width="0.334" height="34.47" transform="translate(5.71 0)" fill="#311cf8"/>
      <rect id="Rectangle_4276" data-name="Rectangle 4276" width="0.334" height="34.47" transform="translate(6.045 0)" fill="#321cf8"/>
      <rect id="Rectangle_4277" data-name="Rectangle 4277" width="0.334" height="34.47" transform="translate(6.379 0)" fill="#331cf8"/>
      <rect id="Rectangle_4278" data-name="Rectangle 4278" width="0.334" height="34.47" transform="translate(6.713 0)" fill="#341cf8"/>
      <rect id="Rectangle_4279" data-name="Rectangle 4279" width="0.334" height="34.47" transform="translate(7.048 0)" fill="#351cf8"/>
      <rect id="Rectangle_4280" data-name="Rectangle 4280" width="0.334" height="34.47" transform="translate(7.382 0)" fill="#361cf8"/>
      <rect id="Rectangle_4281" data-name="Rectangle 4281" width="0.334" height="34.47" transform="translate(7.717 0)" fill="#371cf8"/>
      <rect id="Rectangle_4282" data-name="Rectangle 4282" width="0.334" height="34.47" transform="translate(8.051 0)" fill="#381cf8"/>
      <rect id="Rectangle_4283" data-name="Rectangle 4283" width="0.334" height="34.47" transform="translate(8.385 0)" fill="#391cf8"/>
      <rect id="Rectangle_4284" data-name="Rectangle 4284" width="0.334" height="34.47" transform="translate(8.72 0)" fill="#3a1cf7"/>
      <rect id="Rectangle_4285" data-name="Rectangle 4285" width="0.334" height="34.47" transform="translate(9.054 0)" fill="#3b1cf7"/>
      <rect id="Rectangle_4286" data-name="Rectangle 4286" width="0.334" height="34.47" transform="translate(9.389 0)" fill="#3c1cf7"/>
      <rect id="Rectangle_4287" data-name="Rectangle 4287" width="0.334" height="34.47" transform="translate(9.723 0)" fill="#3d1cf7"/>
      <rect id="Rectangle_4288" data-name="Rectangle 4288" width="0.334" height="34.47" transform="translate(10.058 0)" fill="#3e1cf7"/>
      <rect id="Rectangle_4289" data-name="Rectangle 4289" width="0.334" height="34.47" transform="translate(10.392 0)" fill="#3f1cf7"/>
      <rect id="Rectangle_4290" data-name="Rectangle 4290" width="0.334" height="34.47" transform="translate(10.726 0)" fill="#401cf7"/>
      <rect id="Rectangle_4291" data-name="Rectangle 4291" width="0.334" height="34.47" transform="translate(11.061 0)" fill="#411cf7"/>
      <rect id="Rectangle_4292" data-name="Rectangle 4292" width="0.334" height="34.47" transform="translate(11.395 0)" fill="#421cf7"/>
      <rect id="Rectangle_4293" data-name="Rectangle 4293" width="0.334" height="34.47" transform="translate(11.73 0)" fill="#431cf7"/>
      <rect id="Rectangle_4294" data-name="Rectangle 4294" width="0.334" height="34.47" transform="translate(12.064 0)" fill="#441cf7"/>
      <rect id="Rectangle_4295" data-name="Rectangle 4295" width="0.334" height="34.47" transform="translate(12.399 0)" fill="#451cf7"/>
      <rect id="Rectangle_4296" data-name="Rectangle 4296" width="0.334" height="34.47" transform="translate(12.733 0)" fill="#461cf7"/>
      <rect id="Rectangle_4297" data-name="Rectangle 4297" width="0.334" height="34.47" transform="translate(13.067 0)" fill="#471cf7"/>
      <rect id="Rectangle_4298" data-name="Rectangle 4298" width="0.334" height="34.47" transform="translate(13.402 0)" fill="#481cf7"/>
      <rect id="Rectangle_4299" data-name="Rectangle 4299" width="0.334" height="34.47" transform="translate(13.736 0)" fill="#491cf7"/>
      <rect id="Rectangle_4300" data-name="Rectangle 4300" width="0.334" height="34.47" transform="translate(14.071 0)" fill="#4a1cf7"/>
      <rect id="Rectangle_4301" data-name="Rectangle 4301" width="0.334" height="34.47" transform="translate(14.405 0)" fill="#4b1cf6"/>
      <rect id="Rectangle_4302" data-name="Rectangle 4302" width="0.334" height="34.47" transform="translate(14.739 0)" fill="#4c1cf6"/>
      <rect id="Rectangle_4303" data-name="Rectangle 4303" width="0.334" height="34.47" transform="translate(15.074 0)" fill="#4d1cf6"/>
      <rect id="Rectangle_4304" data-name="Rectangle 4304" width="0.334" height="34.47" transform="translate(15.408 0)" fill="#4e1cf6"/>
      <rect id="Rectangle_4305" data-name="Rectangle 4305" width="0.334" height="34.47" transform="translate(15.743 0)" fill="#4f1cf6"/>
      <rect id="Rectangle_4306" data-name="Rectangle 4306" width="0.334" height="34.47" transform="translate(16.077 0)" fill="#501cf6"/>
      <rect id="Rectangle_4307" data-name="Rectangle 4307" width="0.334" height="34.47" transform="translate(16.412 0)" fill="#511cf6"/>
      <rect id="Rectangle_4308" data-name="Rectangle 4308" width="0.334" height="34.47" transform="translate(16.746 0)" fill="#521cf6"/>
      <rect id="Rectangle_4309" data-name="Rectangle 4309" width="0.334" height="34.47" transform="translate(17.08 0)" fill="#541cf6"/>
      <rect id="Rectangle_4310" data-name="Rectangle 4310" width="0.334" height="34.47" transform="translate(17.415 0)" fill="#551cf6"/>
      <rect id="Rectangle_4311" data-name="Rectangle 4311" width="0.334" height="34.47" transform="translate(17.749 0)" fill="#561cf6"/>
      <rect id="Rectangle_4312" data-name="Rectangle 4312" width="0.334" height="34.47" transform="translate(18.084 0)" fill="#571cf6"/>
      <rect id="Rectangle_4313" data-name="Rectangle 4313" width="0.334" height="34.47" transform="translate(18.418 0)" fill="#581cf6"/>
      <rect id="Rectangle_4314" data-name="Rectangle 4314" width="0.334" height="34.47" transform="translate(18.753 0)" fill="#591cf6"/>
      <rect id="Rectangle_4315" data-name="Rectangle 4315" width="0.334" height="34.47" transform="translate(19.087 0)" fill="#5a1cf6"/>
      <rect id="Rectangle_4316" data-name="Rectangle 4316" width="0.334" height="34.47" transform="translate(19.421 0)" fill="#5b1cf6"/>
      <rect id="Rectangle_4317" data-name="Rectangle 4317" width="0.334" height="34.47" transform="translate(19.756 0)" fill="#5c1cf6"/>
      <rect id="Rectangle_4318" data-name="Rectangle 4318" width="0.334" height="34.47" transform="translate(20.09 0)" fill="#5d1cf5"/>
      <rect id="Rectangle_4319" data-name="Rectangle 4319" width="0.334" height="34.47" transform="translate(20.425 0)" fill="#5e1cf5"/>
      <rect id="Rectangle_4320" data-name="Rectangle 4320" width="0.334" height="34.47" transform="translate(20.759 0)" fill="#5f1cf5"/>
      <rect id="Rectangle_4321" data-name="Rectangle 4321" width="0.334" height="34.47" transform="translate(21.093 0)" fill="#601cf5"/>
      <rect id="Rectangle_4322" data-name="Rectangle 4322" width="0.334" height="34.47" transform="translate(21.428 0)" fill="#611cf5"/>
      <rect id="Rectangle_4323" data-name="Rectangle 4323" width="0.334" height="34.47" transform="translate(21.762 0)" fill="#621cf5"/>
      <rect id="Rectangle_4324" data-name="Rectangle 4324" width="0.334" height="34.47" transform="translate(22.097 0)" fill="#631cf5"/>
      <rect id="Rectangle_4325" data-name="Rectangle 4325" width="0.334" height="34.47" transform="translate(22.431 0)" fill="#641cf5"/>
      <rect id="Rectangle_4326" data-name="Rectangle 4326" width="0.334" height="34.47" transform="translate(22.766 0)" fill="#651cf5"/>
      <rect id="Rectangle_4327" data-name="Rectangle 4327" width="0.334" height="34.47" transform="translate(23.1 0)" fill="#661cf5"/>
      <rect id="Rectangle_4328" data-name="Rectangle 4328" width="0.334" height="34.47" transform="translate(23.434 0)" fill="#671cf5"/>
      <rect id="Rectangle_4329" data-name="Rectangle 4329" width="0.334" height="34.47" transform="translate(23.769 0)" fill="#681cf5"/>
      <rect id="Rectangle_4330" data-name="Rectangle 4330" width="0.334" height="34.47" transform="translate(24.103 0)" fill="#691cf5"/>
      <rect id="Rectangle_4331" data-name="Rectangle 4331" width="0.334" height="34.47" transform="translate(24.438 0)" fill="#6a1cf5"/>
      <rect id="Rectangle_4332" data-name="Rectangle 4332" width="0.334" height="34.47" transform="translate(24.772 0)" fill="#6b1cf5"/>
      <rect id="Rectangle_4333" data-name="Rectangle 4333" width="0.334" height="34.47" transform="translate(25.107 0)" fill="#6c1cf5"/>
      <rect id="Rectangle_4334" data-name="Rectangle 4334" width="0.334" height="34.47" transform="translate(25.441 0)" fill="#6d1cf5"/>
      <rect id="Rectangle_4335" data-name="Rectangle 4335" width="0.334" height="34.47" transform="translate(25.775 0)" fill="#6e1cf4"/>
      <rect id="Rectangle_4336" data-name="Rectangle 4336" width="0.334" height="34.47" transform="translate(26.11 0)" fill="#6f1cf4"/>
      <rect id="Rectangle_4337" data-name="Rectangle 4337" width="0.334" height="34.47" transform="translate(26.444 0)" fill="#701cf4"/>
      <rect id="Rectangle_4338" data-name="Rectangle 4338" width="0.334" height="34.47" transform="translate(26.779 0)" fill="#711cf4"/>
      <rect id="Rectangle_4339" data-name="Rectangle 4339" width="0.334" height="34.47" transform="translate(27.113 0)" fill="#721cf4"/>
      <rect id="Rectangle_4340" data-name="Rectangle 4340" width="0.334" height="34.47" transform="translate(27.447 0)" fill="#731cf4"/>
      <rect id="Rectangle_4341" data-name="Rectangle 4341" width="0.334" height="34.47" transform="translate(27.782 0)" fill="#741cf4"/>
      <rect id="Rectangle_4342" data-name="Rectangle 4342" width="0.334" height="34.47" transform="translate(28.116 0)" fill="#751cf4"/>
      <rect id="Rectangle_4343" data-name="Rectangle 4343" width="0.334" height="34.47" transform="translate(28.451 0)" fill="#761cf4"/>
      <rect id="Rectangle_4344" data-name="Rectangle 4344" width="0.334" height="34.47" transform="translate(28.785 0)" fill="#771cf4"/>
      <rect id="Rectangle_4345" data-name="Rectangle 4345" width="0.334" height="34.47" transform="translate(29.12 0)" fill="#781cf4"/>
      <rect id="Rectangle_4346" data-name="Rectangle 4346" width="0.334" height="34.47" transform="translate(29.454 0)" fill="#791cf4"/>
      <rect id="Rectangle_4347" data-name="Rectangle 4347" width="0.334" height="34.47" transform="translate(29.788 0)" fill="#7a1cf4"/>
      <rect id="Rectangle_4348" data-name="Rectangle 4348" width="0.334" height="34.47" transform="translate(30.123 0)" fill="#7b1cf4"/>
      <rect id="Rectangle_4349" data-name="Rectangle 4349" width="0.334" height="34.47" transform="translate(30.457 0)" fill="#7c1cf4"/>
      <rect id="Rectangle_4350" data-name="Rectangle 4350" width="0.334" height="34.47" transform="translate(30.792 0)" fill="#7d1cf4"/>
      <rect id="Rectangle_4351" data-name="Rectangle 4351" width="0.334" height="34.47" transform="translate(31.126 0)" fill="#7e1cf4"/>
      <rect id="Rectangle_4352" data-name="Rectangle 4352" width="0.334" height="34.47" transform="translate(31.461 0)" fill="#7f1cf3"/>
      <rect id="Rectangle_4353" data-name="Rectangle 4353" width="0.334" height="34.47" transform="translate(31.795 0)" fill="#801cf3"/>
      <rect id="Rectangle_4354" data-name="Rectangle 4354" width="0.334" height="34.47" transform="translate(32.129 0)" fill="#811cf3"/>
      <rect id="Rectangle_4355" data-name="Rectangle 4355" width="0.334" height="34.47" transform="translate(32.464 0)" fill="#821cf3"/>
      <rect id="Rectangle_4356" data-name="Rectangle 4356" width="0.334" height="34.47" transform="translate(32.798 0)" fill="#831cf3"/>
      <rect id="Rectangle_4357" data-name="Rectangle 4357" width="0.334" height="34.47" transform="translate(33.133 0)" fill="#841cf3"/>
      <rect id="Rectangle_4358" data-name="Rectangle 4358" width="0.334" height="34.47" transform="translate(33.467 0)" fill="#851cf3"/>
      <rect id="Rectangle_4359" data-name="Rectangle 4359" width="0.334" height="34.47" transform="translate(33.801 0)" fill="#861cf3"/>
      <rect id="Rectangle_4360" data-name="Rectangle 4360" width="0.334" height="34.47" transform="translate(34.136 0)" fill="#871cf3"/>
      <path id="Path_8110" data-name="Path 8110" d="M1326.89,6208.024v0Z" transform="translate(-1292.42 -6173.553)" fill="#871cf3"/>
    </g>
    <g id="Group_38811" data-name="Group 38811" transform="translate(651.698 1843.831)" clip-path="url(#clip-path-2)">
      <rect id="Rectangle_4361" data-name="Rectangle 4361" width="0.025" height="34.47" transform="translate(0 0)" fill="#201cf9"/>
      <rect id="Rectangle_4362" data-name="Rectangle 4362" width="0.334" height="34.47" transform="translate(0.025 0)" fill="#201cf9"/>
      <rect id="Rectangle_4363" data-name="Rectangle 4363" width="0.334" height="34.47" transform="translate(0.36 0)" fill="#211cf9"/>
      <rect id="Rectangle_4364" data-name="Rectangle 4364" width="0.334" height="34.47" transform="translate(0.694 0)" fill="#221cf9"/>
      <rect id="Rectangle_4365" data-name="Rectangle 4365" width="0.334" height="34.47" transform="translate(1.028 0)" fill="#231cf9"/>
      <rect id="Rectangle_4366" data-name="Rectangle 4366" width="0.334" height="34.47" transform="translate(1.363 0)" fill="#241cf9"/>
      <rect id="Rectangle_4367" data-name="Rectangle 4367" width="0.334" height="34.47" transform="translate(1.697 0)" fill="#251cf9"/>
      <rect id="Rectangle_4368" data-name="Rectangle 4368" width="0.334" height="34.47" transform="translate(2.031 0)" fill="#261cf9"/>
      <rect id="Rectangle_4369" data-name="Rectangle 4369" width="0.334" height="34.47" transform="translate(2.366 0)" fill="#271cf9"/>
      <rect id="Rectangle_4370" data-name="Rectangle 4370" width="0.334" height="34.47" transform="translate(2.701 0)" fill="#281cf9"/>
      <rect id="Rectangle_4371" data-name="Rectangle 4371" width="0.334" height="34.47" transform="translate(3.035 0)" fill="#291cf8"/>
      <rect id="Rectangle_4372" data-name="Rectangle 4372" width="0.334" height="34.47" transform="translate(3.369 0)" fill="#2a1cf8"/>
      <rect id="Rectangle_4373" data-name="Rectangle 4373" width="0.334" height="34.47" transform="translate(3.704 0)" fill="#2b1cf8"/>
      <rect id="Rectangle_4374" data-name="Rectangle 4374" width="0.334" height="34.47" transform="translate(4.038 0)" fill="#2c1cf8"/>
      <rect id="Rectangle_4375" data-name="Rectangle 4375" width="0.334" height="34.47" transform="translate(4.372 0)" fill="#2d1cf8"/>
      <rect id="Rectangle_4376" data-name="Rectangle 4376" width="0.334" height="34.47" transform="translate(4.707 0)" fill="#2e1cf8"/>
      <rect id="Rectangle_4377" data-name="Rectangle 4377" width="0.334" height="34.47" transform="translate(5.041 0)" fill="#2f1cf8"/>
      <rect id="Rectangle_4378" data-name="Rectangle 4378" width="0.334" height="34.47" transform="translate(5.376 0)" fill="#301cf8"/>
      <rect id="Rectangle_4379" data-name="Rectangle 4379" width="0.334" height="34.47" transform="translate(5.71 0)" fill="#311cf8"/>
      <rect id="Rectangle_4380" data-name="Rectangle 4380" width="0.334" height="34.47" transform="translate(6.045 0)" fill="#321cf8"/>
      <rect id="Rectangle_4381" data-name="Rectangle 4381" width="0.334" height="34.47" transform="translate(6.379 0)" fill="#331cf8"/>
      <rect id="Rectangle_4382" data-name="Rectangle 4382" width="0.334" height="34.47" transform="translate(6.713 0)" fill="#341cf8"/>
      <rect id="Rectangle_4383" data-name="Rectangle 4383" width="0.334" height="34.47" transform="translate(7.048 0)" fill="#351cf8"/>
      <rect id="Rectangle_4384" data-name="Rectangle 4384" width="0.334" height="34.47" transform="translate(7.382 0)" fill="#361cf8"/>
      <rect id="Rectangle_4385" data-name="Rectangle 4385" width="0.334" height="34.47" transform="translate(7.717 0)" fill="#371cf8"/>
      <rect id="Rectangle_4386" data-name="Rectangle 4386" width="0.334" height="34.47" transform="translate(8.051 0)" fill="#381cf8"/>
      <rect id="Rectangle_4387" data-name="Rectangle 4387" width="0.334" height="34.47" transform="translate(8.385 0)" fill="#391cf8"/>
      <rect id="Rectangle_4388" data-name="Rectangle 4388" width="0.334" height="34.47" transform="translate(8.72 0)" fill="#3a1cf7"/>
      <rect id="Rectangle_4389" data-name="Rectangle 4389" width="0.334" height="34.47" transform="translate(9.054 0)" fill="#3b1cf7"/>
      <rect id="Rectangle_4390" data-name="Rectangle 4390" width="0.334" height="34.47" transform="translate(9.389 0)" fill="#3c1cf7"/>
      <rect id="Rectangle_4391" data-name="Rectangle 4391" width="0.334" height="34.47" transform="translate(9.723 0)" fill="#3d1cf7"/>
      <rect id="Rectangle_4392" data-name="Rectangle 4392" width="0.334" height="34.47" transform="translate(10.058 0)" fill="#3e1cf7"/>
      <rect id="Rectangle_4393" data-name="Rectangle 4393" width="0.334" height="34.47" transform="translate(10.392 0)" fill="#3f1cf7"/>
      <rect id="Rectangle_4394" data-name="Rectangle 4394" width="0.334" height="34.47" transform="translate(10.726 0)" fill="#401cf7"/>
      <rect id="Rectangle_4395" data-name="Rectangle 4395" width="0.334" height="34.47" transform="translate(11.061 0)" fill="#411cf7"/>
      <rect id="Rectangle_4396" data-name="Rectangle 4396" width="0.334" height="34.47" transform="translate(11.395 0)" fill="#421cf7"/>
      <rect id="Rectangle_4397" data-name="Rectangle 4397" width="0.334" height="34.47" transform="translate(11.73 0)" fill="#431cf7"/>
      <rect id="Rectangle_4398" data-name="Rectangle 4398" width="0.334" height="34.47" transform="translate(12.064 0)" fill="#441cf7"/>
      <rect id="Rectangle_4399" data-name="Rectangle 4399" width="0.334" height="34.47" transform="translate(12.399 0)" fill="#451cf7"/>
      <rect id="Rectangle_4400" data-name="Rectangle 4400" width="0.334" height="34.47" transform="translate(12.733 0)" fill="#461cf7"/>
      <rect id="Rectangle_4401" data-name="Rectangle 4401" width="0.334" height="34.47" transform="translate(13.067 0)" fill="#471cf7"/>
      <rect id="Rectangle_4402" data-name="Rectangle 4402" width="0.334" height="34.47" transform="translate(13.402 0)" fill="#481cf7"/>
      <rect id="Rectangle_4403" data-name="Rectangle 4403" width="0.334" height="34.47" transform="translate(13.736 0)" fill="#491cf7"/>
      <rect id="Rectangle_4404" data-name="Rectangle 4404" width="0.334" height="34.47" transform="translate(14.071 0)" fill="#4a1cf7"/>
      <rect id="Rectangle_4405" data-name="Rectangle 4405" width="0.334" height="34.47" transform="translate(14.405 0)" fill="#4b1cf6"/>
      <rect id="Rectangle_4406" data-name="Rectangle 4406" width="0.334" height="34.47" transform="translate(14.739 0)" fill="#4c1cf6"/>
      <rect id="Rectangle_4407" data-name="Rectangle 4407" width="0.334" height="34.47" transform="translate(15.074 0)" fill="#4d1cf6"/>
      <rect id="Rectangle_4408" data-name="Rectangle 4408" width="0.334" height="34.47" transform="translate(15.408 0)" fill="#4e1cf6"/>
      <rect id="Rectangle_4409" data-name="Rectangle 4409" width="0.334" height="34.47" transform="translate(15.743 0)" fill="#4f1cf6"/>
      <rect id="Rectangle_4410" data-name="Rectangle 4410" width="0.334" height="34.47" transform="translate(16.077 0)" fill="#501cf6"/>
      <rect id="Rectangle_4411" data-name="Rectangle 4411" width="0.334" height="34.47" transform="translate(16.412 0)" fill="#511cf6"/>
      <rect id="Rectangle_4412" data-name="Rectangle 4412" width="0.334" height="34.47" transform="translate(16.746 0)" fill="#521cf6"/>
      <rect id="Rectangle_4413" data-name="Rectangle 4413" width="0.334" height="34.47" transform="translate(17.08 0)" fill="#541cf6"/>
      <rect id="Rectangle_4414" data-name="Rectangle 4414" width="0.334" height="34.47" transform="translate(17.415 0)" fill="#551cf6"/>
      <rect id="Rectangle_4415" data-name="Rectangle 4415" width="0.334" height="34.47" transform="translate(17.749 0)" fill="#561cf6"/>
      <rect id="Rectangle_4416" data-name="Rectangle 4416" width="0.334" height="34.47" transform="translate(18.084 0)" fill="#571cf6"/>
      <rect id="Rectangle_4417" data-name="Rectangle 4417" width="0.334" height="34.47" transform="translate(18.418 0)" fill="#581cf6"/>
      <rect id="Rectangle_4418" data-name="Rectangle 4418" width="0.334" height="34.47" transform="translate(18.753 0)" fill="#591cf6"/>
      <rect id="Rectangle_4419" data-name="Rectangle 4419" width="0.334" height="34.47" transform="translate(19.087 0)" fill="#5a1cf6"/>
      <rect id="Rectangle_4420" data-name="Rectangle 4420" width="0.334" height="34.47" transform="translate(19.421 0)" fill="#5b1cf6"/>
      <rect id="Rectangle_4421" data-name="Rectangle 4421" width="0.334" height="34.47" transform="translate(19.756 0)" fill="#5c1cf6"/>
      <rect id="Rectangle_4422" data-name="Rectangle 4422" width="0.334" height="34.47" transform="translate(20.09 0)" fill="#5d1cf5"/>
      <rect id="Rectangle_4423" data-name="Rectangle 4423" width="0.334" height="34.47" transform="translate(20.425 0)" fill="#5e1cf5"/>
      <rect id="Rectangle_4424" data-name="Rectangle 4424" width="0.334" height="34.47" transform="translate(20.759 0)" fill="#5f1cf5"/>
      <rect id="Rectangle_4425" data-name="Rectangle 4425" width="0.334" height="34.47" transform="translate(21.093 0)" fill="#601cf5"/>
      <rect id="Rectangle_4426" data-name="Rectangle 4426" width="0.334" height="34.47" transform="translate(21.428 0)" fill="#611cf5"/>
      <rect id="Rectangle_4427" data-name="Rectangle 4427" width="0.334" height="34.47" transform="translate(21.762 0)" fill="#621cf5"/>
      <rect id="Rectangle_4428" data-name="Rectangle 4428" width="0.334" height="34.47" transform="translate(22.097 0)" fill="#631cf5"/>
      <rect id="Rectangle_4429" data-name="Rectangle 4429" width="0.334" height="34.47" transform="translate(22.431 0)" fill="#641cf5"/>
      <rect id="Rectangle_4430" data-name="Rectangle 4430" width="0.334" height="34.47" transform="translate(22.766 0)" fill="#651cf5"/>
      <rect id="Rectangle_4431" data-name="Rectangle 4431" width="0.334" height="34.47" transform="translate(23.1 0)" fill="#661cf5"/>
      <rect id="Rectangle_4432" data-name="Rectangle 4432" width="0.334" height="34.47" transform="translate(23.434 0)" fill="#671cf5"/>
      <rect id="Rectangle_4433" data-name="Rectangle 4433" width="0.334" height="34.47" transform="translate(23.769 0)" fill="#681cf5"/>
      <rect id="Rectangle_4434" data-name="Rectangle 4434" width="0.334" height="34.47" transform="translate(24.103 0)" fill="#691cf5"/>
      <rect id="Rectangle_4435" data-name="Rectangle 4435" width="0.334" height="34.47" transform="translate(24.438 0)" fill="#6a1cf5"/>
      <rect id="Rectangle_4436" data-name="Rectangle 4436" width="0.334" height="34.47" transform="translate(24.772 0)" fill="#6b1cf5"/>
      <rect id="Rectangle_4437" data-name="Rectangle 4437" width="0.334" height="34.47" transform="translate(25.107 0)" fill="#6c1cf5"/>
      <rect id="Rectangle_4438" data-name="Rectangle 4438" width="0.334" height="34.47" transform="translate(25.441 0)" fill="#6d1cf5"/>
      <rect id="Rectangle_4439" data-name="Rectangle 4439" width="0.334" height="34.47" transform="translate(25.775 0)" fill="#6e1cf4"/>
      <rect id="Rectangle_4440" data-name="Rectangle 4440" width="0.334" height="34.47" transform="translate(26.11 0)" fill="#6f1cf4"/>
      <rect id="Rectangle_4441" data-name="Rectangle 4441" width="0.334" height="34.47" transform="translate(26.444 0)" fill="#701cf4"/>
      <rect id="Rectangle_4442" data-name="Rectangle 4442" width="0.334" height="34.47" transform="translate(26.779 0)" fill="#711cf4"/>
      <rect id="Rectangle_4443" data-name="Rectangle 4443" width="0.334" height="34.47" transform="translate(27.113 0)" fill="#721cf4"/>
      <rect id="Rectangle_4444" data-name="Rectangle 4444" width="0.334" height="34.47" transform="translate(27.447 0)" fill="#731cf4"/>
      <rect id="Rectangle_4445" data-name="Rectangle 4445" width="0.334" height="34.47" transform="translate(27.782 0)" fill="#741cf4"/>
      <rect id="Rectangle_4446" data-name="Rectangle 4446" width="0.334" height="34.47" transform="translate(28.116 0)" fill="#751cf4"/>
      <rect id="Rectangle_4447" data-name="Rectangle 4447" width="0.334" height="34.47" transform="translate(28.451 0)" fill="#761cf4"/>
      <rect id="Rectangle_4448" data-name="Rectangle 4448" width="0.334" height="34.47" transform="translate(28.785 0)" fill="#771cf4"/>
      <rect id="Rectangle_4449" data-name="Rectangle 4449" width="0.334" height="34.47" transform="translate(29.12 0)" fill="#781cf4"/>
      <rect id="Rectangle_4450" data-name="Rectangle 4450" width="0.334" height="34.47" transform="translate(29.454 0)" fill="#791cf4"/>
      <rect id="Rectangle_4451" data-name="Rectangle 4451" width="0.334" height="34.47" transform="translate(29.788 0)" fill="#7a1cf4"/>
      <rect id="Rectangle_4452" data-name="Rectangle 4452" width="0.334" height="34.47" transform="translate(30.123 0)" fill="#7b1cf4"/>
      <rect id="Rectangle_4453" data-name="Rectangle 4453" width="0.334" height="34.47" transform="translate(30.457 0)" fill="#7c1cf4"/>
      <rect id="Rectangle_4454" data-name="Rectangle 4454" width="0.334" height="34.47" transform="translate(30.792 0)" fill="#7d1cf4"/>
      <rect id="Rectangle_4455" data-name="Rectangle 4455" width="0.334" height="34.47" transform="translate(31.126 0)" fill="#7e1cf4"/>
      <rect id="Rectangle_4456" data-name="Rectangle 4456" width="0.334" height="34.47" transform="translate(31.461 0)" fill="#7f1cf3"/>
      <rect id="Rectangle_4457" data-name="Rectangle 4457" width="0.334" height="34.47" transform="translate(31.795 0)" fill="#801cf3"/>
      <rect id="Rectangle_4458" data-name="Rectangle 4458" width="0.334" height="34.47" transform="translate(32.129 0)" fill="#811cf3"/>
      <rect id="Rectangle_4459" data-name="Rectangle 4459" width="0.334" height="34.47" transform="translate(32.464 0)" fill="#821cf3"/>
      <rect id="Rectangle_4460" data-name="Rectangle 4460" width="0.334" height="34.47" transform="translate(32.798 0)" fill="#831cf3"/>
      <rect id="Rectangle_4461" data-name="Rectangle 4461" width="0.334" height="34.47" transform="translate(33.133 0)" fill="#841cf3"/>
      <rect id="Rectangle_4462" data-name="Rectangle 4462" width="0.334" height="34.47" transform="translate(33.467 0)" fill="#851cf3"/>
      <rect id="Rectangle_4463" data-name="Rectangle 4463" width="0.334" height="34.47" transform="translate(33.801 0)" fill="#861cf3"/>
      <rect id="Rectangle_4464" data-name="Rectangle 4464" width="0.334" height="34.47" transform="translate(34.136 0)" fill="#871cf3"/>
      <path id="Path_8112" data-name="Path 8112" d="M1326.89,6418.172v0Z" transform="translate(-1292.42 -6383.702)" fill="#871cf3"/>
    </g>
    <path id="Path_8114" data-name="Path 8114" d="M1208.469,6628.32h0a17.235,17.235,0,1,1,12.187-5.048,17.124,17.124,0,0,1-12.187,5.048" transform="translate(-539.535 -4696.622)" fill="#ff3c00"/>
  </g>
</svg>
