<svg xmlns="http://www.w3.org/2000/svg" xmlns:xlink="http://www.w3.org/1999/xlink" width="101.639" height="101.905" viewBox="0 0 101.639 101.905">
  <defs>
    <clipPath id="clip-path">
      <path id="Path_8180" data-name="Path 8180" d="M1095.641,9482.206v29.343h11.341v-29.343a32.83,32.83,0,0,1,65.661,0v29.343h11.341v-29.343a44.172,44.172,0,1,0-88.343,0" transform="translate(-1095.641 -9438.034)" fill="none"/>
    </clipPath>
    <linearGradient id="linear-gradient" x1="-3.151" y1="5.382" x2="-3.148" y2="5.382" gradientUnits="objectBoundingBox">
      <stop offset="0" stop-color="#201cf9"/>
      <stop offset="0.001" stop-color="#201cf9"/>
      <stop offset="1" stop-color="#871cf3"/>
    </linearGradient>
    <clipPath id="clip-path-2">
      <rect id="Rectangle_4492" data-name="Rectangle 4492" width="101.639" height="11.341" fill="none"/>
    </clipPath>
    <linearGradient id="linear-gradient-2" x1="-2.673" y1="28.846" x2="-2.67" y2="28.846" gradientUnits="objectBoundingBox">
      <stop offset="0" stop-color="#1c1cf9"/>
      <stop offset="0.001" stop-color="#1c1cf9"/>
      <stop offset="1" stop-color="#8a1cf4"/>
    </linearGradient>
  </defs>
  <g id="Group_38890" data-name="Group 38890" transform="translate(-620.685 -2612.918)">
    <path id="Path_8168" data-name="Path 8168" d="M1221.352,9764.605a15.987,15.987,0,0,1-15.969-15.97h11.341a4.628,4.628,0,1,0,9.256,0h11.341a15.987,15.987,0,0,1-15.969,15.97" transform="translate(-550.089 -7049.783)" fill="#ff3c00"/>
    <rect id="Rectangle_4488" data-name="Rectangle 4488" width="11.341" height="12.682" transform="translate(665.909 2612.918)" fill="#ff3c00"/>
    <g id="Group_38851" data-name="Group 38851" transform="translate(627.409 2619.93)" clip-path="url(#clip-path)">
      <rect id="Rectangle_4490" data-name="Rectangle 4490" width="88.343" height="73.515" fill="url(#linear-gradient)"/>
    </g>
    <g id="Group_38853" data-name="Group 38853" transform="translate(620.685 2688.451)" clip-path="url(#clip-path-2)">
      <rect id="Rectangle_4491" data-name="Rectangle 4491" width="101.639" height="11.341" fill="url(#linear-gradient-2)"/>
    </g>
  </g>
</svg>
