<svg xmlns="http://www.w3.org/2000/svg" width="101.639" height="101.904" viewBox="0 0 101.639 101.904">
  <g id="Group_38885" data-name="Group 38885" transform="translate(-1461.233 -2612.918)">
    <path id="Path_7978" data-name="Path 7978" d="M1221.352,9764.605a15.988,15.988,0,0,1-15.969-15.97h11.341a4.628,4.628,0,0,0,9.256,0h11.341a15.988,15.988,0,0,1-15.969,15.97" transform="translate(290.46 -7049.783)" fill="#88878c"/>
    <rect id="Rectangle_3663" data-name="Rectangle 3663" width="11.341" height="12.682" transform="translate(1506.458 2612.918)" fill="#88878c"/>
    <path id="Path_7990" data-name="Path 7990" d="M1183.984,9511.55h-11.341v-29.344a32.83,32.83,0,0,0-65.661,0v29.344h-11.341v-29.344a44.171,44.171,0,0,1,88.343,0Z" transform="translate(372.315 -6818.105)" fill="#88878c"/>
    <rect id="Rectangle_3664" data-name="Rectangle 3664" width="101.639" height="11.341" transform="translate(1461.233 2688.451)" fill="#88878c"/>
  </g>
</svg>
