<svg xmlns="http://www.w3.org/2000/svg" xmlns:xlink="http://www.w3.org/1999/xlink" width="114.427" height="114.164" viewBox="0 0 114.427 114.164">
  <defs>
    <clipPath id="clip-path">
      <rect id="Rectangle_4481" data-name="Rectangle 4481" width="12.788" height="114.164" fill="none"/>
    </clipPath>
    <linearGradient id="linear-gradient" x1="-28.693" y1="5.925" x2="-28.673" y2="5.925" gradientUnits="objectBoundingBox">
      <stop offset="0" stop-color="#201cf9"/>
      <stop offset="0.001" stop-color="#201cf9"/>
      <stop offset="1" stop-color="#871cf3"/>
    </linearGradient>
  </defs>
  <g id="Group_38888" data-name="Group 38888" transform="translate(-614.29 -2339.131)">
    <path id="Path_8150" data-name="Path 8150" d="M1067.318,8451.2a23.262,23.262,0,0,1-11.316-2.973,23,23,0,0,1-11.987-20.36l0-63a23.286,23.286,0,0,1,35.424-19.874l51.043,31.175a23.287,23.287,0,0,1,.184,39.633l-51.04,31.826a23.192,23.192,0,0,1-12.3,3.574m-.015-96.853a10.546,10.546,0,0,0-10.5,10.519l0,63a10.5,10.5,0,0,0,16.053,8.907l51.039-31.826a10.5,10.5,0,0,0-.083-17.867L1072.77,8355.9a10.453,10.453,0,0,0-5.467-1.559" transform="translate(-429.722 -6000.221)" fill="#ff3c00"/>
    <g id="Group_38837" data-name="Group 38837" transform="translate(715.929 2339.131)" clip-path="url(#clip-path)">
      <rect id="Rectangle_4480" data-name="Rectangle 4480" width="12.788" height="114.164" transform="translate(0)" fill="url(#linear-gradient)"/>
    </g>
  </g>
</svg>
