<svg xmlns="http://www.w3.org/2000/svg" width="114.427" height="114.164" viewBox="0 0 114.427 114.164">
  <g id="Group_38883" data-name="Group 38883" transform="translate(-1454.839 -2339.131)">
    <path id="Path_7960" data-name="Path 7960" d="M1067.318,8451.2a23.261,23.261,0,0,1-11.316-2.972,23,23,0,0,1-11.987-20.36l0-63a23.286,23.286,0,0,1,35.424-19.874l51.043,31.175a23.287,23.287,0,0,1,.184,39.633l-51.04,31.826a23.19,23.19,0,0,1-12.3,3.573m-.015-96.853a10.549,10.549,0,0,0-10.5,10.519l0,63a10.5,10.5,0,0,0,16.053,8.908l51.039-31.826a10.5,10.5,0,0,0-.083-17.867L1072.77,8355.9a10.471,10.471,0,0,0-5.467-1.559" transform="translate(410.827 -6000.221)" fill="#88878c"/>
    <rect id="Rectangle_3661" data-name="Rectangle 3661" width="12.788" height="114.164" transform="translate(1556.478 2339.131)" fill="#88878c"/>
  </g>
</svg>
