<svg xmlns="http://www.w3.org/2000/svg" width="107.645" height="107.125" viewBox="0 0 107.645 107.125">
  <g id="Group_38884" data-name="Group 38884" transform="translate(-1455.227 -2078.33)">
    <path id="Path_7942" data-name="Path 7942" d="M1099,7414.373a53.453,53.453,0,1,1,12.585-105.4,6.007,6.007,0,1,1-2.818,11.679,41.422,41.422,0,0,0-39.152,11.058,41.448,41.448,0,1,0,70.019,21.025,6.007,6.007,0,0,1,11.778-2.365A53.43,53.43,0,0,1,1099,7414.373" transform="translate(409.69 -5228.918)" fill="#88878c"/>
    <rect id="Rectangle_3658" data-name="Rectangle 3658" width="12.013" height="33.24" transform="translate(1540.245 2078.33)" fill="#88878c"/>
    <rect id="Rectangle_3659" data-name="Rectangle 3659" width="33.24" height="12.013" transform="translate(1529.632 2088.943)" fill="#88878c"/>
    <path id="Path_7948" data-name="Path 7948" d="M1183.8,7454.618a6.007,6.007,0,0,1-6.007-6.007v-18.919a6.007,6.007,0,0,1,12.014,0v18.919a6.007,6.007,0,0,1-6.007,6.007" transform="translate(311.036 -5315.597)" fill="#88878c"/>
    <path id="Path_7949" data-name="Path 7949" d="M1292.788,7454.618a6.007,6.007,0,0,1-6.007-6.007v-18.919a6.007,6.007,0,0,1,12.014,0v18.919a6.007,6.007,0,0,1-6.007,6.007" transform="translate(229.745 -5315.597)" fill="#88878c"/>
    <path id="Path_7950" data-name="Path 7950" d="M1167.827,7579.577a48.257,48.257,0,0,1-29.482-10.318l-.25-.191,7.316-9.529.248.19a36.293,36.293,0,0,0,22.167,7.82h.125a36.362,36.362,0,0,0,22.261-7.988l7.375,9.483a48.32,48.32,0,0,1-29.76,10.532" transform="translate(340.649 -5416.931)" fill="#88878c"/>
  </g>
</svg>
