<svg xmlns="http://www.w3.org/2000/svg" width="117.878" height="146.021" viewBox="0 0 117.878 146.021">
  <g id="Group_38880" data-name="Group 38880" transform="translate(-1453.113 -1518.271)">
    <path id="Path_7904" data-name="Path 7904" d="M1160.019,5209.6a37.212,37.212,0,0,1-37.17-37.17v-32.8a37.17,37.17,0,0,1,74.341,0v32.8a37.212,37.212,0,0,1-37.17,37.17m0-90.9a20.955,20.955,0,0,0-20.931,20.931v32.8a20.931,20.931,0,1,0,41.862,0v-32.8a20.955,20.955,0,0,0-20.931-20.931" transform="translate(352.022 -3584.192)" fill="#88878c"/>
    <path id="Path_7905" data-name="Path 7905" d="M1096.16,5441.936A58.939,58.939,0,0,1,1037.221,5383h16.239a42.7,42.7,0,0,0,85.4,0H1155.1a58.939,58.939,0,0,1-58.939,58.939" transform="translate(415.892 -3793.443)" fill="#88878c"/>
    <rect id="Rectangle_3657" data-name="Rectangle 3657" width="16.239" height="23.918" transform="translate(1503.933 1640.373)" fill="#88878c"/>
  </g>
</svg>
