<svg xmlns="http://www.w3.org/2000/svg" width="114.422" height="113.948" viewBox="0 0 114.422 113.948">
  <path id="Path_7888" data-name="Path 7888" d="M1075,4257.738a13.218,13.218,0,0,1-13-15.331l3.948-24.76L1048,4200.328l-.061-.06a13.188,13.188,0,0,1,7.34-22.411,6.476,6.476,0,0,1,.948-.07l23.048.02,9.863-25.9q.068-.18.148-.356a13.188,13.188,0,0,1,24.039,0q.079.176.148.356l9.863,25.9,22.913-.02h.005a6.34,6.34,0,0,1,.942.07,13.188,13.188,0,0,1,7.34,22.411l-.046.045-17.83,17.321,3.954,24.8a13.188,13.188,0,0,1-19.392,13.649l-19.917-10.992-19.917,10.992a13.185,13.185,0,0,1-6.383,1.658m-18.09-66.569,20.306,19.6a6.389,6.389,0,0,1,1.873,5.6l-4.477,28.074a.355.355,0,0,0,.164.424.342.342,0,0,0,.432.023l23-12.7a6.388,6.388,0,0,1,6.175,0l23.005,12.7a.408.408,0,0,0,.6-.423l-4.481-28.1a6.389,6.389,0,0,1,1.858-5.589l20.182-19.606a.335.335,0,0,0,.083-.4.419.419,0,0,0-.128-.206l-26.574.023h-.006a6.39,6.39,0,0,1-5.972-4.116l-11.333-29.762a.436.436,0,0,0-.644,0l-11.334,29.762a6.391,6.391,0,0,1-5.972,4.116h-.005l-26.708-.023a.419.419,0,0,0-.128.206.334.334,0,0,0,.078.395" transform="translate(-1044.024 -4143.791)" fill="#88878c"/>
</svg>
