<svg xmlns="http://www.w3.org/2000/svg" xmlns:xlink="http://www.w3.org/1999/xlink" width="114.422" height="113.948" viewBox="0 0 114.422 113.948">
  <defs>
    <clipPath id="clip-path">
      <path id="Path_8074" data-name="Path 8074" d="M1083.674,4190.591a6.391,6.391,0,0,0,5.971-4.116l11.334-29.762a.436.436,0,0,1,.644,0l11.333,29.762a6.392,6.392,0,0,0,5.972,4.116h.006l26.574-.023a.417.417,0,0,1,.128.206.335.335,0,0,1-.083.4l-20.182,19.606a6.389,6.389,0,0,0-1.857,5.59l4.48,28.1a.408.408,0,0,1-.6.423l-23-12.7a6.39,6.39,0,0,0-6.176,0l-23,12.7a.341.341,0,0,1-.433-.023.355.355,0,0,1-.163-.424l4.477-28.074a6.392,6.392,0,0,0-1.874-5.6l-20.306-19.6a.335.335,0,0,1-.078-.4.414.414,0,0,1,.127-.206l26.709.023Zm5.608-39.041c-.052.118-.1.236-.148.356l-9.863,25.9-23.047-.02a6.482,6.482,0,0,0-.948.07,13.188,13.188,0,0,0-7.34,22.411l.061.06,17.948,17.32-3.948,24.76a13.169,13.169,0,0,0,19.388,13.672l19.917-10.992,19.917,10.992a13.188,13.188,0,0,0,19.392-13.649l-3.954-24.8,17.831-17.321.045-.045a13.188,13.188,0,0,0-7.339-22.411,6.41,6.41,0,0,0-.943-.07h-.006l-22.913.02-9.863-25.9c-.046-.12-.1-.239-.148-.356a13.188,13.188,0,0,0-24.039,0" transform="translate(-1044.023 -4143.79)" fill="none"/>
    </clipPath>
    <linearGradient id="linear-gradient" x1="-2.275" y1="15.171" x2="-2.273" y2="15.171" gradientUnits="objectBoundingBox">
      <stop offset="0" stop-color="#201cf9"/>
      <stop offset="0.001" stop-color="#201cf9"/>
      <stop offset="1" stop-color="#871cf3"/>
    </linearGradient>
  </defs>
  <g id="Group_38880" data-name="Group 38880" transform="translate(-614.292 -1274.674)">
    <g id="Group_38783" data-name="Group 38783" transform="translate(614.292 1274.674)" clip-path="url(#clip-path)">
      <rect id="Rectangle_4037" data-name="Rectangle 4037" width="116.221" height="114.75" transform="translate(-0.9 0)" fill="url(#linear-gradient)"/>
    </g>
  </g>
</svg>
