<svg xmlns="http://www.w3.org/2000/svg" width="110.755" height="110.618" viewBox="0 0 110.755 110.618">
  <g id="Group_38873" data-name="Group 38873" transform="translate(-1456.682 -482.024)">
    <path id="Path_7838" data-name="Path 7838" d="M1075.586,1072.121a23.833,23.833,0,1,1,.065,0Zm0-35.467a11.563,11.563,0,1,0,0,23.126h.031a11.563,11.563,0,0,0-.031-23.126" transform="translate(405.099 -542.295)" fill="#88878c"/>
    <path id="Path_7839" data-name="Path 7839" d="M1060.369,1243.857l-9.1-8.336c6.037-6.589,12.582-10.9,19.455-12.822a30.121,30.121,0,0,1,21.312,1.885l-5.2,11.193c-8.877-4.121-17.783-1.4-26.471,8.081" transform="translate(405.413 -689.419)" fill="#88878c"/>
    <path id="Path_7840" data-name="Path 7840" d="M1322.091,1072.11a23.887,23.887,0,1,1,16.95-7.036,23.829,23.829,0,0,1-16.95,7.036m0-35.456a11.557,11.557,0,1,0,8.156,3.361,11.53,11.53,0,0,0-8.156-3.361" transform="translate(221.239 -542.295)" fill="#88878c"/>
    <path id="Path_7841" data-name="Path 7841" d="M1354.046,1244.063c-4.611-5.071-9.374-8.269-14.156-9.506a18.352,18.352,0,0,0-13.3,1.709l-5.641-10.976a30.75,30.75,0,0,1,22.033-2.681c7.148,1.848,13.943,6.273,20.2,13.151Z" transform="translate(204.261 -689.486)" fill="#88878c"/>
    <path id="Path_7842" data-name="Path 7842" d="M1168.72,1393.791l-9.1-8.334.141-.154c8.361-9.126,17.894-13.949,27.571-13.949h.054c9.72.019,19.289,4.9,27.671,14.119l-9.13,8.3c-6.072-6.677-12.317-10.069-18.564-10.08h-.032c-6.211,0-12.425,3.345-18.469,9.942Z" transform="translate(324.597 -801.149)" fill="#88878c"/>
    <path id="Path_7843" data-name="Path 7843" d="M1198.531,1227.135a23.888,23.888,0,1,1,16.95-7.036,23.829,23.829,0,0,1-16.95,7.036m0-35.461h-.032a11.6,11.6,0,1,0,.032,0" transform="translate(313.394 -657.929)" fill="#88878c"/>
  </g>
</svg>
