<svg xmlns="http://www.w3.org/2000/svg" xmlns:xlink="http://www.w3.org/1999/xlink" width="101.759" height="101.292" viewBox="0 0 101.759 101.292">
  <defs>
    <clipPath id="clip-path">
      <path id="Path_8066" data-name="Path 8066" d="M1100.355,3217.832a28.105,28.105,0,1,1,19.875,8.233,27.919,27.919,0,0,1-19.875-8.233m16.846-70.306a2.816,2.816,0,0,0-2.76,2.26l-1.791,8.885a4.141,4.141,0,0,1-2.9,3.161,37.523,37.523,0,0,0-7.722,3.21,4.155,4.155,0,0,1-4.312-.17l-7.563-5.025a2.819,2.819,0,0,0-3.551.354l-4.282,4.283a2.816,2.816,0,0,0-.354,3.55l5.063,7.62a4.162,4.162,0,0,1,.177,4.3q-.892,1.635-1.625,3.366a37.3,37.3,0,0,0-1.484,4.187,4.139,4.139,0,0,1-3.162,2.9l-9.5,1.915a2.816,2.816,0,0,0-2.26,2.761v6.057a2.816,2.816,0,0,0,2.26,2.761l12.124,2.444a37.417,37.417,0,0,0,2.02,6.251,37.861,37.861,0,0,0,1.712,3.525,4.157,4.157,0,0,1-.171,4.309l-5.156,7.761a2.816,2.816,0,0,0,.354,3.55l4.282,4.283h0a2.816,2.816,0,0,0,3.549.354l7.819-5.195a4.163,4.163,0,0,1,4.3-.179q1.615.88,3.325,1.6a37.224,37.224,0,0,0,4.1,1.457,4.144,4.144,0,0,1,2.9,3.16l1.858,9.215a2.816,2.816,0,0,0,2.76,2.26h6.056a2.816,2.816,0,0,0,2.761-2.26l1.858-9.215a4.142,4.142,0,0,1,2.9-3.16,37.328,37.328,0,0,0,4.1-1.457q1.708-.723,3.325-1.6a4.162,4.162,0,0,1,4.3.179l7.819,5.195a2.816,2.816,0,0,0,3.55-.354l4.282-4.283a2.816,2.816,0,0,0,.355-3.55l-5.156-7.761a4.153,4.153,0,0,1-.171-4.309,37.756,37.756,0,0,0,3.128-7.477,4.188,4.188,0,0,1,3.187-2.915l9.074-1.829a2.817,2.817,0,0,0,2.26-2.761v-6.057a2.816,2.816,0,0,0-2.26-2.761l-9-1.815a4.136,4.136,0,0,1-3.164-2.911,37.52,37.52,0,0,0-3.135-7.646,4.16,4.16,0,0,1,.178-4.3l5.063-7.62a2.816,2.816,0,0,0-.355-3.55l-4.282-4.283a2.818,2.818,0,0,0-3.55-.354l-7.563,5.025a4.155,4.155,0,0,1-4.312.17,37.493,37.493,0,0,0-7.721-3.21,4.139,4.139,0,0,1-2.9-3.161l-1.791-8.885a2.816,2.816,0,0,0-2.761-2.26Z" transform="translate(-1069.176 -3147.526)" fill="none"/>
    </clipPath>
    <clipPath id="clip-path-2">
      <path id="Path_8067" data-name="Path 8067" d="M1100.222,3217.616a28.048,28.048,0,1,1,19.832,8.214,27.864,27.864,0,0,1-19.832-8.214m-.084-39.749a28.165,28.165,0,1,0,19.916-8.25,27.979,27.979,0,0,0-19.916,8.25m1.741-12.947a37.553,37.553,0,0,1,7.709-3.2,4.185,4.185,0,0,0,2.943-3.206l1.791-8.886a2.765,2.765,0,0,1,2.7-2.211h6.056a2.764,2.764,0,0,1,2.7,2.211l1.791,8.886a4.186,4.186,0,0,0,2.943,3.206,37.5,37.5,0,0,1,7.709,3.2,4.2,4.2,0,0,0,4.374-.172l7.563-5.025a2.765,2.765,0,0,1,3.475.346l4.282,4.282a2.764,2.764,0,0,1,.347,3.475l-5.063,7.62a4.212,4.212,0,0,0-.18,4.36c.593,1.087,1.139,2.218,1.622,3.36a37.3,37.3,0,0,1,1.508,4.274,4.182,4.182,0,0,0,3.209,2.953l9,1.814a2.766,2.766,0,0,1,2.212,2.7v6.057a2.767,2.767,0,0,1-2.212,2.7l-9.075,1.829a4.237,4.237,0,0,0-3.232,2.956,37.557,37.557,0,0,1-3.123,7.465,4.2,4.2,0,0,0,.174,4.37l5.156,7.76a2.764,2.764,0,0,1-.347,3.475l-4.282,4.283a2.765,2.765,0,0,1-3.475.346l-7.819-5.195a4.216,4.216,0,0,0-4.357-.181c-1.074.584-2.191,1.123-3.319,1.6a37.4,37.4,0,0,1-4.09,1.456,4.186,4.186,0,0,0-2.938,3.205l-1.858,9.215a2.764,2.764,0,0,1-2.7,2.211h-6.056a2.765,2.765,0,0,1-2.7-2.211l-1.858-9.215a4.187,4.187,0,0,0-2.938-3.205,37.417,37.417,0,0,1-4.09-1.456c-1.129-.477-2.246-1.015-3.32-1.6a4.246,4.246,0,0,0-2.033-.521,4.193,4.193,0,0,0-2.324.7l-7.819,5.195a2.764,2.764,0,0,1-3.474-.346l-4.283-4.283a2.766,2.766,0,0,1-.346-3.475l5.156-7.76a4.2,4.2,0,0,0,.173-4.37,38,38,0,0,1-1.709-3.519,37.485,37.485,0,0,1-2.016-6.241l-.009-.038-12.161-2.452a2.766,2.766,0,0,1-2.212-2.7v-6.057a2.766,2.766,0,0,1,2.211-2.7l9.5-1.915a4.184,4.184,0,0,0,3.207-2.946,37.557,37.557,0,0,1,1.482-4.18c.483-1.142,1.029-2.273,1.622-3.36a4.214,4.214,0,0,0-.18-4.36l-5.063-7.62a2.766,2.766,0,0,1,.346-3.475l4.283-4.282a2.764,2.764,0,0,1,3.475-.346l7.563,5.025a4.2,4.2,0,0,0,4.374.172m15.147-17.627a2.886,2.886,0,0,0-2.82,2.308l-1.791,8.885a4.065,4.065,0,0,1-2.859,3.116,37.56,37.56,0,0,0-4.165,1.478,38.1,38.1,0,0,0-3.569,1.736,4.082,4.082,0,0,1-4.251-.167l-7.563-5.025a2.886,2.886,0,0,0-3.626.362l-4.282,4.283a2.884,2.884,0,0,0-.362,3.625l5.063,7.62a4.092,4.092,0,0,1,.175,4.237c-.595,1.091-1.142,2.225-1.627,3.371a37.669,37.669,0,0,0-1.487,4.194,4.064,4.064,0,0,1-3.116,2.861l-9.5,1.916a2.884,2.884,0,0,0-2.307,2.819v6.057a2.884,2.884,0,0,0,2.307,2.819l12.087,2.437a37.679,37.679,0,0,0,3.729,9.754,4.086,4.086,0,0,1-.169,4.247l-5.156,7.76a2.883,2.883,0,0,0,.362,3.625l4.282,4.283a2.885,2.885,0,0,0,3.625.362l7.818-5.2a4.1,4.1,0,0,1,4.235-.177c1.078.587,2.2,1.126,3.33,1.605a37.476,37.476,0,0,0,4.1,1.461,4.068,4.068,0,0,1,2.855,3.114l1.858,9.215a2.886,2.886,0,0,0,2.82,2.308h6.056a2.884,2.884,0,0,0,2.819-2.308l1.858-9.215a4.07,4.07,0,0,1,2.855-3.114,37.51,37.51,0,0,0,4.1-1.461c1.132-.479,2.252-1.019,3.33-1.6a4.094,4.094,0,0,1,4.234.176l7.819,5.2a2.885,2.885,0,0,0,3.625-.362l4.283-4.283a2.885,2.885,0,0,0,.362-3.625l-5.156-7.76a4.085,4.085,0,0,1-.169-4.247,37.774,37.774,0,0,0,3.133-7.488,4.119,4.119,0,0,1,3.141-2.873l9.075-1.83a2.884,2.884,0,0,0,2.307-2.819v-6.057a2.884,2.884,0,0,0-2.307-2.819l-9-1.815a4.062,4.062,0,0,1-3.118-2.868,37.486,37.486,0,0,0-1.514-4.287c-.485-1.146-1.031-2.28-1.627-3.371a4.094,4.094,0,0,1,.175-4.237l5.063-7.62a2.885,2.885,0,0,0-.361-3.625l-4.283-4.283a2.884,2.884,0,0,0-3.625-.362l-7.563,5.025a4.08,4.08,0,0,1-4.25.167,37.619,37.619,0,0,0-7.734-3.214,4.064,4.064,0,0,1-2.859-3.116l-1.792-8.885a2.884,2.884,0,0,0-2.819-2.308Z" transform="translate(-1068.941 -3147.292)" fill="none"/>
    </clipPath>
    <linearGradient id="linear-gradient" x1="-2.669" y1="19.687" x2="-2.667" y2="19.687" gradientUnits="objectBoundingBox">
      <stop offset="0" stop-color="#201cf9"/>
      <stop offset="0.001" stop-color="#201cf9"/>
      <stop offset="1" stop-color="#871cf3"/>
    </linearGradient>
    <clipPath id="clip-path-3">
      <path id="Path_8069" data-name="Path 8069" d="M1232.732,3323a10.16,10.16,0,1,1,7.185,2.977,10.1,10.1,0,0,1-7.185-2.977m-.084-14.454a10.278,10.278,0,1,0,7.269-3.012,10.211,10.211,0,0,0-7.269,3.012" transform="translate(-1229.636 -3305.539)" fill="none"/>
    </clipPath>
    <linearGradient id="linear-gradient-2" x1="-15.197" y1="95.03" x2="-15.184" y2="95.03" xlink:href="#linear-gradient"/>
  </defs>
  <g id="Group_38878" data-name="Group 38878" transform="translate(-620.624 -1021.466)">
    <g id="Group_38773" data-name="Group 38773" transform="translate(620.685 1021.526)" clip-path="url(#clip-path)">
      <rect id="Rectangle_3860" data-name="Rectangle 3860" width="0.211" height="56.214" transform="translate(22.946 22.324)" fill="#341cf8"/>
      <rect id="Rectangle_3861" data-name="Rectangle 3861" width="0.923" height="56.214" transform="translate(23.157 22.324)" fill="#351cf8"/>
      <rect id="Rectangle_3862" data-name="Rectangle 3862" width="0.923" height="56.214" transform="translate(24.08 22.324)" fill="#361cf8"/>
      <rect id="Rectangle_3863" data-name="Rectangle 3863" width="0.923" height="56.214" transform="translate(25.003 22.324)" fill="#371cf8"/>
      <rect id="Rectangle_3864" data-name="Rectangle 3864" width="0.923" height="56.214" transform="translate(25.927 22.324)" fill="#381cf8"/>
      <rect id="Rectangle_3865" data-name="Rectangle 3865" width="0.923" height="56.214" transform="translate(26.85 22.324)" fill="#391cf8"/>
      <rect id="Rectangle_3866" data-name="Rectangle 3866" width="0.923" height="56.214" transform="translate(27.773 22.324)" fill="#3a1cf8"/>
      <rect id="Rectangle_3867" data-name="Rectangle 3867" width="0.923" height="56.214" transform="translate(28.697 22.324)" fill="#3b1cf8"/>
      <rect id="Rectangle_3868" data-name="Rectangle 3868" width="0.923" height="56.214" transform="translate(29.62 22.324)" fill="#3c1cf8"/>
      <rect id="Rectangle_3869" data-name="Rectangle 3869" width="0.923" height="56.214" transform="translate(30.543 22.324)" fill="#3d1cf7"/>
      <rect id="Rectangle_3870" data-name="Rectangle 3870" width="0.923" height="56.214" transform="translate(31.466 22.324)" fill="#3e1cf7"/>
      <rect id="Rectangle_3871" data-name="Rectangle 3871" width="0.923" height="56.214" transform="translate(32.39 22.324)" fill="#3f1cf7"/>
      <rect id="Rectangle_3872" data-name="Rectangle 3872" width="0.923" height="56.214" transform="translate(33.313 22.324)" fill="#401cf7"/>
      <rect id="Rectangle_3873" data-name="Rectangle 3873" width="0.923" height="56.214" transform="translate(34.236 22.324)" fill="#411cf7"/>
      <rect id="Rectangle_3874" data-name="Rectangle 3874" width="0.923" height="56.214" transform="translate(35.16 22.324)" fill="#421cf7"/>
      <rect id="Rectangle_3875" data-name="Rectangle 3875" width="0.923" height="56.214" transform="translate(36.083 22.324)" fill="#431cf7"/>
      <rect id="Rectangle_3876" data-name="Rectangle 3876" width="0.923" height="56.214" transform="translate(37.007 22.324)" fill="#441cf7"/>
      <rect id="Rectangle_3877" data-name="Rectangle 3877" width="0.923" height="56.214" transform="translate(37.93 22.324)" fill="#451cf7"/>
      <rect id="Rectangle_3878" data-name="Rectangle 3878" width="0.923" height="56.214" transform="translate(38.853 22.324)" fill="#461cf7"/>
      <rect id="Rectangle_3879" data-name="Rectangle 3879" width="0.923" height="56.214" transform="translate(39.776 22.324)" fill="#471cf7"/>
      <rect id="Rectangle_3880" data-name="Rectangle 3880" width="0.923" height="56.214" transform="translate(40.7 22.324)" fill="#481cf7"/>
      <rect id="Rectangle_3881" data-name="Rectangle 3881" width="0.923" height="56.214" transform="translate(41.623 22.324)" fill="#491cf7"/>
      <rect id="Rectangle_3882" data-name="Rectangle 3882" width="0.923" height="56.214" transform="translate(42.546 22.324)" fill="#4a1cf7"/>
      <rect id="Rectangle_3883" data-name="Rectangle 3883" width="0.923" height="56.214" transform="translate(43.47 22.324)" fill="#4b1cf7"/>
      <rect id="Rectangle_3884" data-name="Rectangle 3884" width="0.923" height="56.214" transform="translate(44.393 22.324)" fill="#4c1cf7"/>
      <rect id="Rectangle_3885" data-name="Rectangle 3885" width="0.923" height="56.214" transform="translate(45.316 22.324)" fill="#4d1cf7"/>
      <rect id="Rectangle_3886" data-name="Rectangle 3886" width="0.923" height="56.214" transform="translate(46.24 22.324)" fill="#4e1cf7"/>
      <rect id="Rectangle_3887" data-name="Rectangle 3887" width="0.923" height="56.214" transform="translate(47.163 22.324)" fill="#4f1cf7"/>
      <rect id="Rectangle_3888" data-name="Rectangle 3888" width="0.923" height="56.214" transform="translate(48.086 22.324)" fill="#501cf7"/>
      <rect id="Rectangle_3889" data-name="Rectangle 3889" width="0.923" height="56.214" transform="translate(49.01 22.324)" fill="#511cf7"/>
      <rect id="Rectangle_3890" data-name="Rectangle 3890" width="0.923" height="56.214" transform="translate(49.933 22.324)" fill="#521cf7"/>
      <rect id="Rectangle_3891" data-name="Rectangle 3891" width="0.923" height="56.214" transform="translate(50.856 22.324)" fill="#541cf6"/>
      <rect id="Rectangle_3892" data-name="Rectangle 3892" width="0.923" height="56.214" transform="translate(51.779 22.324)" fill="#551cf6"/>
      <rect id="Rectangle_3893" data-name="Rectangle 3893" width="0.923" height="56.214" transform="translate(52.703 22.324)" fill="#561cf6"/>
      <rect id="Rectangle_3894" data-name="Rectangle 3894" width="0.923" height="56.214" transform="translate(53.626 22.324)" fill="#571cf6"/>
      <rect id="Rectangle_3895" data-name="Rectangle 3895" width="0.923" height="56.214" transform="translate(54.55 22.324)" fill="#581cf6"/>
      <rect id="Rectangle_3896" data-name="Rectangle 3896" width="0.923" height="56.214" transform="translate(55.473 22.324)" fill="#591cf6"/>
      <rect id="Rectangle_3897" data-name="Rectangle 3897" width="0.923" height="56.214" transform="translate(56.396 22.324)" fill="#5a1cf6"/>
      <rect id="Rectangle_3898" data-name="Rectangle 3898" width="0.923" height="56.214" transform="translate(57.32 22.324)" fill="#5b1cf6"/>
      <rect id="Rectangle_3899" data-name="Rectangle 3899" width="0.923" height="56.214" transform="translate(58.243 22.324)" fill="#5c1cf6"/>
      <rect id="Rectangle_3900" data-name="Rectangle 3900" width="0.923" height="56.214" transform="translate(59.166 22.324)" fill="#5d1cf6"/>
      <rect id="Rectangle_3901" data-name="Rectangle 3901" width="0.923" height="56.214" transform="translate(60.09 22.324)" fill="#5e1cf6"/>
      <rect id="Rectangle_3902" data-name="Rectangle 3902" width="0.923" height="56.214" transform="translate(61.013 22.324)" fill="#5f1cf6"/>
      <rect id="Rectangle_3903" data-name="Rectangle 3903" width="0.923" height="56.214" transform="translate(61.936 22.324)" fill="#601cf6"/>
      <rect id="Rectangle_3904" data-name="Rectangle 3904" width="0.923" height="56.214" transform="translate(62.859 22.324)" fill="#611cf6"/>
      <rect id="Rectangle_3905" data-name="Rectangle 3905" width="0.923" height="56.214" transform="translate(63.783 22.324)" fill="#621cf6"/>
      <rect id="Rectangle_3906" data-name="Rectangle 3906" width="0.923" height="56.214" transform="translate(64.706 22.324)" fill="#631cf6"/>
      <rect id="Rectangle_3907" data-name="Rectangle 3907" width="0.923" height="56.214" transform="translate(65.629 22.324)" fill="#641cf6"/>
      <rect id="Rectangle_3908" data-name="Rectangle 3908" width="0.923" height="56.214" transform="translate(66.553 22.324)" fill="#651cf6"/>
      <rect id="Rectangle_3909" data-name="Rectangle 3909" width="0.923" height="56.214" transform="translate(67.476 22.324)" fill="#661cf6"/>
      <rect id="Rectangle_3910" data-name="Rectangle 3910" width="0.923" height="56.214" transform="translate(68.4 22.324)" fill="#671cf6"/>
      <rect id="Rectangle_3911" data-name="Rectangle 3911" width="0.923" height="56.214" transform="translate(69.323 22.324)" fill="#681cf6"/>
      <rect id="Rectangle_3912" data-name="Rectangle 3912" width="0.923" height="56.214" transform="translate(70.246 22.324)" fill="#691cf6"/>
      <rect id="Rectangle_3913" data-name="Rectangle 3913" width="0.923" height="56.214" transform="translate(71.169 22.324)" fill="#6a1cf5"/>
      <rect id="Rectangle_3914" data-name="Rectangle 3914" width="0.923" height="56.214" transform="translate(72.093 22.324)" fill="#6b1cf5"/>
      <rect id="Rectangle_3915" data-name="Rectangle 3915" width="0.923" height="56.214" transform="translate(73.016 22.324)" fill="#6c1cf5"/>
      <rect id="Rectangle_3916" data-name="Rectangle 3916" width="0.923" height="56.214" transform="translate(73.939 22.324)" fill="#6d1cf5"/>
      <rect id="Rectangle_3917" data-name="Rectangle 3917" width="0.923" height="56.214" transform="translate(74.863 22.324)" fill="#6e1cf5"/>
      <rect id="Rectangle_3918" data-name="Rectangle 3918" width="0.923" height="56.214" transform="translate(75.786 22.324)" fill="#6f1cf5"/>
      <rect id="Rectangle_3919" data-name="Rectangle 3919" width="0.923" height="56.214" transform="translate(76.709 22.324)" fill="#701cf5"/>
      <rect id="Rectangle_3920" data-name="Rectangle 3920" width="0.923" height="56.214" transform="translate(77.633 22.324)" fill="#711cf5"/>
      <rect id="Rectangle_3921" data-name="Rectangle 3921" width="0.604" height="56.214" transform="translate(78.556 22.325)" fill="#721cf5"/>
      <rect id="Rectangle_3922" data-name="Rectangle 3922" width="0.073" height="101.173" transform="translate(0 0)" fill="#1c1cf9"/>
      <rect id="Rectangle_3923" data-name="Rectangle 3923" width="0.923" height="101.173" transform="translate(0.073 0)" fill="#1c1cf9"/>
      <rect id="Rectangle_3924" data-name="Rectangle 3924" width="0.923" height="101.173" transform="translate(0.997 0)" fill="#1d1cf9"/>
      <rect id="Rectangle_3925" data-name="Rectangle 3925" width="0.923" height="101.173" transform="translate(1.92 0)" fill="#1e1cf9"/>
      <rect id="Rectangle_3926" data-name="Rectangle 3926" width="0.923" height="101.173" transform="translate(2.844 0)" fill="#1f1cf9"/>
      <rect id="Rectangle_3927" data-name="Rectangle 3927" width="0.923" height="101.173" transform="translate(3.767 0)" fill="#201cf9"/>
      <rect id="Rectangle_3928" data-name="Rectangle 3928" width="0.923" height="101.173" transform="translate(4.69 0)" fill="#211cf9"/>
      <rect id="Rectangle_3929" data-name="Rectangle 3929" width="0.923" height="101.173" transform="translate(5.614 0)" fill="#221cf9"/>
      <rect id="Rectangle_3930" data-name="Rectangle 3930" width="0.923" height="101.173" transform="translate(6.537 0)" fill="#231cf9"/>
      <rect id="Rectangle_3931" data-name="Rectangle 3931" width="0.923" height="101.173" transform="translate(7.46 0)" fill="#241cf9"/>
      <rect id="Rectangle_3932" data-name="Rectangle 3932" width="0.923" height="101.173" transform="translate(8.383 0)" fill="#251cf9"/>
      <rect id="Rectangle_3933" data-name="Rectangle 3933" width="0.923" height="101.173" transform="translate(9.307 0)" fill="#261cf9"/>
      <rect id="Rectangle_3934" data-name="Rectangle 3934" width="0.923" height="101.173" transform="translate(10.23 0)" fill="#271cf8"/>
      <rect id="Rectangle_3935" data-name="Rectangle 3935" width="0.923" height="101.173" transform="translate(11.153 0)" fill="#281cf8"/>
      <rect id="Rectangle_3936" data-name="Rectangle 3936" width="0.923" height="101.173" transform="translate(12.077 0)" fill="#291cf8"/>
      <rect id="Rectangle_3937" data-name="Rectangle 3937" width="0.923" height="101.173" transform="translate(13 0)" fill="#2a1cf8"/>
      <rect id="Rectangle_3938" data-name="Rectangle 3938" width="0.923" height="101.173" transform="translate(13.923 0)" fill="#2b1cf8"/>
      <rect id="Rectangle_3939" data-name="Rectangle 3939" width="0.923" height="101.173" transform="translate(14.847 0)" fill="#2c1cf8"/>
      <rect id="Rectangle_3940" data-name="Rectangle 3940" width="0.923" height="101.173" transform="translate(15.77 0)" fill="#2d1cf8"/>
      <rect id="Rectangle_3941" data-name="Rectangle 3941" width="0.923" height="101.173" transform="translate(16.693 0)" fill="#2e1cf8"/>
      <rect id="Rectangle_3942" data-name="Rectangle 3942" width="0.923" height="101.173" transform="translate(17.617 0)" fill="#2f1cf8"/>
      <rect id="Rectangle_3943" data-name="Rectangle 3943" width="0.923" height="101.173" transform="translate(18.54 0)" fill="#301cf8"/>
      <rect id="Rectangle_3944" data-name="Rectangle 3944" width="0.923" height="101.173" transform="translate(19.463 0)" fill="#311cf8"/>
      <rect id="Rectangle_3945" data-name="Rectangle 3945" width="0.923" height="101.173" transform="translate(20.387 0)" fill="#321cf8"/>
      <rect id="Rectangle_3946" data-name="Rectangle 3946" width="0.923" height="101.173" transform="translate(21.31 0)" fill="#331cf8"/>
      <rect id="Rectangle_3947" data-name="Rectangle 3947" width="0.923" height="101.173" transform="translate(22.233 0)" fill="#341cf8"/>
      <rect id="Rectangle_3948" data-name="Rectangle 3948" width="0.923" height="101.173" transform="translate(23.157 0)" fill="#351cf8"/>
      <rect id="Rectangle_3949" data-name="Rectangle 3949" width="0.923" height="101.173" transform="translate(24.08 0)" fill="#361cf8"/>
      <rect id="Rectangle_3950" data-name="Rectangle 3950" width="0.923" height="101.173" transform="translate(25.003 0)" fill="#371cf8"/>
      <rect id="Rectangle_3951" data-name="Rectangle 3951" width="0.923" height="101.173" transform="translate(25.927 0)" fill="#381cf8"/>
      <rect id="Rectangle_3952" data-name="Rectangle 3952" width="0.923" height="101.173" transform="translate(26.85 0)" fill="#391cf8"/>
      <rect id="Rectangle_3953" data-name="Rectangle 3953" width="0.923" height="101.173" transform="translate(27.773 0)" fill="#3a1cf8"/>
      <rect id="Rectangle_3954" data-name="Rectangle 3954" width="0.923" height="101.173" transform="translate(28.697 0)" fill="#3b1cf8"/>
      <rect id="Rectangle_3955" data-name="Rectangle 3955" width="0.923" height="101.173" transform="translate(29.62 0)" fill="#3c1cf8"/>
      <rect id="Rectangle_3956" data-name="Rectangle 3956" width="0.923" height="101.173" transform="translate(30.543 0)" fill="#3d1cf7"/>
      <rect id="Rectangle_3957" data-name="Rectangle 3957" width="0.923" height="101.173" transform="translate(31.466 0)" fill="#3e1cf7"/>
      <rect id="Rectangle_3958" data-name="Rectangle 3958" width="0.923" height="101.173" transform="translate(32.39 0)" fill="#3f1cf7"/>
      <rect id="Rectangle_3959" data-name="Rectangle 3959" width="0.923" height="101.173" transform="translate(33.313 0)" fill="#401cf7"/>
      <rect id="Rectangle_3960" data-name="Rectangle 3960" width="0.923" height="101.173" transform="translate(34.236 0)" fill="#411cf7"/>
      <rect id="Rectangle_3961" data-name="Rectangle 3961" width="0.923" height="101.173" transform="translate(35.16 0)" fill="#421cf7"/>
      <rect id="Rectangle_3962" data-name="Rectangle 3962" width="0.923" height="101.173" transform="translate(36.083 0)" fill="#431cf7"/>
      <rect id="Rectangle_3963" data-name="Rectangle 3963" width="0.923" height="101.173" transform="translate(37.007 0)" fill="#441cf7"/>
      <rect id="Rectangle_3964" data-name="Rectangle 3964" width="0.923" height="101.173" transform="translate(37.93 0)" fill="#451cf7"/>
      <rect id="Rectangle_3965" data-name="Rectangle 3965" width="0.923" height="101.173" transform="translate(38.853 0)" fill="#461cf7"/>
      <rect id="Rectangle_3966" data-name="Rectangle 3966" width="0.923" height="101.173" transform="translate(39.776 0)" fill="#471cf7"/>
      <rect id="Rectangle_3967" data-name="Rectangle 3967" width="0.923" height="101.173" transform="translate(40.7 0)" fill="#481cf7"/>
      <rect id="Rectangle_3968" data-name="Rectangle 3968" width="0.923" height="101.173" transform="translate(41.623 0)" fill="#491cf7"/>
      <rect id="Rectangle_3969" data-name="Rectangle 3969" width="0.923" height="101.173" transform="translate(42.546 0)" fill="#4a1cf7"/>
      <rect id="Rectangle_3970" data-name="Rectangle 3970" width="0.923" height="101.173" transform="translate(43.47 0)" fill="#4b1cf7"/>
      <rect id="Rectangle_3971" data-name="Rectangle 3971" width="0.923" height="101.173" transform="translate(44.393 0)" fill="#4c1cf7"/>
      <rect id="Rectangle_3972" data-name="Rectangle 3972" width="0.923" height="101.173" transform="translate(45.316 0)" fill="#4d1cf7"/>
      <rect id="Rectangle_3973" data-name="Rectangle 3973" width="0.923" height="101.173" transform="translate(46.24 0)" fill="#4e1cf7"/>
      <rect id="Rectangle_3974" data-name="Rectangle 3974" width="0.923" height="101.173" transform="translate(47.163 0)" fill="#4f1cf7"/>
      <rect id="Rectangle_3975" data-name="Rectangle 3975" width="0.923" height="101.173" transform="translate(48.086 0)" fill="#501cf7"/>
      <rect id="Rectangle_3976" data-name="Rectangle 3976" width="0.923" height="101.173" transform="translate(49.01 0)" fill="#511cf7"/>
      <rect id="Rectangle_3977" data-name="Rectangle 3977" width="0.923" height="101.173" transform="translate(49.933 0)" fill="#521cf7"/>
      <rect id="Rectangle_3978" data-name="Rectangle 3978" width="0.923" height="101.173" transform="translate(50.856 0)" fill="#541cf6"/>
      <rect id="Rectangle_3979" data-name="Rectangle 3979" width="0.923" height="101.173" transform="translate(51.779 0)" fill="#551cf6"/>
      <rect id="Rectangle_3980" data-name="Rectangle 3980" width="0.923" height="101.173" transform="translate(52.703 0)" fill="#561cf6"/>
      <rect id="Rectangle_3981" data-name="Rectangle 3981" width="0.923" height="101.173" transform="translate(53.626 0)" fill="#571cf6"/>
      <rect id="Rectangle_3982" data-name="Rectangle 3982" width="0.923" height="101.173" transform="translate(54.55 0)" fill="#581cf6"/>
      <rect id="Rectangle_3983" data-name="Rectangle 3983" width="0.923" height="101.173" transform="translate(55.473 0)" fill="#591cf6"/>
      <rect id="Rectangle_3984" data-name="Rectangle 3984" width="0.923" height="101.173" transform="translate(56.396 0)" fill="#5a1cf6"/>
      <rect id="Rectangle_3985" data-name="Rectangle 3985" width="0.923" height="101.173" transform="translate(57.32 0)" fill="#5b1cf6"/>
      <rect id="Rectangle_3986" data-name="Rectangle 3986" width="0.923" height="101.173" transform="translate(58.243 0)" fill="#5c1cf6"/>
      <rect id="Rectangle_3987" data-name="Rectangle 3987" width="0.923" height="101.173" transform="translate(59.166 0)" fill="#5d1cf6"/>
      <rect id="Rectangle_3988" data-name="Rectangle 3988" width="0.923" height="101.173" transform="translate(60.09 0)" fill="#5e1cf6"/>
      <rect id="Rectangle_3989" data-name="Rectangle 3989" width="0.923" height="101.173" transform="translate(61.013 0)" fill="#5f1cf6"/>
      <rect id="Rectangle_3990" data-name="Rectangle 3990" width="0.923" height="101.173" transform="translate(61.936 0)" fill="#601cf6"/>
      <rect id="Rectangle_3991" data-name="Rectangle 3991" width="0.923" height="101.173" transform="translate(62.859 0)" fill="#611cf6"/>
      <rect id="Rectangle_3992" data-name="Rectangle 3992" width="0.923" height="101.173" transform="translate(63.783 0)" fill="#621cf6"/>
      <rect id="Rectangle_3993" data-name="Rectangle 3993" width="0.923" height="101.173" transform="translate(64.706 0)" fill="#631cf6"/>
      <rect id="Rectangle_3994" data-name="Rectangle 3994" width="0.923" height="101.173" transform="translate(65.629 0)" fill="#641cf6"/>
      <rect id="Rectangle_3995" data-name="Rectangle 3995" width="0.923" height="101.173" transform="translate(66.553 0)" fill="#651cf6"/>
      <rect id="Rectangle_3996" data-name="Rectangle 3996" width="0.923" height="101.173" transform="translate(67.476 0)" fill="#661cf6"/>
      <rect id="Rectangle_3997" data-name="Rectangle 3997" width="0.923" height="101.173" transform="translate(68.4 0)" fill="#671cf6"/>
      <rect id="Rectangle_3998" data-name="Rectangle 3998" width="0.923" height="101.173" transform="translate(69.323 0)" fill="#681cf6"/>
      <rect id="Rectangle_3999" data-name="Rectangle 3999" width="0.923" height="101.173" transform="translate(70.246 0)" fill="#691cf6"/>
      <rect id="Rectangle_4000" data-name="Rectangle 4000" width="0.923" height="101.173" transform="translate(71.169 0)" fill="#6a1cf5"/>
      <rect id="Rectangle_4001" data-name="Rectangle 4001" width="0.923" height="101.173" transform="translate(72.093 0)" fill="#6b1cf5"/>
      <rect id="Rectangle_4002" data-name="Rectangle 4002" width="0.923" height="101.173" transform="translate(73.016 0)" fill="#6c1cf5"/>
      <rect id="Rectangle_4003" data-name="Rectangle 4003" width="0.923" height="101.173" transform="translate(73.939 0)" fill="#6d1cf5"/>
      <rect id="Rectangle_4004" data-name="Rectangle 4004" width="0.923" height="101.173" transform="translate(74.863 0)" fill="#6e1cf5"/>
      <rect id="Rectangle_4005" data-name="Rectangle 4005" width="0.923" height="101.173" transform="translate(75.786 0)" fill="#6f1cf5"/>
      <rect id="Rectangle_4006" data-name="Rectangle 4006" width="0.923" height="101.173" transform="translate(76.709 0)" fill="#701cf5"/>
      <rect id="Rectangle_4007" data-name="Rectangle 4007" width="0.923" height="101.173" transform="translate(77.633 0)" fill="#711cf5"/>
      <rect id="Rectangle_4008" data-name="Rectangle 4008" width="0.923" height="101.173" transform="translate(78.556 0)" fill="#721cf5"/>
      <rect id="Rectangle_4009" data-name="Rectangle 4009" width="0.923" height="101.173" transform="translate(79.479 0)" fill="#731cf5"/>
      <rect id="Rectangle_4010" data-name="Rectangle 4010" width="0.923" height="101.173" transform="translate(80.403 0)" fill="#741cf5"/>
      <rect id="Rectangle_4011" data-name="Rectangle 4011" width="0.923" height="101.173" transform="translate(81.326 0)" fill="#751cf5"/>
      <rect id="Rectangle_4012" data-name="Rectangle 4012" width="0.923" height="101.173" transform="translate(82.249 0)" fill="#761cf5"/>
      <rect id="Rectangle_4013" data-name="Rectangle 4013" width="0.923" height="101.173" transform="translate(83.173 0)" fill="#771cf5"/>
      <rect id="Rectangle_4014" data-name="Rectangle 4014" width="0.923" height="101.173" transform="translate(84.096 0)" fill="#781cf5"/>
      <rect id="Rectangle_4015" data-name="Rectangle 4015" width="0.923" height="101.173" transform="translate(85.019 0)" fill="#791cf5"/>
      <rect id="Rectangle_4016" data-name="Rectangle 4016" width="0.923" height="101.173" transform="translate(85.942 0)" fill="#7a1cf5"/>
      <rect id="Rectangle_4017" data-name="Rectangle 4017" width="0.923" height="101.173" transform="translate(86.866 0)" fill="#7b1cf5"/>
      <rect id="Rectangle_4018" data-name="Rectangle 4018" width="0.923" height="101.173" transform="translate(87.789 0)" fill="#7c1cf5"/>
      <rect id="Rectangle_4019" data-name="Rectangle 4019" width="0.923" height="101.173" transform="translate(88.713 0)" fill="#7d1cf5"/>
      <rect id="Rectangle_4020" data-name="Rectangle 4020" width="0.923" height="101.173" transform="translate(89.636 0)" fill="#7e1cf5"/>
      <rect id="Rectangle_4021" data-name="Rectangle 4021" width="0.923" height="101.173" transform="translate(90.559 0)" fill="#7f1cf5"/>
      <rect id="Rectangle_4022" data-name="Rectangle 4022" width="0.923" height="101.173" transform="translate(91.483 0)" fill="#801cf4"/>
      <rect id="Rectangle_4023" data-name="Rectangle 4023" width="0.923" height="101.173" transform="translate(92.406 0)" fill="#811cf4"/>
      <rect id="Rectangle_4024" data-name="Rectangle 4024" width="0.923" height="101.173" transform="translate(93.329 0)" fill="#821cf4"/>
      <rect id="Rectangle_4025" data-name="Rectangle 4025" width="0.923" height="101.173" transform="translate(94.252 0)" fill="#831cf4"/>
      <rect id="Rectangle_4026" data-name="Rectangle 4026" width="0.923" height="101.173" transform="translate(95.176 0)" fill="#841cf4"/>
      <rect id="Rectangle_4027" data-name="Rectangle 4027" width="0.923" height="101.173" transform="translate(96.099 0)" fill="#851cf4"/>
      <rect id="Rectangle_4028" data-name="Rectangle 4028" width="0.923" height="101.173" transform="translate(97.022 0)" fill="#861cf4"/>
      <rect id="Rectangle_4029" data-name="Rectangle 4029" width="0.923" height="101.173" transform="translate(97.946 0)" fill="#871cf4"/>
      <rect id="Rectangle_4030" data-name="Rectangle 4030" width="0.923" height="101.173" transform="translate(98.869 0)" fill="#881cf4"/>
      <rect id="Rectangle_4031" data-name="Rectangle 4031" width="0.923" height="101.173" transform="translate(99.792 0)" fill="#891cf4"/>
      <rect id="Rectangle_4032" data-name="Rectangle 4032" width="0.923" height="101.173" transform="translate(100.716 0)" fill="#8a1cf4"/>
      <path id="Path_8065" data-name="Path 8065" d="M1469.176,3248.7v0Z" transform="translate(-1367.537 -3147.526)" fill="#8a1cf4"/>
    </g>
    <g id="Group_38775" data-name="Group 38775" transform="translate(620.624 1021.466)" clip-path="url(#clip-path-2)">
      <rect id="Rectangle_4033" data-name="Rectangle 4033" width="101.759" height="101.292" transform="translate(0 0)" fill="url(#linear-gradient)"/>
    </g>
    <path id="Path_8068" data-name="Path 8068" d="M1240.091,3326.216h0a10.22,10.22,0,1,1,7.227-2.993,10.153,10.153,0,0,1-7.227,2.993" transform="translate(-568.355 -2244.038)" fill="#ff3c00"/>
    <g id="Group_38779" data-name="Group 38779" transform="translate(661.456 1061.677)" clip-path="url(#clip-path-3)">
      <rect id="Rectangle_4035" data-name="Rectangle 4035" width="20.56" height="20.561" fill="url(#linear-gradient-2)"/>
    </g>
  </g>
</svg>
