<svg xmlns="http://www.w3.org/2000/svg" width="101.758" height="101.292" viewBox="0 0 101.758 101.292">
  <g id="Group_38877" data-name="Group 38877" transform="translate(-1461.173 -1021.466)">
    <path id="Path_7880" data-name="Path 7880" d="M1159.553,3190.508a4.137,4.137,0,0,1-3.164-2.911,37.358,37.358,0,0,0-1.511-4.281q-.732-1.729-1.624-3.365a4.16,4.16,0,0,1,.177-4.3l5.063-7.621a2.816,2.816,0,0,0-.354-3.55l-4.282-4.282a2.816,2.816,0,0,0-3.55-.354l-7.563,5.025a4.154,4.154,0,0,1-4.312.169,37.741,37.741,0,0,0-3.563-1.733,37.3,37.3,0,0,0-4.158-1.476,4.14,4.14,0,0,1-2.9-3.161l-1.791-8.886a2.817,2.817,0,0,0-2.761-2.26H1117.2a2.816,2.816,0,0,0-2.76,2.26l-1.792,8.886a4.14,4.14,0,0,1-2.9,3.161,37.519,37.519,0,0,0-7.722,3.209,4.155,4.155,0,0,1-4.312-.169l-7.563-5.025a2.816,2.816,0,0,0-3.55.354l-4.282,4.282a2.816,2.816,0,0,0-.354,3.55l5.063,7.621a4.16,4.16,0,0,1,.178,4.3q-.892,1.635-1.624,3.365a37.367,37.367,0,0,0-1.484,4.187,4.139,4.139,0,0,1-3.161,2.9l-9.5,1.915a2.816,2.816,0,0,0-2.26,2.76v6.056a2.816,2.816,0,0,0,2.26,2.761l12.124,2.445a37.632,37.632,0,0,0,3.731,9.776,4.155,4.155,0,0,1-.172,4.309l-5.156,7.761a2.816,2.816,0,0,0,.354,3.55l4.282,4.282h0a2.816,2.816,0,0,0,3.55.354l7.819-5.195a4.162,4.162,0,0,1,4.3-.179q1.616.879,3.324,1.6a37.221,37.221,0,0,0,4.1,1.458,4.141,4.141,0,0,1,2.9,3.16l1.858,9.214a2.816,2.816,0,0,0,2.76,2.26h6.056a2.817,2.817,0,0,0,2.761-2.26l1.858-9.214a4.141,4.141,0,0,1,2.9-3.16,37.226,37.226,0,0,0,4.1-1.458q1.708-.722,3.325-1.6a4.162,4.162,0,0,1,4.3.179l7.819,5.195a2.816,2.816,0,0,0,3.55-.354h0l4.282-4.282a2.816,2.816,0,0,0,.354-3.55l-5.156-7.76a4.155,4.155,0,0,1-.171-4.309,37.658,37.658,0,0,0,3.128-7.476,4.186,4.186,0,0,1,3.187-2.915l9.074-1.83a2.817,2.817,0,0,0,2.26-2.761v-6.056a2.816,2.816,0,0,0-2.26-2.76Zm-39.324,35.555h0a28.106,28.106,0,1,1,19.875-8.232,27.922,27.922,0,0,1-19.875,8.232" transform="translate(392.056 -2126)" fill="#88878c"/>
    <path id="Path_7881" data-name="Path 7881" d="M1123.082,3248.583h-6.056a2.885,2.885,0,0,1-2.819-2.308l-1.858-9.215a4.068,4.068,0,0,0-2.855-3.114,37.6,37.6,0,0,1-4.1-1.461c-1.132-.479-2.252-1.019-3.33-1.605a4.1,4.1,0,0,0-4.234.176l-7.819,5.195a2.884,2.884,0,0,1-3.625-.362l-4.282-4.282a2.884,2.884,0,0,1-.362-3.625l5.156-7.76a4.085,4.085,0,0,0,.169-4.247,37.7,37.7,0,0,1-3.729-9.754l-12.086-2.437a2.884,2.884,0,0,1-2.307-2.819v-6.056a2.884,2.884,0,0,1,2.307-2.819l9.5-1.915a4.065,4.065,0,0,0,3.116-2.862,37.6,37.6,0,0,1,1.487-4.194c.485-1.146,1.032-2.28,1.627-3.371a4.094,4.094,0,0,0-.175-4.237l-5.063-7.62a2.885,2.885,0,0,1,.362-3.625l4.282-4.282a2.885,2.885,0,0,1,3.625-.362l7.563,5.025a4.083,4.083,0,0,0,4.25.167,37.617,37.617,0,0,1,7.734-3.214,4.066,4.066,0,0,0,2.86-3.115l1.791-8.886a2.885,2.885,0,0,1,2.819-2.308h6.056a2.885,2.885,0,0,1,2.82,2.308l1.791,8.886a4.066,4.066,0,0,0,2.859,3.115,37.61,37.61,0,0,1,7.734,3.214,4.081,4.081,0,0,0,4.25-.167l7.563-5.025a2.884,2.884,0,0,1,3.625.362l4.282,4.282a2.884,2.884,0,0,1,.362,3.625l-5.063,7.62a4.094,4.094,0,0,0-.175,4.237c.6,1.091,1.142,2.225,1.627,3.371a37.429,37.429,0,0,1,1.513,4.287,4.062,4.062,0,0,0,3.119,2.868l9,1.815a2.884,2.884,0,0,1,2.307,2.819v6.056a2.884,2.884,0,0,1-2.307,2.819l-9.074,1.83a4.118,4.118,0,0,0-3.141,2.873,37.712,37.712,0,0,1-3.133,7.488,4.085,4.085,0,0,0,.169,4.247l5.156,7.76a2.885,2.885,0,0,1-.362,3.625l-4.282,4.282a2.884,2.884,0,0,1-3.625.362l-7.818-5.195a4.1,4.1,0,0,0-4.234-.176c-1.078.586-2.2,1.126-3.33,1.605a37.506,37.506,0,0,1-4.1,1.461,4.068,4.068,0,0,0-2.855,3.114l-1.858,9.215a2.885,2.885,0,0,1-2.82,2.308m-23-18.327a4.253,4.253,0,0,1,2.034.52c1.074.585,2.191,1.123,3.32,1.6a37.342,37.342,0,0,0,4.089,1.456,4.189,4.189,0,0,1,2.939,3.205l1.858,9.215a2.765,2.765,0,0,0,2.7,2.212h6.056a2.765,2.765,0,0,0,2.7-2.212l1.858-9.215a4.19,4.19,0,0,1,2.939-3.205,37.327,37.327,0,0,0,4.09-1.456c1.128-.477,2.245-1.015,3.32-1.6a4.214,4.214,0,0,1,4.357.182l7.819,5.195a2.765,2.765,0,0,0,3.475-.347l4.282-4.282a2.765,2.765,0,0,0,.347-3.475l-5.156-7.761a4.2,4.2,0,0,1-.174-4.371,37.566,37.566,0,0,0,3.123-7.464,4.237,4.237,0,0,1,3.232-2.956l9.075-1.829a2.765,2.765,0,0,0,2.212-2.7v-6.056a2.765,2.765,0,0,0-2.212-2.7l-9-1.815a4.179,4.179,0,0,1-3.209-2.953,37.45,37.45,0,0,0-1.508-4.273c-.483-1.143-1.029-2.273-1.622-3.36a4.211,4.211,0,0,1,.18-4.36l5.063-7.621a2.765,2.765,0,0,0-.347-3.475l-4.282-4.282a2.764,2.764,0,0,0-3.475-.347l-7.563,5.025a4.2,4.2,0,0,1-4.374.172,37.5,37.5,0,0,0-7.709-3.2,4.184,4.184,0,0,1-2.943-3.207l-1.792-8.885a2.765,2.765,0,0,0-2.7-2.212h-6.056a2.765,2.765,0,0,0-2.7,2.212l-1.791,8.885a4.186,4.186,0,0,1-2.943,3.207,37.5,37.5,0,0,0-7.709,3.2,4.2,4.2,0,0,1-4.374-.172l-7.563-5.025a2.765,2.765,0,0,0-3.475.347l-4.282,4.282a2.765,2.765,0,0,0-.347,3.475l5.063,7.621a4.212,4.212,0,0,1,.18,4.36c-.593,1.087-1.139,2.217-1.622,3.36a37.562,37.562,0,0,0-1.482,4.181,4.183,4.183,0,0,1-3.207,2.946l-9.5,1.915a2.765,2.765,0,0,0-2.212,2.7v6.056a2.765,2.765,0,0,0,2.212,2.7l12.162,2.452.008.038a37.475,37.475,0,0,0,2.016,6.242,37.907,37.907,0,0,0,1.709,3.519,4.2,4.2,0,0,1-.174,4.371l-5.156,7.761a2.764,2.764,0,0,0,.347,3.475l4.282,4.282a2.765,2.765,0,0,0,3.475.347l7.819-5.195a4.191,4.191,0,0,1,2.323-.7m19.969-4.307a28.166,28.166,0,1,1,19.917-8.25,27.983,27.983,0,0,1-19.917,8.25m0-56.214a28.047,28.047,0,1,0,19.833,8.215,27.864,27.864,0,0,0-19.833-8.215" transform="translate(392.231 -2125.825)" fill="#88878c"/>
    <path id="Path_7882" data-name="Path 7882" d="M1240.092,3326.216h0a10.22,10.22,0,1,1,7.227-2.993,10.153,10.153,0,0,1-7.227,2.993" transform="translate(272.194 -2244.038)" fill="#88878c"/>
    <path id="Path_7883" data-name="Path 7883" d="M1239.917,3326.1a10.28,10.28,0,1,1,7.269-3.011,10.212,10.212,0,0,1-7.269,3.011m0-20.441a10.161,10.161,0,1,0,7.185,2.976,10.094,10.094,0,0,0-7.185-2.976" transform="translate(272.368 -2243.863)" fill="#88878c"/>
  </g>
</svg>
