<svg xmlns="http://www.w3.org/2000/svg" width="101.639" height="101.442" viewBox="0 0 101.639 101.442">
  <g id="Group_38881" data-name="Group 38881" transform="translate(-1195.954 -1816.688)">
    <path id="Path_7917" data-name="Path 7917" d="M131.069,6497.578a5.685,5.685,0,0,1-2.469-.565L54.906,6461.6a5.709,5.709,0,0,1,4.945-10.292l73.695,35.412a5.71,5.71,0,0,1-2.477,10.856" transform="translate(1151.019 -4589.879)" fill="#88878c"/>
    <path id="Path_7918" data-name="Path 7918" d="M57.383,6362.429a5.71,5.71,0,0,1-2.394-10.9l73.695-33.976a5.709,5.709,0,1,1,4.78,10.369L59.77,6361.9a5.694,5.694,0,0,1-2.387.525" transform="translate(1151.017 -4490.143)" fill="#88878c"/>
    <path id="Path_7919" data-name="Path 7919" d="M338.928,6301.987h0a12.553,12.553,0,1,1,8.876-3.677,12.469,12.469,0,0,1-8.876,3.677" transform="translate(946.112 -4460.195)" fill="#88878c"/>
    <path id="Path_7920" data-name="Path 7920" d="M338.928,6602.41h0a12.553,12.553,0,1,1,8.876-3.677,12.471,12.471,0,0,1-8.876,3.677" transform="translate(946.112 -4684.28)" fill="#88878c"/>
    <path id="Path_7921" data-name="Path 7921" d="M37.728,6443.271h0A12.552,12.552,0,1,1,46.6,6439.6a12.471,12.471,0,0,1-8.876,3.676" transform="translate(1170.778 -4565.579)" fill="#88878c"/>
  </g>
</svg>
