<svg xmlns="http://www.w3.org/2000/svg" width="105.912" height="105.057" viewBox="0 0 105.912 105.057">
  <g id="Group_38870" data-name="Group 38870" transform="translate(-1191.681 -223.239)">
    <rect id="Rectangle_3649" data-name="Rectangle 3649" width="11.8" height="32.648" transform="translate(1275.37 223.239)" fill="#88878c"/>
    <rect id="Rectangle_3650" data-name="Rectangle 3650" width="32.647" height="11.8" transform="translate(1264.946 233.663)" fill="#88878c"/>
    <path id="Path_7820" data-name="Path 7820" d="M74.4,101.835a33.208,33.208,0,1,1,23.563-9.781A33.127,33.127,0,0,1,74.4,101.835m0-54.643A21.418,21.418,0,1,0,89.521,53.42a21.369,21.369,0,0,0-15.116-6.228" transform="translate(1158.837 195.344)" fill="#88878c"/>
    <path id="Path_7821" data-name="Path 7821" d="M16.905,335.325l-8.547-8.135.227-.238a71.539,71.539,0,0,1,19.782-15.044,47.855,47.855,0,0,1,21.355-5.2h.083a47.934,47.934,0,0,1,21.486,5.3A71.965,71.965,0,0,1,91.1,327.206l-8.577,8.1C72.01,324.183,61,318.531,49.783,318.51h-.062c-11.154,0-22.118,5.577-32.589,16.578Z" transform="translate(1183.323 -7.029)" fill="#88878c"/>
  </g>
</svg>
