<svg xmlns="http://www.w3.org/2000/svg" width="113.372" height="126.21" viewBox="0 0 113.372 126.21">
  <g id="Group_38879" data-name="Group 38879" transform="translate(-1190.099 -1531.76)">
    <path id="Path_7899" data-name="Path 7899" d="M108.287,5235.166a39.695,39.695,0,1,1,.109,0h-.109m0-65.487a25.675,25.675,0,1,0,0,51.35h.07a25.675,25.675,0,0,0-.068-51.35" transform="translate(1138.485 -3623.788)" fill="#88878c"/>
    <path id="Path_7903" data-name="Path 7903" d="M13.841,5537.162,2.127,5526.019l.311-.327c8.592-9.025,17.711-15.96,27.107-20.614a65.568,65.568,0,0,1,29.26-7.121h.114a65.673,65.673,0,0,1,29.44,7.268c9.412,4.712,18.544,11.715,27.141,20.814l-11.752,11.1c-7.3-7.722-14.91-13.6-22.628-17.461a49.681,49.681,0,0,0-22.232-5.557,49.55,49.55,0,0,0-22.167,5.441c-7.7,3.812-15.289,9.623-22.571,17.272Z" transform="translate(1187.972 -3879.192)" fill="#88878c"/>
  </g>
</svg>
