<svg xmlns="http://www.w3.org/2000/svg" xmlns:xlink="http://www.w3.org/1999/xlink" width="61.5" height="61.5" viewBox="0 0 61.5 61.5">
  <defs>
    <linearGradient id="linear-gradient" y1="0.5" x2="1" y2="0.5" gradientUnits="objectBoundingBox">
      <stop offset="0.001" stop-color="#1c1cf9"/>
      <stop offset="1" stop-color="#8a1cf4"/>
    </linearGradient>
  </defs>
  <g id="Group_143" data-name="Group 143" transform="translate(-833.604 -467.751)">
    <path id="Path_7329" data-name="Path 7329" d="M941.123,494.816l-.148-.162,11.96-10.939a30.566,30.566,0,0,1,6.457,9.569l-14.907,6.36a14.444,14.444,0,0,0-3.2-4.675Zm-4.591-2.954,6.033-15.041a30.627,30.627,0,0,0-11.448-2.209l-.343,0,.177,16.205A14.477,14.477,0,0,1,936.532,491.862Zm25.322,13.164-16.206.173c0,.055,0,.11,0,.164a14.5,14.5,0,0,1-1.042,5.42l15.042,6.031a30.647,30.647,0,0,0,2.206-11.451C961.856,505.251,961.856,505.138,961.854,505.026Zm-14.546,16.181-5.741-5.741-.068.07h0a14.543,14.543,0,0,1-20.785-20.347h0a14.453,14.453,0,0,1,4.679-3.208l-6.358-14.907A30.753,30.753,0,0,0,931.1,536.112l.337,0a30.547,30.547,0,0,0,21.592-9.185c.018-.018.036-.035.055-.052l-5.063-4.956-.375-.375,5.5,5.263Z" transform="translate(-66.752 -6.861)" fill="url(#linear-gradient)"/>
  </g>
</svg>
