<svg xmlns="http://www.w3.org/2000/svg" xmlns:xlink="http://www.w3.org/1999/xlink" width="362.687" height="110.359" viewBox="0 0 362.687 110.359">
  <defs>
    <linearGradient id="linear-gradient" y1="0.5" x2="1" y2="0.5" gradientUnits="objectBoundingBox">
      <stop offset="0.001" stop-color="#1c1cf9"/>
      <stop offset="1" stop-color="#8a1cf4"/>
    </linearGradient>
  </defs>
  <g id="Group_143" data-name="Group 143" transform="translate(-678.777 -451.837)">
    <path id="Path_275" data-name="Path 275" d="M1064.758,543l23.723-.015-3.865-5.374c-7.039-9.3-14.317-18.922-21.53-28.342a2.366,2.366,0,0,1-.015-3.337c6.749-9.535,20.92-29.82,23.353-33.3l-22.629.038c-1.18,1.7-12.755,18.362-18.3,26.28-.165.234-.346.456-.6.76-.136.166-.293.357-.479.591l-.58.725V451.837h-19.846V543h19.977V514.883l1.128,1.517c.294.391.517.691.739.993l3.779,5.139L1064.75,543" transform="translate(-125.402 0)" fill="#1d1d1b"/>
    <path id="Path_277" data-name="Path 277" d="M737.216,526.711c0,15.41-13.812,24.438-29.219,24.438s-29.22-9.029-29.22-24.438H698.7c0,6.109,4.914,7.7,9.3,7.7s9.3-2.259,9.3-6.907c0-3.321-4.383-6.373-10.36-7.173-13.945-1.724-27.359-10.225-27.359-21.516,0-14.609,13.016-23.642,28.423-23.642s28.424,9.032,28.424,24.441H716.5c0-6.113-4.118-7.7-8.5-7.7s-8.5,1.592-8.5,6.376c0,4.249,8.765,7.569,16.469,8.5C726.459,507.983,737.216,514.626,737.216,526.711Z" transform="translate(0 -8.479)" fill="#1d1d1b"/>
    <path id="Path_278" data-name="Path 278" d="M852.369,512.831c0,20.95-17.633,37.918-39.376,37.918a27.906,27.906,0,0,1-19.49-7.954v27.784H773.616V512.831c0-20.948,17.633-37.918,39.377-37.918S852.369,491.884,852.369,512.831Zm-19.887,0a20.14,20.14,0,1,0,0,.053v-.053Z" transform="translate(-34.451 -8.383)" fill="#1d1d1b"/>
    <path id="Path_279" data-name="Path 279" d="M1166.547,475.177c22.657,0,38.218,17.471,38.218,39.036v37.26h-20.474v-37.26c0-11.326-6.415-20.472-17.744-20.472s-17.744,9.146-17.744,20.472v37.26h-20.474v-37.26C1128.329,492.648,1143.891,475.177,1166.547,475.177Z" transform="translate(-163.302 -8.478)" fill="#1d1d1b"/>
    <path id="Path_7329" data-name="Path 7329" d="M951.249,499.835l-.185-.2L966,485.976a38.163,38.163,0,0,1,8.06,11.947l-18.61,7.94a18.033,18.033,0,0,0-4-5.836Zm-5.731-3.688,7.532-18.778a38.235,38.235,0,0,0-14.292-2.757l-.428,0,.221,20.231A18.076,18.076,0,0,1,945.518,496.147Zm31.612,16.434L956.9,512.8c0,.069,0,.137,0,.2a18.108,18.108,0,0,1-1.3,6.766l18.779,7.529a38.254,38.254,0,0,0,2.754-14.3Q977.133,512.792,977.131,512.581Zm-18.159,20.2-7.167-7.167-.085.087h0a18.156,18.156,0,0,1-25.948-25.4h0a18.044,18.044,0,0,1,5.841-4l-7.937-18.609a38.392,38.392,0,0,0,15.058,73.7l.421,0a38.135,38.135,0,0,0,26.955-11.466c.022-.023.045-.044.068-.066l-6.32-6.187-.469-.468,6.869,6.571Z" transform="translate(-80.49 -8.273)" fill="url(#linear-gradient)"/>
  </g>
</svg>
