<svg xmlns="http://www.w3.org/2000/svg" width="157.875" height="104.103" viewBox="0 0 157.875 104.103">
  <g id="Group_42918" data-name="Group 42918" transform="translate(-82.999 -6809.662)">
    <path id="Path_12733" data-name="Path 12733" d="M0,0A10.9,10.9,0,0,1-.55-1.069a14.964,14.964,0,0,1,1.908-14.91,14.967,14.967,0,0,1,14.035-5.383c4.884.851,9.305,4.158,14.256,3.893a17.715,17.715,0,0,0,6.439-1.941,125.742,125.742,0,0,0,16.094-9.483A2.585,2.585,0,0,1,55-28.918a2.584,2.584,0,0,1,.344,4.095C50.562-20.5,45.466-16.54,40.379-12.582c-5.307,4.128-10.623,8.264-16.3,11.87a41.887,41.887,0,0,1-11.5,5.472,12.464,12.464,0,0,1-7.15.133A8.854,8.854,0,0,1,1.26,1.878" transform="translate(181.141 6872.523)" fill="#ff3b00"/>
    <path id="Path_12734" data-name="Path 12734" d="M0,0A15.961,15.961,0,0,1-25.3-2.677q-1.292-2.138-2.434-4.36a27.665,27.665,0,0,1-3.117-8.8,12.428,12.428,0,0,1,1.915-8.949A8.1,8.1,0,0,1-20.742-28.1a8.746,8.746,0,0,1,5.35,4.552,20.288,20.288,0,0,1,1.9,6.94A61.808,61.808,0,0,1-14.33,4.177C-11.985-.669-8.168-4.647-4.091-8.162c3.705-3.194,7.871-6.165,12.709-6.952a1.355,1.355,0,0,1,.407-.009c1,.142.979,1.366.687,2.2A20.184,20.184,0,0,1,6.387-7.411C4.7-5.217,2.453-2.609,0,0" transform="translate(222.747 6843.493)" fill="#ff3b00"/>
    <path id="Path_12735" data-name="Path 12735" d="M0,0A10.9,10.9,0,0,0,.55-1.069a14.966,14.966,0,0,0-1.908-14.91,14.968,14.968,0,0,0-14.035-5.383c-4.884.851-9.305,4.158-14.256,3.892a17.713,17.713,0,0,1-6.439-1.94,125.753,125.753,0,0,1-16.095-9.483A2.581,2.581,0,0,0-55-28.918a2.584,2.584,0,0,0-.344,4.095c4.781,4.318,9.878,8.283,14.965,12.241,5.307,4.128,10.623,8.263,16.3,11.87a41.881,41.881,0,0,0,11.5,5.472,12.468,12.468,0,0,0,7.151.133A8.868,8.868,0,0,0-1.26,1.878" transform="translate(142.631 6873.429)" fill="#ff3b00"/>
    <path id="Path_12736" data-name="Path 12736" d="M0,0A15.961,15.961,0,0,0,25.3-2.677q1.292-2.138,2.434-4.36a27.665,27.665,0,0,0,3.117-8.8,12.43,12.43,0,0,0-1.915-8.949A8.1,8.1,0,0,0,20.742-28.1a8.746,8.746,0,0,0-5.35,4.552,20.288,20.288,0,0,0-1.9,6.94A61.808,61.808,0,0,0,14.33,4.177C11.985-.668,8.168-4.647,4.091-8.162.386-11.356-3.78-14.327-8.618-15.113a1.317,1.317,0,0,0-.406-.01c-1,.142-.98,1.366-.688,2.2A20.2,20.2,0,0,0-6.387-7.41C-4.7-5.217-2.453-2.609,0,0" transform="translate(101.026 6844.399)" fill="#ff3b00"/>
    <path id="Path_12737" data-name="Path 12737" d="M0,0A18.248,18.248,0,0,1-7.515,4.822a18.29,18.29,0,0,1-8.453.723,18.351,18.351,0,0,1-7.914-3.2A18.01,18.01,0,0,1-27.154-.682a28.858,28.858,0,0,1-2.964-4.545c-2.093-3.71-4.118-7.627-4.935-11.844-.727-3.746-.358-7.89,1.867-11.092,1.952-2.807,5.582-4.685,9.023-3.962,3.689.775,6.132,4.112,7.275,7.5A31.06,31.06,0,0,1-15.622-18.4q.4,3.33.489,6.687a71.3,71.3,0,0,1-.925,13.469q-.267,1.61-.606,3.207c-.063.3.371.524.519.218A37.6,37.6,0,0,1-9.656-3.994c1.283-1.37,2.638-2.671,4.035-3.923s2.821-2.465,4.312-3.6a28.336,28.336,0,0,1,9.831-5.144q.666-.174,1.344-.3A1.423,1.423,0,0,1,11-16.88c.459.338.406,1.09.3,1.579a9.576,9.576,0,0,1-1.046,2.517A23.73,23.73,0,0,1,8.7-10.326a95.464,95.464,0,0,1-7.59,9.134Q.557-.592,0,0C-.25.266.151.669.4.4A113.554,113.554,0,0,0,8.5-9.1a21.92,21.92,0,0,0,3.079-5.193,3.823,3.823,0,0,0,.3-2.146,1.419,1.419,0,0,0-1.385-1.17,6.163,6.163,0,0,0-1.435.235q-.709.157-1.4.366a22.785,22.785,0,0,0-2.671,1A30.623,30.623,0,0,0-.05-13.129,56.254,56.254,0,0,0-4.616-9.553C-6.1-8.279-7.544-6.961-8.922-5.574a41.094,41.094,0,0,0-7.06,9.195q-.342.628-.654,1.272l.52.219A72.173,72.173,0,0,0-14.551-8.632q.06-3.489-.221-6.973a52.9,52.9,0,0,0-.878-6.6c-.794-3.777-2.545-7.642-6.063-9.6a8.209,8.209,0,0,0-5.167-.949,9.962,9.962,0,0,0-4.829,2.175c-3.039,2.468-4.3,6.477-4.251,10.286.053,4.31,1.726,8.4,3.652,12.183A66.443,66.443,0,0,0-29.047-2.3a18.914,18.914,0,0,0,3.021,3.62,18.731,18.731,0,0,0,7.791,4.323,19.026,19.026,0,0,0,8.787.279A18.669,18.669,0,0,0-1.293,2,19.2,19.2,0,0,0,.4.4C.653.136.252-.267,0,0" transform="translate(225.827 6842.505)"/>
    <path id="Path_12738" data-name="Path 12738" d="M0,0A.285.285,0,0,0,0-.569.285.285,0,0,0,0,0" transform="translate(181.171 6872.582)"/>
    <path id="Path_12739" data-name="Path 12739" d="M0,0A15.3,15.3,0,0,1-.631-13.052a15.07,15.07,0,0,1,9.4-8.583A15.391,15.391,0,0,1,15.16-22.3,26.937,26.937,0,0,1,22-20.268a29.433,29.433,0,0,0,6.824,2.1,14.327,14.327,0,0,0,7.4-1.168,66.2,66.2,0,0,0,7.145-3.534c2.363-1.316,4.671-2.728,6.95-4.185q1.711-1.094,3.4-2.214c1-.659,2.009-1.574,3.3-1.279A2.474,2.474,0,0,1,58.9-28.594a2.477,2.477,0,0,1-.122,1.326,3.052,3.052,0,0,1-.909,1.17c-4.116,3.7-8.443,7.154-12.8,10.56C40.745-12.164,36.435-8.772,32-5.562c-2.226,1.61-4.489,3.17-6.806,4.646A60.264,60.264,0,0,1,18.4,2.9a28.43,28.43,0,0,1-7.424,2.44A10.326,10.326,0,0,1,3.7,4.144,10,10,0,0,1,1.289,1.93c-.23-.285-.63.119-.4.4a9.723,9.723,0,0,0,5.9,3.6A16.54,16.54,0,0,0,14.678,5c5.148-1.683,9.795-4.66,14.235-7.7,4.65-3.182,9.1-6.64,13.548-10.1,4.5-3.5,9.008-7,13.33-10.724q.8-.685,1.585-1.381a12.928,12.928,0,0,0,1.418-1.308,3.049,3.049,0,0,0,.627-2.643,3.027,3.027,0,0,0-1.74-2.069,3.033,3.033,0,0,0-1.662-.211,4.079,4.079,0,0,0-1.653.764,145.688,145.688,0,0,1-14.271,8.6,27.964,27.964,0,0,1-7.647,2.984,14.59,14.59,0,0,1-7.328-.907c-2.346-.815-4.6-1.88-6.99-2.575a16.188,16.188,0,0,0-6.778-.547A16.023,16.023,0,0,0,.3-16.018,16.229,16.229,0,0,0-1.789-2.853,13.987,13.987,0,0,0-.491.287.285.285,0,0,0,0,0" transform="translate(181.374 6872.03)"/>
    <path id="Path_12740" data-name="Path 12740" d="M0,0A27.884,27.884,0,0,1-7.961-3.035,11.427,11.427,0,0,1-12.71-8.444a10.28,10.28,0,0,1-.592-4.191,10.332,10.332,0,0,1,.739-3.471,6.037,6.037,0,0,1,2.043-2.661,5.9,5.9,0,0,1,3.511-.967A12.433,12.433,0,0,1,.109-16.823,25.7,25.7,0,0,1,3.02-14.137c.853.9,1.679,1.836,2.606,2.665A9.479,9.479,0,0,0,8.712-9.531a9.192,9.192,0,0,0,3.936.345c1.365-.125,2.717-.385,4.089-.425a5.654,5.654,0,0,1,3.659.86,2.581,2.581,0,0,1,.458,3.3,7.333,7.333,0,0,1-2.8,2.646A18.268,18.268,0,0,1,9.869-.725c-.747.049-1.494.083-2.241.117-.364.017-.366.585,0,.569,3.029-.138,6.142-.284,8.987-1.433a11.4,11.4,0,0,0,3.492-2.149,4.561,4.561,0,0,0,1.7-3.527,2.8,2.8,0,0,0-.764-1.78,3.87,3.87,0,0,0-1.651-.95,10.144,10.144,0,0,0-4.128-.189,30.669,30.669,0,0,1-4.2.375,7,7,0,0,1-3.654-1.114,15.635,15.635,0,0,1-2.847-2.511c-.909-.959-1.792-1.94-2.773-2.828A15.582,15.582,0,0,0-5.3-20.1a8,8,0,0,0-3.935.092,5.832,5.832,0,0,0-2.988,2.142,8.476,8.476,0,0,0-1.409,3.321,12.359,12.359,0,0,0-.149,4.176,10.607,10.607,0,0,0,3.9,6.652A20.892,20.892,0,0,0-2.231-.015c.69.2,1.384.385,2.08.563A.284.284,0,0,0,0,0" transform="translate(176.601 6892.491)"/>
    <path id="Path_12741" data-name="Path 12741" d="M0,0C2.742,1.024,4.591,3.488,7.069,4.949a6.971,6.971,0,0,0,3.785,1.092A4.7,4.7,0,0,0,14.043,4.73,3.648,3.648,0,0,0,14.6.509c-.173-.322-.665-.035-.491.287A3.065,3.065,0,0,1,13.756,4.2a4.023,4.023,0,0,1-2.843,1.267c-2.7.142-4.864-1.865-6.794-3.475A13.966,13.966,0,0,0,.151-.548a.287.287,0,0,0-.35.2A.291.291,0,0,0,0,0" transform="translate(172.088 6891.737)"/>
    <path id="Path_12742" data-name="Path 12742" d="M0,0A5.825,5.825,0,0,0-2.37,2.692a6.477,6.477,0,0,0-.445,3.723,7.7,7.7,0,0,0,4.807,5.8,6.075,6.075,0,0,0,1.875.378,6.112,6.112,0,0,0,2.017-.3c.69-.213,1.357-.495,2.052-.69a6.117,6.117,0,0,1,3.936.2,9.993,9.993,0,0,1,1.693.96,3.856,3.856,0,0,0,1.8.7,5.72,5.72,0,0,0,2.214-.543c.742-.263,1.485-.522,2.224-.79a3.776,3.776,0,0,0,1.764-1.158,1.56,1.56,0,0,0,.351-1.458,1.58,1.58,0,0,0-.955-.925,1.9,1.9,0,0,0-.655-.126.285.285,0,0,0,0,.569,1.26,1.26,0,0,1,.922.4.853.853,0,0,1,.126.2c0,.007.02.049,0,.008.008.021.016.044.023.066s.012.044.018.067c0,0,.016.09.009.037a.865.865,0,0,1-.111.544,2.67,2.67,0,0,1-1.413,1.141c-.686.271-1.391.5-2.086.746-.352.125-.7.252-1.057.375a4.715,4.715,0,0,1-.987.269,2.645,2.645,0,0,1-1.689-.478c-.527-.318-1.021-.686-1.579-.951a6.683,6.683,0,0,0-1.858-.571,6.83,6.83,0,0,0-1.973-.011,9.955,9.955,0,0,0-1.95.542,10.379,10.379,0,0,1-1.974.568,4.948,4.948,0,0,1-1.7-.061A7.015,7.015,0,0,1-2.033,7.211a6.066,6.066,0,0,1-.106-3.492A5.56,5.56,0,0,1-.388.96,4.7,4.7,0,0,1,.287.491.285.285,0,0,0,0,0" transform="translate(170.429 6875.076)"/>
    <path id="Path_12743" data-name="Path 12743" d="M0,0A3.572,3.572,0,0,1,3.5-.895,8.1,8.1,0,0,1,5.247.186,16.469,16.469,0,0,0,6.655,1.248a3.537,3.537,0,0,0,1.875.543.285.285,0,0,0,0-.569A2.934,2.934,0,0,1,6.957.766,16.484,16.484,0,0,1,5.53-.309,8.132,8.132,0,0,0,3.65-1.444a3.246,3.246,0,0,0-2.181-.014A5.358,5.358,0,0,0-.4-.4.287.287,0,0,0-.4,0,.29.29,0,0,0,0,0" transform="translate(169.648 6884.91)"/>
    <path id="Path_12744" data-name="Path 12744" d="M0,0A30.873,30.873,0,0,1,1.962,6.2a30.1,30.1,0,0,1,.592,6.436c-.015.962-.085,1.918-.176,2.875a.286.286,0,0,0,.284.284.291.291,0,0,0,.285-.284,33.037,33.037,0,0,0,.08-5.8,30.889,30.889,0,0,0-1.232-6.5,32.409,32.409,0,0,0-1.3-3.5A.286.286,0,0,0,.1-.389.292.292,0,0,0,0,0" transform="translate(183.095 6897.74)"/>
    <path id="Path_12745" data-name="Path 12745" d="M0,0A23.136,23.136,0,0,1-8.275.286a9.5,9.5,0,0,1-3.538-1.51,10.536,10.536,0,0,1-2.495-2.517A13.523,13.523,0,0,1-16.12-7.36c-.116.117-.233.233-.349.349,2.63.719,5.406.515,8.041,1.189A11.181,11.181,0,0,1-5.449-4.516,17.656,17.656,0,0,1-2.617-2.377,15.884,15.884,0,0,1-.17.418c.2.3.7.017.491-.287a17.638,17.638,0,0,0-5.055-4.87,12.866,12.866,0,0,0-3.095-1.5,18.924,18.924,0,0,0-3.909-.649,26.764,26.764,0,0,1-4.58-.667.287.287,0,0,0-.35.35A12.817,12.817,0,0,0-12.5-1.032,9.865,9.865,0,0,0-8.949.711a14.587,14.587,0,0,0,4.232.394A41.47,41.47,0,0,0,.151.548.287.287,0,0,0,.35.2.292.292,0,0,0,0,0" transform="translate(182.752 6902.519)"/>
    <path id="Path_12746" data-name="Path 12746" d="M0,0A14.533,14.533,0,0,1,3.105-2.477,16.106,16.106,0,0,1,6.788-4.09a15.485,15.485,0,0,1,3.972-.644,13.289,13.289,0,0,1,3.926.457A11.313,11.313,0,0,1,18.233-2.6a10.286,10.286,0,0,1,2.7,2.819,12.458,12.458,0,0,1,1.535,3.6,15.132,15.132,0,0,1,.472,4.043,14.045,14.045,0,0,1-.637,4.007,10.47,10.47,0,0,1-1.78,3.408,9.215,9.215,0,0,1-.627.7.284.284,0,0,0,.4.4A10.372,10.372,0,0,0,22.5,13.005a13.755,13.755,0,0,0,.96-4.078,15.838,15.838,0,0,0-.213-4.248A13.9,13.9,0,0,0,21.908.758,10.825,10.825,0,0,0,19.4-2.4a11.654,11.654,0,0,0-3.577-2.105A13.246,13.246,0,0,0,11.8-5.3,15.636,15.636,0,0,0,7.654-4.9,16.8,16.8,0,0,0,3.716-3.466,15.61,15.61,0,0,0,.3-1.1C.058-.873-.176-.641-.4-.4c-.252.266.15.668.4.4" transform="translate(181.029 6858.325)"/>
    <path id="Path_12747" data-name="Path 12747" d="M0,0A9.233,9.233,0,0,1,1.659,4.379c.072.447.13.9.186,1.345a.293.293,0,0,0,.284.284.287.287,0,0,0,.285-.284A14.7,14.7,0,0,0,1.194.818,7.1,7.1,0,0,0,.4-.4.286.286,0,0,0,0-.4.291.291,0,0,0,0,0" transform="translate(231.852 6844.815)"/>
    <path id="Path_12748" data-name="Path 12748" d="M0,0C-1.641,2.176-3.6,4.081-5.395,6.126c-.448.511-.886,1.032-1.306,1.566-.221.282-.434.569-.65.854a2.153,2.153,0,0,0-.5.9.786.786,0,0,0,.373.832,1.283,1.283,0,0,0,1.022-.107A10.333,10.333,0,0,0-4.632,9.158,29.449,29.449,0,0,0-.9,6.072c.269-.249-.134-.65-.4-.4A33.121,33.121,0,0,1-4.392,8.305a16.036,16.036,0,0,1-1.7,1.058,4.133,4.133,0,0,1-.859.37c-.081.022-.208.077-.283.029s-.077-.183-.056-.264a1.1,1.1,0,0,1,.2-.367c.1-.143.213-.282.318-.424q.282-.381.577-.753c.4-.506.82-1,1.247-1.483.848-.965,1.73-1.9,2.6-2.844C-1.356,2.551-.389,1.454.491.287A.286.286,0,0,0,.389-.1.291.291,0,0,0,0,0" transform="translate(186.887 6865.364)"/>
    <path id="Path_12749" data-name="Path 12749" d="M0,0-.06-.071A.215.215,0,0,0-.152-.13.215.215,0,0,0-.261-.154a.219.219,0,0,0-.11.024.217.217,0,0,0-.091.059l-.044.058A.277.277,0,0,0-.545.13l.01.076A.278.278,0,0,0-.462.331L-.4.4A.217.217,0,0,0-.311.461.22.22,0,0,0-.2.486.214.214,0,0,0-.092.461.215.215,0,0,0,0,.4L.044.345A.283.283,0,0,0,.083.2L.073.125A.288.288,0,0,0,0,0" transform="translate(184.389 6865.132)"/>
    <path id="Path_12750" data-name="Path 12750" d="M0,0,.06.071A.215.215,0,0,0,.152.13.213.213,0,0,0,.261.154.219.219,0,0,0,.371.13.217.217,0,0,0,.462.071L.506.013A.277.277,0,0,0,.545-.13L.535-.206A.278.278,0,0,0,.462-.331L.4-.4A.215.215,0,0,0,.31-.461.205.205,0,0,0,.2-.485a.209.209,0,0,0-.11.024A.217.217,0,0,0,0-.4l-.044.057A.283.283,0,0,0-.083-.2l.01.076A.278.278,0,0,0,0,0" transform="translate(188.538 6868.606)"/>
    <path id="Path_12751" data-name="Path 12751" d="M0,0A4.319,4.319,0,0,1,.276-2.195a.288.288,0,0,0-.2-.351.293.293,0,0,0-.35.2A4.884,4.884,0,0,0-.548.152.286.286,0,0,0-.2.35.292.292,0,0,0,0,0" transform="translate(183.094 6870.235)"/>
    <path id="Path_12752" data-name="Path 12752" d="M0,0C2.2.658,4.458-.158,6.415-1.166c.325-.168.038-.658-.287-.491C4.307-.719,2.2.065.151-.548A.284.284,0,0,0,0,0" transform="translate(184.621 6872.78)"/>
    <path id="Path_12753" data-name="Path 12753" d="M0,0A18.857,18.857,0,0,0,7.766,4.969a18.944,18.944,0,0,0,8.784.719,18.718,18.718,0,0,0,8.165-3.356A18.624,18.624,0,0,0,28.077-.824a31.265,31.265,0,0,0,3.067-4.754c2.134-3.813,4.2-7.858,4.944-12.206.657-3.846.186-8.1-2.185-11.312A9.745,9.745,0,0,0,24.55-33.1c-3.781.72-6.4,4.047-7.654,7.486a28.867,28.867,0,0,0-1.374,6.273q-.444,3.462-.548,6.955a72.077,72.077,0,0,0,.923,13.8q.271,1.654.621,3.3l.52-.219A38.315,38.315,0,0,0,10.3-4.972C8.962-6.385,7.551-7.724,6.1-9.013s-2.93-2.527-4.482-3.681a27.442,27.442,0,0,0-10.31-5.087c-.764-.168-1.735-.466-2.374.158a2.129,2.129,0,0,0-.418,1.852,8.511,8.511,0,0,0,.949,2.506A21.692,21.692,0,0,0-8.955-10.68,92.74,92.74,0,0,0-1.139-1.225Q-.574-.609,0,0C.251.267.652-.135.4-.4A113.892,113.892,0,0,1-7.454-9.586a22.84,22.84,0,0,1-3.065-4.988,3.843,3.843,0,0,1-.418-2.062.973.973,0,0,1,.362-.66,1.459,1.459,0,0,1,1.112-.062A25.572,25.572,0,0,1,.588-12.742c1.525,1.086,2.976,2.273,4.389,3.5s2.817,2.52,4.142,3.868a40.151,40.151,0,0,1,6.793,8.916q.331.61.635,1.236c.147.3.583.082.519-.219A71.328,71.328,0,0,1,15.525-8.853c-.044-2.235.017-4.473.182-6.7a54.833,54.833,0,0,1,.818-6.526c.727-3.7,2.3-7.533,5.694-9.528A7.612,7.612,0,0,1,27.2-32.6a9.464,9.464,0,0,1,4.673,2.154c2.914,2.466,4.036,6.389,3.914,10.1-.138,4.2-1.829,8.168-3.723,11.852a62.7,62.7,0,0,1-3.174,5.614A18.258,18.258,0,0,1,25.937.6,18.107,18.107,0,0,1,18.4,4.72a18.388,18.388,0,0,1-8.458.245,18.087,18.087,0,0,1-7.9-3.812A19.351,19.351,0,0,1,.4-.4C.15-.669-.251-.266,0,0" transform="translate(97.628 6842.906)"/>
    <path id="Path_12754" data-name="Path 12754" d="M0,0A.285.285,0,0,0,0-.569.285.285,0,0,0,0,0" transform="translate(142.687 6872.582)"/>
    <path id="Path_12755" data-name="Path 12755" d="M0,0A15.828,15.828,0,0,0,.756-13.32a15.65,15.65,0,0,0-9.44-9.008,15.889,15.889,0,0,0-6.567-.869,24.808,24.808,0,0,0-6.976,1.929,32.043,32.043,0,0,1-7.05,2.243,11.593,11.593,0,0,1-3.768-.06A18.767,18.767,0,0,1-37-20.348a98.9,98.9,0,0,1-14.507-8.111Q-53.26-29.593-55-30.747a3.683,3.683,0,0,0-1.589-.682,3.036,3.036,0,0,0-1.672.259,3.046,3.046,0,0,0-.976,4.734,16.362,16.362,0,0,0,1.5,1.361q.787.695,1.585,1.38,1.617,1.387,3.265,2.74c2.2,1.806,4.425,3.57,6.665,5.322,4.443,3.476,8.879,6.97,13.451,10.275,2.285,1.653,4.609,3.253,6.991,4.764A58.3,58.3,0,0,0-18.8,3.287a27.6,27.6,0,0,0,7.643,2.388A10.654,10.654,0,0,0-3.824,4.3,10.487,10.487,0,0,0-1.378,2.045c.227-.283-.173-.687-.4-.4A9.253,9.253,0,0,1-7.639,5.137,16.737,16.737,0,0,1-15.421,4.03C-20.4,2.329-24.9-.585-29.21-3.54c-4.53-3.105-8.873-6.47-13.206-9.841-4.367-3.4-8.739-6.791-12.947-10.384q-1.556-1.328-3.077-2.695a2.557,2.557,0,0,1-.931-2.492,2.472,2.472,0,0,1,1.949-1.9c1.3-.246,2.341.728,3.345,1.39a133.008,133.008,0,0,0,13.9,8.25,25.569,25.569,0,0,0,7.407,2.744,15.013,15.013,0,0,0,7.033-.864c2.275-.767,4.456-1.792,6.747-2.513a16.142,16.142,0,0,1,6.63-.748A15.471,15.471,0,0,1-1.385-16.17,15.665,15.665,0,0,1,.774-3.379,13.39,13.39,0,0,1-.491-.287.285.285,0,0,0,0,0" transform="translate(142.975 6872.317)"/>
    <path id="Path_12756" data-name="Path 12756" d="M0,0A27.99,27.99,0,0,0,8.212-3.165a11.983,11.983,0,0,0,4.914-5.727,10.779,10.779,0,0,0,.588-4.389,10.858,10.858,0,0,0-.8-3.627,6.647,6.647,0,0,0-2.158-2.824,6.294,6.294,0,0,0-3.675-1.12A12.62,12.62,0,0,0-.4-17.978a25.253,25.253,0,0,0-3.066,2.772c-.881.927-1.727,1.891-2.678,2.747a8.585,8.585,0,0,1-3.13,1.916,9.96,9.96,0,0,1-4.1.18,28.918,28.918,0,0,0-4.2-.365,5.175,5.175,0,0,0-3.66,1.29,3.235,3.235,0,0,0-.249,3.752,7.867,7.867,0,0,0,2.918,2.78,18.665,18.665,0,0,0,8.477,2.2c.769.052,1.539.088,2.309.123.365.016.364-.553,0-.569a27,27,0,0,1-8.7-1.358,10.743,10.743,0,0,1-3.357-2.038,3.955,3.955,0,0,1-1.544-3.291,2.832,2.832,0,0,1,2.554-2.178,12.536,12.536,0,0,1,4.04.05,19.877,19.877,0,0,0,4.067.274A7.488,7.488,0,0,0-7.189-10.92c2.111-1.388,3.614-3.493,5.45-5.192a15.492,15.492,0,0,1,6.76-3.931,7.606,7.606,0,0,1,3.75-.015,5.212,5.212,0,0,1,2.823,1.947,8.122,8.122,0,0,1,1.342,3.19,11.59,11.59,0,0,1,.121,4.009,9.134,9.134,0,0,1-1.343,3.578A11.689,11.689,0,0,1,9.259-4.619,20.427,20.427,0,0,1,1.868-1.094C1.2-.9.524-.721-.151-.548A.284.284,0,0,0,0,0" transform="translate(147.408 6893.04)"/>
    <path id="Path_12757" data-name="Path 12757" d="M0,0C-2.666,1-4.488,3.273-6.834,4.778a6.935,6.935,0,0,1-3.533,1.246,4.281,4.281,0,0,1-2.96-.99,3.065,3.065,0,0,1-.63-3.69c.173-.322-.317-.609-.491-.287a3.646,3.646,0,0,0,.264,3.875,4.441,4.441,0,0,0,3.067,1.624C-8.268,6.9-5.9,4.907-3.867,3.2A14.21,14.21,0,0,1,.151.548.292.292,0,0,0,.35.2.286.286,0,0,0,0,0" transform="translate(151.619 6891.189)"/>
    <path id="Path_12758" data-name="Path 12758" d="M0,0A5.634,5.634,0,0,1,2.537,5.865,7.137,7.137,0,0,1-1.9,11.188a5.514,5.514,0,0,1-1.726.344,5.692,5.692,0,0,1-1.87-.293c-.656-.2-1.292-.47-1.953-.66a6.8,6.8,0,0,0-1.934-.27,6.863,6.863,0,0,0-3.64,1.116,6.9,6.9,0,0,1-1.565.876,2.928,2.928,0,0,1-1.921-.2q-1.061-.375-2.121-.753a5.578,5.578,0,0,1-1.837-.848,2.229,2.229,0,0,1-.555-.66.886.886,0,0,1-.1-.518.809.809,0,0,1,.191-.394,1.088,1.088,0,0,1,.421-.294c-.046.02.043-.015.042-.015l.056-.019c.048-.015.1-.027.144-.038a1,1,0,0,1,.249-.026.285.285,0,0,0,0-.569,1.559,1.559,0,0,0-1.643,1.751,2.527,2.527,0,0,0,1.178,1.469,5.033,5.033,0,0,0,.969.447c.369.133.74.262,1.109.394.734.261,1.464.549,2.21.775a3.231,3.231,0,0,0,1.12.164,2.887,2.887,0,0,0,.962-.242,14.156,14.156,0,0,0,1.655-.982,6.1,6.1,0,0,1,1.843-.729,6.166,6.166,0,0,1,1.982-.1,8.829,8.829,0,0,1,2.016.537,10.671,10.671,0,0,0,2.067.592,5.69,5.69,0,0,0,1.939-.062,7.586,7.586,0,0,0,5.483-5.11,6.621,6.621,0,0,0,.106-3.8A6.075,6.075,0,0,0,1.044.04,5.685,5.685,0,0,0,.287-.491.285.285,0,0,0,0,0" transform="translate(153.142 6875.567)"/>
    <path id="Path_12759" data-name="Path 12759" d="M0,0A4.276,4.276,0,0,0-3.836-1.118,6.567,6.567,0,0,0-5.773-.027C-6.255.334-6.7.736-7.2,1.068a3.027,3.027,0,0,1-1.73.556.285.285,0,0,0,0,.569,3.479,3.479,0,0,0,1.7-.441,10.424,10.424,0,0,0,1.4-1.02,9.585,9.585,0,0,1,1.69-1.11,2.539,2.539,0,0,1,.994-.289,3.057,3.057,0,0,1,1,.123A4.7,4.7,0,0,1-.4.4.292.292,0,0,0,0,.4.287.287,0,0,0,0,0" transform="translate(154.613 6884.508)"/>
    <path id="Path_12760" data-name="Path 12760" d="M0,0A31.574,31.574,0,0,0-2.015,6.313,30.937,30.937,0,0,0-2.632,12.9c.014.97.085,1.935.176,2.9a.294.294,0,0,0,.285.285.287.287,0,0,0,.284-.285,32.914,32.914,0,0,1-.086-5.72A30.206,30.206,0,0,1-.779,3.731,31.225,31.225,0,0,1,.491.287.294.294,0,0,0,.389-.1.287.287,0,0,0,0,0" transform="translate(140.272 6897.453)"/>
    <path id="Path_12761" data-name="Path 12761" d="M0,0C2.836.444,5.779.885,8.625.276a9.918,9.918,0,0,0,3.661-1.582,11.334,11.334,0,0,0,2.638-2.661,13.978,13.978,0,0,0,1.9-3.79.287.287,0,0,0-.35-.35c-2.66.726-5.477.5-8.138,1.213a11.977,11.977,0,0,0-3.1,1.386,18.494,18.494,0,0,0-2.886,2.2A16.5,16.5,0,0,0-.17-.418c-.2.305.288.59.491.287a15.468,15.468,0,0,1,2.145-2.51A18.033,18.033,0,0,1,5.23-4.834,12.146,12.146,0,0,1,8.21-6.267a19.329,19.329,0,0,1,3.865-.623,26.38,26.38,0,0,0,4.546-.669l-.351-.349a12.212,12.212,0,0,1-3.985,5.9A9.318,9.318,0,0,1,8.9-.373a14.2,14.2,0,0,1-4.084.36A40.873,40.873,0,0,1,.151-.548a.294.294,0,0,0-.35.2A.287.287,0,0,0,0,0" transform="translate(140.955 6903.066)"/>
    <path id="Path_12762" data-name="Path 12762" d="M0,0A15.1,15.1,0,0,0-3.22-2.565,16.693,16.693,0,0,0-7.075-4.247,16.15,16.15,0,0,0-11.2-4.9a13.865,13.865,0,0,0-4.094.492,11.777,11.777,0,0,0-3.69,1.761A11.007,11.007,0,0,0-21.829.33a12.989,12.989,0,0,0-1.6,3.758A15.793,15.793,0,0,0-23.913,8.3a14.6,14.6,0,0,0,.668,4.155,11.156,11.156,0,0,0,1.9,3.61,8.789,8.789,0,0,0,.638.711.284.284,0,0,0,.4-.4,9.688,9.688,0,0,1-2.076-3.189,13.279,13.279,0,0,1-.916-3.9,15.283,15.283,0,0,1,.2-4.1,13.379,13.379,0,0,1,1.279-3.764A10.363,10.363,0,0,1-19.4-1.6a10.93,10.93,0,0,1,3.395-1.984,12.755,12.755,0,0,1,3.866-.746,15.078,15.078,0,0,1,3.973.382,16.184,16.184,0,0,1,3.8,1.389A15.021,15.021,0,0,1-1.091-.278Q-.734.05-.4.4C-.15.668.251.266,0,0" transform="translate(143.231 6857.923)"/>
    <path id="Path_12763" data-name="Path 12763" d="M0,0A9.742,9.742,0,0,0-1.809,4.653c-.078.489-.142.981-.2,1.473a.286.286,0,0,0,.284.284.291.291,0,0,0,.284-.284,13.915,13.915,0,0,1,1.132-4.6A6.5,6.5,0,0,1,.4.4.293.293,0,0,0,.4,0,.286.286,0,0,0,0,0" transform="translate(97.29 6844.414)"/>
    <path id="Path_12764" data-name="Path 12764" d="M0,0C1.563,2.073,3.4,3.908,5.128,5.84a37.854,37.854,0,0,1,2.447,3c.092.128.359.485.147.631-.071.049-.207-.008-.284-.029a3.266,3.266,0,0,1-.453-.165A11.873,11.873,0,0,1,5.3,8.306a29.2,29.2,0,0,1-3.5-2.923c-.268-.249-.671.152-.4.4A32.868,32.868,0,0,0,4.7,8.586,14.431,14.431,0,0,0,6.493,9.673c.524.265,1.474.716,1.8-.046a1.023,1.023,0,0,0-.152-.963c-.192-.289-.413-.562-.623-.838C7.1,7.272,6.657,6.733,6.2,6.2c-.886-1.032-1.82-2.022-2.742-3.022C2.429,2.063,1.408.929.491-.287A.293.293,0,0,0,.1-.389.286.286,0,0,0,0,0" transform="translate(136.48 6865.651)"/>
    <path id="Path_12765" data-name="Path 12765" d="M0,0,.06-.071A.211.211,0,0,0,.119-.162.207.207,0,0,0,.143-.271a.207.207,0,0,0-.024-.11A.221.221,0,0,0,.06-.473L0-.517A.277.277,0,0,0-.141-.556l-.076.01a.3.3,0,0,0-.125.073L-.4-.4A.206.206,0,0,0-.461-.31.216.216,0,0,0-.486-.2a.22.22,0,0,0,.025.11A.2.2,0,0,0-.4,0l.057.045A.282.282,0,0,0-.2.083l.076-.01A.284.284,0,0,0,0,0" transform="translate(139.871 6865.533)"/>
    <path id="Path_12766" data-name="Path 12766" d="M0,0-.06.071A.211.211,0,0,0-.119.162.207.207,0,0,0-.143.271a.207.207,0,0,0,.024.11A.221.221,0,0,0-.06.473L0,.517A.274.274,0,0,0,.141.556L.217.546A.288.288,0,0,0,.342.473L.4.4A.206.206,0,0,0,.461.31.205.205,0,0,0,.485.2.209.209,0,0,0,.461.091.2.2,0,0,0,.4,0L.345-.045A.282.282,0,0,0,.2-.083l-.076.01A.278.278,0,0,0,0,0" transform="translate(134.918 6868.204)"/>
    <path id="Path_12767" data-name="Path 12767" d="M0,0A4.881,4.881,0,0,0-.276-2.5a.293.293,0,0,0-.349-.2.286.286,0,0,0-.2.35A4.332,4.332,0,0,1-.548-.152.3.3,0,0,0-.35.2.287.287,0,0,0,0,0" transform="translate(141.313 6870.388)"/>
    <path id="Path_12768" data-name="Path 12768" d="M0,0C-2.054.613-4.156-.17-5.977-1.109c-.325-.167-.612.324-.287.491C-4.307.391-2.054,1.207.151.548A.284.284,0,0,0,0,0" transform="translate(139.086 6872.231)"/>
    <path id="Path_12769" data-name="Path 12769" d="M0,0Q-4.452.234-8.913.255q-1.26.007-2.519,0a.285.285,0,0,0,0,.569Q-6.974.858-2.517.684-1.257.635,0,.569C.364.55.366-.019,0,0" transform="translate(196.736 6912.938)"/>
    <path id="Path_12770" data-name="Path 12770" d="M0,0Q-4.454.234-8.913.255q-1.26.007-2.519,0a.285.285,0,0,0,0,.569Q-6.974.858-2.517.684-1.258.635,0,.569C.364.55.366-.019,0,0" transform="translate(146.626 6912.938)"/>
    <path id="Path_12839" data-name="Path 12839" d="M0,0-8.292-7.115a26.293,26.293,0,0,0-2.93,4.17l9.5,5.39A15.543,15.543,0,0,1,0,0" transform="translate(179.395 6848.14)" fill="#ff361e"/>
    <path id="Path_12840" data-name="Path 12840" d="M0,0A26.237,26.237,0,0,0-1.136,4.982L9.7,6.358a15.356,15.356,0,0,1,.662-2.9Z" transform="translate(166.096 6849.856)" fill="#ff361e"/>
    <path id="Path_12841" data-name="Path 12841" d="M0,0-4.974-9.728a26.2,26.2,0,0,0-4.3,2.755l6.763,8.581A15.432,15.432,0,0,1,0,0" transform="translate(184.057 6844.466)" fill="#ff361e"/>
    <path id="Path_12859" data-name="Path 12859" d="M0,0A10.9,10.9,0,0,1-.55-1.069a14.964,14.964,0,0,1,1.908-14.91,14.967,14.967,0,0,1,14.035-5.383c4.884.851,9.305,4.158,14.256,3.893a17.715,17.715,0,0,0,6.439-1.941,125.742,125.742,0,0,0,16.094-9.483A2.585,2.585,0,0,1,55-28.918a2.584,2.584,0,0,1,.344,4.095C50.562-20.5,45.466-16.54,40.379-12.582c-5.307,4.128-10.623,8.264-16.3,11.87a41.887,41.887,0,0,1-11.5,5.472,12.464,12.464,0,0,1-7.15.133A8.854,8.854,0,0,1,1.26,1.878" transform="translate(181.141 6872.523)" fill="#ff3b00"/>
    <path id="Path_12860" data-name="Path 12860" d="M0,0A15.961,15.961,0,0,1-25.3-2.677q-1.292-2.138-2.434-4.36a27.665,27.665,0,0,1-3.117-8.8,12.428,12.428,0,0,1,1.915-8.949A8.1,8.1,0,0,1-20.742-28.1a8.746,8.746,0,0,1,5.35,4.552,20.288,20.288,0,0,1,1.9,6.94A61.808,61.808,0,0,1-14.33,4.177C-11.985-.669-8.168-4.647-4.091-8.162c3.705-3.194,7.871-6.165,12.709-6.952a1.355,1.355,0,0,1,.407-.009c1,.142.979,1.366.687,2.2A20.184,20.184,0,0,1,6.387-7.411C4.7-5.217,2.453-2.609,0,0" transform="translate(222.747 6843.493)" fill="#ff3b00"/>
    <path id="Path_12861" data-name="Path 12861" d="M0,0A10.9,10.9,0,0,0,.55-1.069a14.966,14.966,0,0,0-1.908-14.91,14.968,14.968,0,0,0-14.035-5.383c-4.884.851-9.305,4.158-14.256,3.892a17.713,17.713,0,0,1-6.439-1.94,125.753,125.753,0,0,1-16.095-9.483A2.581,2.581,0,0,0-55-28.918a2.584,2.584,0,0,0-.344,4.095c4.781,4.318,9.878,8.283,14.965,12.241,5.307,4.128,10.623,8.263,16.3,11.87a41.881,41.881,0,0,0,11.5,5.472,12.468,12.468,0,0,0,7.151.133A8.868,8.868,0,0,0-1.26,1.878" transform="translate(142.631 6873.429)" fill="#ff3b00"/>
    <path id="Path_12862" data-name="Path 12862" d="M0,0A15.961,15.961,0,0,0,25.3-2.677q1.292-2.138,2.434-4.36a27.665,27.665,0,0,0,3.117-8.8,12.43,12.43,0,0,0-1.915-8.949A8.1,8.1,0,0,0,20.742-28.1a8.746,8.746,0,0,0-5.35,4.552,20.288,20.288,0,0,0-1.9,6.94A61.808,61.808,0,0,0,14.33,4.177C11.985-.668,8.168-4.647,4.091-8.162.386-11.356-3.78-14.327-8.618-15.113a1.317,1.317,0,0,0-.406-.01c-1,.142-.98,1.366-.688,2.2A20.2,20.2,0,0,0-6.387-7.41C-4.7-5.217-2.453-2.609,0,0" transform="translate(101.026 6844.399)" fill="#ff3b00"/>
    <path id="Path_12863" data-name="Path 12863" d="M0,0A18.248,18.248,0,0,1-7.515,4.822a18.29,18.29,0,0,1-8.453.723,18.351,18.351,0,0,1-7.914-3.2A18.01,18.01,0,0,1-27.154-.682a28.858,28.858,0,0,1-2.964-4.545c-2.093-3.71-4.118-7.627-4.935-11.844-.727-3.746-.358-7.89,1.867-11.092,1.952-2.807,5.582-4.685,9.023-3.962,3.689.775,6.132,4.112,7.275,7.5A31.06,31.06,0,0,1-15.622-18.4q.4,3.33.489,6.687a71.3,71.3,0,0,1-.925,13.469q-.267,1.61-.606,3.207c-.063.3.371.524.519.218A37.6,37.6,0,0,1-9.656-3.994c1.283-1.37,2.638-2.671,4.035-3.923s2.821-2.465,4.312-3.6a28.336,28.336,0,0,1,9.831-5.144q.666-.174,1.344-.3A1.423,1.423,0,0,1,11-16.88c.459.338.406,1.09.3,1.579a9.576,9.576,0,0,1-1.046,2.517A23.73,23.73,0,0,1,8.7-10.326a95.464,95.464,0,0,1-7.59,9.134Q.557-.592,0,0C-.25.266.151.669.4.4A113.554,113.554,0,0,0,8.5-9.1a21.92,21.92,0,0,0,3.079-5.193,3.823,3.823,0,0,0,.3-2.146,1.419,1.419,0,0,0-1.385-1.17,6.163,6.163,0,0,0-1.435.235q-.709.157-1.4.366a22.785,22.785,0,0,0-2.671,1A30.623,30.623,0,0,0-.05-13.129,56.254,56.254,0,0,0-4.616-9.553C-6.1-8.279-7.544-6.961-8.922-5.574a41.094,41.094,0,0,0-7.06,9.195q-.342.628-.654,1.272l.52.219A72.173,72.173,0,0,0-14.551-8.632q.06-3.489-.221-6.973a52.9,52.9,0,0,0-.878-6.6c-.794-3.777-2.545-7.642-6.063-9.6a8.209,8.209,0,0,0-5.167-.949,9.962,9.962,0,0,0-4.829,2.175c-3.039,2.468-4.3,6.477-4.251,10.286.053,4.31,1.726,8.4,3.652,12.183A66.443,66.443,0,0,0-29.047-2.3a18.914,18.914,0,0,0,3.021,3.62,18.731,18.731,0,0,0,7.791,4.323,19.026,19.026,0,0,0,8.787.279A18.669,18.669,0,0,0-1.293,2,19.2,19.2,0,0,0,.4.4C.653.136.252-.267,0,0" transform="translate(225.827 6842.505)"/>
    <path id="Path_12864" data-name="Path 12864" d="M0,0A.285.285,0,0,0,0-.569.285.285,0,0,0,0,0" transform="translate(181.171 6872.582)"/>
    <path id="Path_12865" data-name="Path 12865" d="M0,0A15.3,15.3,0,0,1-.631-13.052a15.07,15.07,0,0,1,9.4-8.583A15.391,15.391,0,0,1,15.16-22.3,26.937,26.937,0,0,1,22-20.268a29.433,29.433,0,0,0,6.824,2.1,14.327,14.327,0,0,0,7.4-1.168,66.2,66.2,0,0,0,7.145-3.534c2.363-1.316,4.671-2.728,6.95-4.185q1.711-1.094,3.4-2.214c1-.659,2.009-1.574,3.3-1.279A2.474,2.474,0,0,1,58.9-28.594a2.477,2.477,0,0,1-.122,1.326,3.052,3.052,0,0,1-.909,1.17c-4.116,3.7-8.443,7.154-12.8,10.56C40.745-12.164,36.435-8.772,32-5.562c-2.226,1.61-4.489,3.17-6.806,4.646A60.264,60.264,0,0,1,18.4,2.9a28.43,28.43,0,0,1-7.424,2.44A10.326,10.326,0,0,1,3.7,4.144,10,10,0,0,1,1.289,1.93c-.23-.285-.63.119-.4.4a9.723,9.723,0,0,0,5.9,3.6A16.54,16.54,0,0,0,14.678,5c5.148-1.683,9.795-4.66,14.235-7.7,4.65-3.182,9.1-6.64,13.548-10.1,4.5-3.5,9.008-7,13.33-10.724q.8-.685,1.585-1.381a12.928,12.928,0,0,0,1.418-1.308,3.049,3.049,0,0,0,.627-2.643,3.027,3.027,0,0,0-1.74-2.069,3.033,3.033,0,0,0-1.662-.211,4.079,4.079,0,0,0-1.653.764,145.688,145.688,0,0,1-14.271,8.6,27.964,27.964,0,0,1-7.647,2.984,14.59,14.59,0,0,1-7.328-.907c-2.346-.815-4.6-1.88-6.99-2.575a16.188,16.188,0,0,0-6.778-.547A16.023,16.023,0,0,0,.3-16.018,16.229,16.229,0,0,0-1.789-2.853,13.987,13.987,0,0,0-.491.287.285.285,0,0,0,0,0" transform="translate(181.374 6872.03)"/>
    <path id="Path_12866" data-name="Path 12866" d="M0,0A27.884,27.884,0,0,1-7.961-3.035,11.427,11.427,0,0,1-12.71-8.444a10.28,10.28,0,0,1-.592-4.191,10.332,10.332,0,0,1,.739-3.471,6.037,6.037,0,0,1,2.043-2.661,5.9,5.9,0,0,1,3.511-.967A12.433,12.433,0,0,1,.109-16.823,25.7,25.7,0,0,1,3.02-14.137c.853.9,1.679,1.836,2.606,2.665A9.479,9.479,0,0,0,8.712-9.531a9.192,9.192,0,0,0,3.936.345c1.365-.125,2.717-.385,4.089-.425a5.654,5.654,0,0,1,3.659.86,2.581,2.581,0,0,1,.458,3.3,7.333,7.333,0,0,1-2.8,2.646A18.268,18.268,0,0,1,9.869-.725c-.747.049-1.494.083-2.241.117-.364.017-.366.585,0,.569,3.029-.138,6.142-.284,8.987-1.433a11.4,11.4,0,0,0,3.492-2.149,4.561,4.561,0,0,0,1.7-3.527,2.8,2.8,0,0,0-.764-1.78,3.87,3.87,0,0,0-1.651-.95,10.144,10.144,0,0,0-4.128-.189,30.669,30.669,0,0,1-4.2.375,7,7,0,0,1-3.654-1.114,15.635,15.635,0,0,1-2.847-2.511c-.909-.959-1.792-1.94-2.773-2.828A15.582,15.582,0,0,0-5.3-20.1a8,8,0,0,0-3.935.092,5.832,5.832,0,0,0-2.988,2.142,8.476,8.476,0,0,0-1.409,3.321,12.359,12.359,0,0,0-.149,4.176,10.607,10.607,0,0,0,3.9,6.652A20.892,20.892,0,0,0-2.231-.015c.69.2,1.384.385,2.08.563A.284.284,0,0,0,0,0" transform="translate(176.601 6892.491)"/>
    <path id="Path_12867" data-name="Path 12867" d="M0,0C2.742,1.024,4.591,3.488,7.069,4.949a6.971,6.971,0,0,0,3.785,1.092A4.7,4.7,0,0,0,14.043,4.73,3.648,3.648,0,0,0,14.6.509c-.173-.322-.665-.035-.491.287A3.065,3.065,0,0,1,13.756,4.2a4.023,4.023,0,0,1-2.843,1.267c-2.7.142-4.864-1.865-6.794-3.475A13.966,13.966,0,0,0,.151-.548a.287.287,0,0,0-.35.2A.291.291,0,0,0,0,0" transform="translate(172.088 6891.737)"/>
    <path id="Path_12868" data-name="Path 12868" d="M0,0A5.825,5.825,0,0,0-2.37,2.692a6.477,6.477,0,0,0-.445,3.723,7.7,7.7,0,0,0,4.807,5.8,6.075,6.075,0,0,0,1.875.378,6.112,6.112,0,0,0,2.017-.3c.69-.213,1.357-.495,2.052-.69a6.117,6.117,0,0,1,3.936.2,9.993,9.993,0,0,1,1.693.96,3.856,3.856,0,0,0,1.8.7,5.72,5.72,0,0,0,2.214-.543c.742-.263,1.485-.522,2.224-.79a3.776,3.776,0,0,0,1.764-1.158,1.56,1.56,0,0,0,.351-1.458,1.58,1.58,0,0,0-.955-.925,1.9,1.9,0,0,0-.655-.126.285.285,0,0,0,0,.569,1.26,1.26,0,0,1,.922.4.853.853,0,0,1,.126.2c0,.007.02.049,0,.008.008.021.016.044.023.066s.012.044.018.067c0,0,.016.09.009.037a.865.865,0,0,1-.111.544,2.67,2.67,0,0,1-1.413,1.141c-.686.271-1.391.5-2.086.746-.352.125-.7.252-1.057.375a4.715,4.715,0,0,1-.987.269,2.645,2.645,0,0,1-1.689-.478c-.527-.318-1.021-.686-1.579-.951a6.683,6.683,0,0,0-1.858-.571,6.83,6.83,0,0,0-1.973-.011,9.955,9.955,0,0,0-1.95.542,10.379,10.379,0,0,1-1.974.568,4.948,4.948,0,0,1-1.7-.061A7.015,7.015,0,0,1-2.033,7.211a6.066,6.066,0,0,1-.106-3.492A5.56,5.56,0,0,1-.388.96,4.7,4.7,0,0,1,.287.491.285.285,0,0,0,0,0" transform="translate(170.429 6875.076)"/>
    <path id="Path_12869" data-name="Path 12869" d="M0,0A3.572,3.572,0,0,1,3.5-.895,8.1,8.1,0,0,1,5.247.186,16.469,16.469,0,0,0,6.655,1.248a3.537,3.537,0,0,0,1.875.543.285.285,0,0,0,0-.569A2.934,2.934,0,0,1,6.957.766,16.484,16.484,0,0,1,5.53-.309,8.132,8.132,0,0,0,3.65-1.444a3.246,3.246,0,0,0-2.181-.014A5.358,5.358,0,0,0-.4-.4.287.287,0,0,0-.4,0,.29.29,0,0,0,0,0" transform="translate(169.648 6884.91)"/>
    <path id="Path_12870" data-name="Path 12870" d="M0,0A30.873,30.873,0,0,1,1.962,6.2a30.1,30.1,0,0,1,.592,6.436c-.015.962-.085,1.918-.176,2.875a.286.286,0,0,0,.284.284.291.291,0,0,0,.285-.284,33.037,33.037,0,0,0,.08-5.8,30.889,30.889,0,0,0-1.232-6.5,32.409,32.409,0,0,0-1.3-3.5A.286.286,0,0,0,.1-.389.292.292,0,0,0,0,0" transform="translate(183.095 6897.74)"/>
    <path id="Path_12871" data-name="Path 12871" d="M0,0A23.136,23.136,0,0,1-8.275.286a9.5,9.5,0,0,1-3.538-1.51,10.536,10.536,0,0,1-2.495-2.517A13.523,13.523,0,0,1-16.12-7.36c-.116.117-.233.233-.349.349,2.63.719,5.406.515,8.041,1.189A11.181,11.181,0,0,1-5.449-4.516,17.656,17.656,0,0,1-2.617-2.377,15.884,15.884,0,0,1-.17.418c.2.3.7.017.491-.287a17.638,17.638,0,0,0-5.055-4.87,12.866,12.866,0,0,0-3.095-1.5,18.924,18.924,0,0,0-3.909-.649,26.764,26.764,0,0,1-4.58-.667.287.287,0,0,0-.35.35A12.817,12.817,0,0,0-12.5-1.032,9.865,9.865,0,0,0-8.949.711a14.587,14.587,0,0,0,4.232.394A41.47,41.47,0,0,0,.151.548.287.287,0,0,0,.35.2.292.292,0,0,0,0,0" transform="translate(182.752 6902.519)"/>
    <path id="Path_12872" data-name="Path 12872" d="M0,0A14.533,14.533,0,0,1,3.105-2.477,16.106,16.106,0,0,1,6.788-4.09a15.485,15.485,0,0,1,3.972-.644,13.289,13.289,0,0,1,3.926.457A11.313,11.313,0,0,1,18.233-2.6a10.286,10.286,0,0,1,2.7,2.819,12.458,12.458,0,0,1,1.535,3.6,15.132,15.132,0,0,1,.472,4.043,14.045,14.045,0,0,1-.637,4.007,10.47,10.47,0,0,1-1.78,3.408,9.215,9.215,0,0,1-.627.7.284.284,0,0,0,.4.4A10.372,10.372,0,0,0,22.5,13.005a13.755,13.755,0,0,0,.96-4.078,15.838,15.838,0,0,0-.213-4.248A13.9,13.9,0,0,0,21.908.758,10.825,10.825,0,0,0,19.4-2.4a11.654,11.654,0,0,0-3.577-2.105A13.246,13.246,0,0,0,11.8-5.3,15.636,15.636,0,0,0,7.654-4.9,16.8,16.8,0,0,0,3.716-3.466,15.61,15.61,0,0,0,.3-1.1C.058-.873-.176-.641-.4-.4c-.252.266.15.668.4.4" transform="translate(181.029 6858.325)"/>
    <path id="Path_12873" data-name="Path 12873" d="M0,0A9.233,9.233,0,0,1,1.659,4.379c.072.447.13.9.186,1.345a.293.293,0,0,0,.284.284.287.287,0,0,0,.285-.284A14.7,14.7,0,0,0,1.194.818,7.1,7.1,0,0,0,.4-.4.286.286,0,0,0,0-.4.291.291,0,0,0,0,0" transform="translate(231.852 6844.815)"/>
    <path id="Path_12874" data-name="Path 12874" d="M0,0C-1.641,2.176-3.6,4.081-5.395,6.126c-.448.511-.886,1.032-1.306,1.566-.221.282-.434.569-.65.854a2.153,2.153,0,0,0-.5.9.786.786,0,0,0,.373.832,1.283,1.283,0,0,0,1.022-.107A10.333,10.333,0,0,0-4.632,9.158,29.449,29.449,0,0,0-.9,6.072c.269-.249-.134-.65-.4-.4A33.121,33.121,0,0,1-4.392,8.305a16.036,16.036,0,0,1-1.7,1.058,4.133,4.133,0,0,1-.859.37c-.081.022-.208.077-.283.029s-.077-.183-.056-.264a1.1,1.1,0,0,1,.2-.367c.1-.143.213-.282.318-.424q.282-.381.577-.753c.4-.506.82-1,1.247-1.483.848-.965,1.73-1.9,2.6-2.844C-1.356,2.551-.389,1.454.491.287A.286.286,0,0,0,.389-.1.291.291,0,0,0,0,0" transform="translate(186.887 6865.364)"/>
    <path id="Path_12875" data-name="Path 12875" d="M0,0-.06-.071A.215.215,0,0,0-.152-.13.215.215,0,0,0-.261-.154a.219.219,0,0,0-.11.024.217.217,0,0,0-.091.059l-.044.058A.277.277,0,0,0-.545.13l.01.076A.278.278,0,0,0-.462.331L-.4.4A.217.217,0,0,0-.311.461.22.22,0,0,0-.2.486.214.214,0,0,0-.092.461.215.215,0,0,0,0,.4L.044.345A.283.283,0,0,0,.083.2L.073.125A.288.288,0,0,0,0,0" transform="translate(184.389 6865.132)"/>
    <path id="Path_12876" data-name="Path 12876" d="M0,0,.06.071A.215.215,0,0,0,.152.13.213.213,0,0,0,.261.154.219.219,0,0,0,.371.13.217.217,0,0,0,.462.071L.506.013A.277.277,0,0,0,.545-.13L.535-.206A.278.278,0,0,0,.462-.331L.4-.4A.215.215,0,0,0,.31-.461.205.205,0,0,0,.2-.485a.209.209,0,0,0-.11.024A.217.217,0,0,0,0-.4l-.044.057A.283.283,0,0,0-.083-.2l.01.076A.278.278,0,0,0,0,0" transform="translate(188.538 6868.606)"/>
    <path id="Path_12877" data-name="Path 12877" d="M0,0A4.319,4.319,0,0,1,.276-2.195a.288.288,0,0,0-.2-.351.293.293,0,0,0-.35.2A4.884,4.884,0,0,0-.548.152.286.286,0,0,0-.2.35.292.292,0,0,0,0,0" transform="translate(183.094 6870.235)"/>
    <path id="Path_12878" data-name="Path 12878" d="M0,0C2.2.658,4.458-.158,6.415-1.166c.325-.168.038-.658-.287-.491C4.307-.719,2.2.065.151-.548A.284.284,0,0,0,0,0" transform="translate(184.621 6872.78)"/>
    <path id="Path_12879" data-name="Path 12879" d="M0,0A18.857,18.857,0,0,0,7.766,4.969a18.944,18.944,0,0,0,8.784.719,18.718,18.718,0,0,0,8.165-3.356A18.624,18.624,0,0,0,28.077-.824a31.265,31.265,0,0,0,3.067-4.754c2.134-3.813,4.2-7.858,4.944-12.206.657-3.846.186-8.1-2.185-11.312A9.745,9.745,0,0,0,24.55-33.1c-3.781.72-6.4,4.047-7.654,7.486a28.867,28.867,0,0,0-1.374,6.273q-.444,3.462-.548,6.955a72.077,72.077,0,0,0,.923,13.8q.271,1.654.621,3.3l.52-.219A38.315,38.315,0,0,0,10.3-4.972C8.962-6.385,7.551-7.724,6.1-9.013s-2.93-2.527-4.482-3.681a27.442,27.442,0,0,0-10.31-5.087c-.764-.168-1.735-.466-2.374.158a2.129,2.129,0,0,0-.418,1.852,8.511,8.511,0,0,0,.949,2.506A21.692,21.692,0,0,0-8.955-10.68,92.74,92.74,0,0,0-1.139-1.225Q-.574-.609,0,0C.251.267.652-.135.4-.4A113.892,113.892,0,0,1-7.454-9.586a22.84,22.84,0,0,1-3.065-4.988,3.843,3.843,0,0,1-.418-2.062.973.973,0,0,1,.362-.66,1.459,1.459,0,0,1,1.112-.062A25.572,25.572,0,0,1,.588-12.742c1.525,1.086,2.976,2.273,4.389,3.5s2.817,2.52,4.142,3.868a40.151,40.151,0,0,1,6.793,8.916q.331.61.635,1.236c.147.3.583.082.519-.219A71.328,71.328,0,0,1,15.525-8.853c-.044-2.235.017-4.473.182-6.7a54.833,54.833,0,0,1,.818-6.526c.727-3.7,2.3-7.533,5.694-9.528A7.612,7.612,0,0,1,27.2-32.6a9.464,9.464,0,0,1,4.673,2.154c2.914,2.466,4.036,6.389,3.914,10.1-.138,4.2-1.829,8.168-3.723,11.852a62.7,62.7,0,0,1-3.174,5.614A18.258,18.258,0,0,1,25.937.6,18.107,18.107,0,0,1,18.4,4.72a18.388,18.388,0,0,1-8.458.245,18.087,18.087,0,0,1-7.9-3.812A19.351,19.351,0,0,1,.4-.4C.15-.669-.251-.266,0,0" transform="translate(97.628 6842.906)"/>
    <path id="Path_12880" data-name="Path 12880" d="M0,0A.285.285,0,0,0,0-.569.285.285,0,0,0,0,0" transform="translate(142.687 6872.582)"/>
    <path id="Path_12881" data-name="Path 12881" d="M0,0A15.828,15.828,0,0,0,.756-13.32a15.65,15.65,0,0,0-9.44-9.008,15.889,15.889,0,0,0-6.567-.869,24.808,24.808,0,0,0-6.976,1.929,32.043,32.043,0,0,1-7.05,2.243,11.593,11.593,0,0,1-3.768-.06A18.767,18.767,0,0,1-37-20.348a98.9,98.9,0,0,1-14.507-8.111Q-53.26-29.593-55-30.747a3.683,3.683,0,0,0-1.589-.682,3.036,3.036,0,0,0-1.672.259,3.046,3.046,0,0,0-.976,4.734,16.362,16.362,0,0,0,1.5,1.361q.787.695,1.585,1.38,1.617,1.387,3.265,2.74c2.2,1.806,4.425,3.57,6.665,5.322,4.443,3.476,8.879,6.97,13.451,10.275,2.285,1.653,4.609,3.253,6.991,4.764A58.3,58.3,0,0,0-18.8,3.287a27.6,27.6,0,0,0,7.643,2.388A10.654,10.654,0,0,0-3.824,4.3,10.487,10.487,0,0,0-1.378,2.045c.227-.283-.173-.687-.4-.4A9.253,9.253,0,0,1-7.639,5.137,16.737,16.737,0,0,1-15.421,4.03C-20.4,2.329-24.9-.585-29.21-3.54c-4.53-3.105-8.873-6.47-13.206-9.841-4.367-3.4-8.739-6.791-12.947-10.384q-1.556-1.328-3.077-2.695a2.557,2.557,0,0,1-.931-2.492,2.472,2.472,0,0,1,1.949-1.9c1.3-.246,2.341.728,3.345,1.39a133.008,133.008,0,0,0,13.9,8.25,25.569,25.569,0,0,0,7.407,2.744,15.013,15.013,0,0,0,7.033-.864c2.275-.767,4.456-1.792,6.747-2.513a16.142,16.142,0,0,1,6.63-.748A15.471,15.471,0,0,1-1.385-16.17,15.665,15.665,0,0,1,.774-3.379,13.39,13.39,0,0,1-.491-.287.285.285,0,0,0,0,0" transform="translate(142.975 6872.317)"/>
    <path id="Path_12882" data-name="Path 12882" d="M0,0A27.99,27.99,0,0,0,8.212-3.165a11.983,11.983,0,0,0,4.914-5.727,10.779,10.779,0,0,0,.588-4.389,10.858,10.858,0,0,0-.8-3.627,6.647,6.647,0,0,0-2.158-2.824,6.294,6.294,0,0,0-3.675-1.12A12.62,12.62,0,0,0-.4-17.978a25.253,25.253,0,0,0-3.066,2.772c-.881.927-1.727,1.891-2.678,2.747a8.585,8.585,0,0,1-3.13,1.916,9.96,9.96,0,0,1-4.1.18,28.918,28.918,0,0,0-4.2-.365,5.175,5.175,0,0,0-3.66,1.29,3.235,3.235,0,0,0-.249,3.752,7.867,7.867,0,0,0,2.918,2.78,18.665,18.665,0,0,0,8.477,2.2c.769.052,1.539.088,2.309.123.365.016.364-.553,0-.569a27,27,0,0,1-8.7-1.358,10.743,10.743,0,0,1-3.357-2.038,3.955,3.955,0,0,1-1.544-3.291,2.832,2.832,0,0,1,2.554-2.178,12.536,12.536,0,0,1,4.04.05,19.877,19.877,0,0,0,4.067.274A7.488,7.488,0,0,0-7.189-10.92c2.111-1.388,3.614-3.493,5.45-5.192a15.492,15.492,0,0,1,6.76-3.931,7.606,7.606,0,0,1,3.75-.015,5.212,5.212,0,0,1,2.823,1.947,8.122,8.122,0,0,1,1.342,3.19,11.59,11.59,0,0,1,.121,4.009,9.134,9.134,0,0,1-1.343,3.578A11.689,11.689,0,0,1,9.259-4.619,20.427,20.427,0,0,1,1.868-1.094C1.2-.9.524-.721-.151-.548A.284.284,0,0,0,0,0" transform="translate(147.408 6893.04)"/>
    <path id="Path_12883" data-name="Path 12883" d="M0,0C-2.666,1-4.488,3.273-6.834,4.778a6.935,6.935,0,0,1-3.533,1.246,4.281,4.281,0,0,1-2.96-.99,3.065,3.065,0,0,1-.63-3.69c.173-.322-.317-.609-.491-.287a3.646,3.646,0,0,0,.264,3.875,4.441,4.441,0,0,0,3.067,1.624C-8.268,6.9-5.9,4.907-3.867,3.2A14.21,14.21,0,0,1,.151.548.292.292,0,0,0,.35.2.286.286,0,0,0,0,0" transform="translate(151.619 6891.189)"/>
    <path id="Path_12884" data-name="Path 12884" d="M0,0A5.634,5.634,0,0,1,2.537,5.865,7.137,7.137,0,0,1-1.9,11.188a5.514,5.514,0,0,1-1.726.344,5.692,5.692,0,0,1-1.87-.293c-.656-.2-1.292-.47-1.953-.66a6.8,6.8,0,0,0-1.934-.27,6.863,6.863,0,0,0-3.64,1.116,6.9,6.9,0,0,1-1.565.876,2.928,2.928,0,0,1-1.921-.2q-1.061-.375-2.121-.753a5.578,5.578,0,0,1-1.837-.848,2.229,2.229,0,0,1-.555-.66.886.886,0,0,1-.1-.518.809.809,0,0,1,.191-.394,1.088,1.088,0,0,1,.421-.294c-.046.02.043-.015.042-.015l.056-.019c.048-.015.1-.027.144-.038a1,1,0,0,1,.249-.026.285.285,0,0,0,0-.569,1.559,1.559,0,0,0-1.643,1.751,2.527,2.527,0,0,0,1.178,1.469,5.033,5.033,0,0,0,.969.447c.369.133.74.262,1.109.394.734.261,1.464.549,2.21.775a3.231,3.231,0,0,0,1.12.164,2.887,2.887,0,0,0,.962-.242,14.156,14.156,0,0,0,1.655-.982,6.1,6.1,0,0,1,1.843-.729,6.166,6.166,0,0,1,1.982-.1,8.829,8.829,0,0,1,2.016.537,10.671,10.671,0,0,0,2.067.592,5.69,5.69,0,0,0,1.939-.062,7.586,7.586,0,0,0,5.483-5.11,6.621,6.621,0,0,0,.106-3.8A6.075,6.075,0,0,0,1.044.04,5.685,5.685,0,0,0,.287-.491.285.285,0,0,0,0,0" transform="translate(153.142 6875.567)"/>
    <path id="Path_12885" data-name="Path 12885" d="M0,0A4.276,4.276,0,0,0-3.836-1.118,6.567,6.567,0,0,0-5.773-.027C-6.255.334-6.7.736-7.2,1.068a3.027,3.027,0,0,1-1.73.556.285.285,0,0,0,0,.569,3.479,3.479,0,0,0,1.7-.441,10.424,10.424,0,0,0,1.4-1.02,9.585,9.585,0,0,1,1.69-1.11,2.539,2.539,0,0,1,.994-.289,3.057,3.057,0,0,1,1,.123A4.7,4.7,0,0,1-.4.4.292.292,0,0,0,0,.4.287.287,0,0,0,0,0" transform="translate(154.613 6884.508)"/>
    <path id="Path_12886" data-name="Path 12886" d="M0,0A31.574,31.574,0,0,0-2.015,6.313,30.937,30.937,0,0,0-2.632,12.9c.014.97.085,1.935.176,2.9a.294.294,0,0,0,.285.285.287.287,0,0,0,.284-.285,32.914,32.914,0,0,1-.086-5.72A30.206,30.206,0,0,1-.779,3.731,31.225,31.225,0,0,1,.491.287.294.294,0,0,0,.389-.1.287.287,0,0,0,0,0" transform="translate(140.272 6897.453)"/>
    <path id="Path_12887" data-name="Path 12887" d="M0,0C2.836.444,5.779.885,8.625.276a9.918,9.918,0,0,0,3.661-1.582,11.334,11.334,0,0,0,2.638-2.661,13.978,13.978,0,0,0,1.9-3.79.287.287,0,0,0-.35-.35c-2.66.726-5.477.5-8.138,1.213a11.977,11.977,0,0,0-3.1,1.386,18.494,18.494,0,0,0-2.886,2.2A16.5,16.5,0,0,0-.17-.418c-.2.305.288.59.491.287a15.468,15.468,0,0,1,2.145-2.51A18.033,18.033,0,0,1,5.23-4.834,12.146,12.146,0,0,1,8.21-6.267a19.329,19.329,0,0,1,3.865-.623,26.38,26.38,0,0,0,4.546-.669l-.351-.349a12.212,12.212,0,0,1-3.985,5.9A9.318,9.318,0,0,1,8.9-.373a14.2,14.2,0,0,1-4.084.36A40.873,40.873,0,0,1,.151-.548a.294.294,0,0,0-.35.2A.287.287,0,0,0,0,0" transform="translate(140.955 6903.066)"/>
    <path id="Path_12888" data-name="Path 12888" d="M0,0A15.1,15.1,0,0,0-3.22-2.565,16.693,16.693,0,0,0-7.075-4.247,16.15,16.15,0,0,0-11.2-4.9a13.865,13.865,0,0,0-4.094.492,11.777,11.777,0,0,0-3.69,1.761A11.007,11.007,0,0,0-21.829.33a12.989,12.989,0,0,0-1.6,3.758A15.793,15.793,0,0,0-23.913,8.3a14.6,14.6,0,0,0,.668,4.155,11.156,11.156,0,0,0,1.9,3.61,8.789,8.789,0,0,0,.638.711.284.284,0,0,0,.4-.4,9.688,9.688,0,0,1-2.076-3.189,13.279,13.279,0,0,1-.916-3.9,15.283,15.283,0,0,1,.2-4.1,13.379,13.379,0,0,1,1.279-3.764A10.363,10.363,0,0,1-19.4-1.6a10.93,10.93,0,0,1,3.395-1.984,12.755,12.755,0,0,1,3.866-.746,15.078,15.078,0,0,1,3.973.382,16.184,16.184,0,0,1,3.8,1.389A15.021,15.021,0,0,1-1.091-.278Q-.734.05-.4.4C-.15.668.251.266,0,0" transform="translate(143.231 6857.923)"/>
    <path id="Path_12889" data-name="Path 12889" d="M0,0A9.742,9.742,0,0,0-1.809,4.653c-.078.489-.142.981-.2,1.473a.286.286,0,0,0,.284.284.291.291,0,0,0,.284-.284,13.915,13.915,0,0,1,1.132-4.6A6.5,6.5,0,0,1,.4.4.293.293,0,0,0,.4,0,.286.286,0,0,0,0,0" transform="translate(97.29 6844.414)"/>
    <path id="Path_12890" data-name="Path 12890" d="M0,0C1.563,2.073,3.4,3.908,5.128,5.84a37.854,37.854,0,0,1,2.447,3c.092.128.359.485.147.631-.071.049-.207-.008-.284-.029a3.266,3.266,0,0,1-.453-.165A11.873,11.873,0,0,1,5.3,8.306a29.2,29.2,0,0,1-3.5-2.923c-.268-.249-.671.152-.4.4A32.868,32.868,0,0,0,4.7,8.586,14.431,14.431,0,0,0,6.493,9.673c.524.265,1.474.716,1.8-.046a1.023,1.023,0,0,0-.152-.963c-.192-.289-.413-.562-.623-.838C7.1,7.272,6.657,6.733,6.2,6.2c-.886-1.032-1.82-2.022-2.742-3.022C2.429,2.063,1.408.929.491-.287A.293.293,0,0,0,.1-.389.286.286,0,0,0,0,0" transform="translate(136.48 6865.651)"/>
    <path id="Path_12891" data-name="Path 12891" d="M0,0,.06-.071A.211.211,0,0,0,.119-.162.207.207,0,0,0,.143-.271a.207.207,0,0,0-.024-.11A.221.221,0,0,0,.06-.473L0-.517A.277.277,0,0,0-.141-.556l-.076.01a.3.3,0,0,0-.125.073L-.4-.4A.206.206,0,0,0-.461-.31.216.216,0,0,0-.486-.2a.22.22,0,0,0,.025.11A.2.2,0,0,0-.4,0l.057.045A.282.282,0,0,0-.2.083l.076-.01A.284.284,0,0,0,0,0" transform="translate(139.871 6865.533)"/>
    <path id="Path_12892" data-name="Path 12892" d="M0,0-.06.071A.211.211,0,0,0-.119.162.207.207,0,0,0-.143.271a.207.207,0,0,0,.024.11A.221.221,0,0,0-.06.473L0,.517A.274.274,0,0,0,.141.556L.217.546A.288.288,0,0,0,.342.473L.4.4A.206.206,0,0,0,.461.31.205.205,0,0,0,.485.2.209.209,0,0,0,.461.091.2.2,0,0,0,.4,0L.345-.045A.282.282,0,0,0,.2-.083l-.076.01A.278.278,0,0,0,0,0" transform="translate(134.918 6868.204)"/>
    <path id="Path_12893" data-name="Path 12893" d="M0,0A4.881,4.881,0,0,0-.276-2.5a.293.293,0,0,0-.349-.2.286.286,0,0,0-.2.35A4.332,4.332,0,0,1-.548-.152.3.3,0,0,0-.35.2.287.287,0,0,0,0,0" transform="translate(141.313 6870.388)"/>
    <path id="Path_12894" data-name="Path 12894" d="M0,0C-2.054.613-4.156-.17-5.977-1.109c-.325-.167-.612.324-.287.491C-4.307.391-2.054,1.207.151.548A.284.284,0,0,0,0,0" transform="translate(139.086 6872.231)"/>
    <path id="Path_12895" data-name="Path 12895" d="M0,0Q-4.452.234-8.913.255q-1.26.007-2.519,0a.285.285,0,0,0,0,.569Q-6.974.858-2.517.684-1.257.635,0,.569C.364.55.366-.019,0,0" transform="translate(196.736 6912.938)"/>
    <path id="Path_12896" data-name="Path 12896" d="M0,0Q-4.454.234-8.913.255q-1.26.007-2.519,0a.285.285,0,0,0,0,.569Q-6.974.858-2.517.684-1.258.635,0,.569C.364.55.366-.019,0,0" transform="translate(146.626 6912.938)"/>
    <path id="Path_12965" data-name="Path 12965" d="M0,0-8.292-7.115a26.293,26.293,0,0,0-2.93,4.17l9.5,5.39A15.543,15.543,0,0,1,0,0" transform="translate(179.395 6848.14)" fill="#ff361e"/>
    <path id="Path_12966" data-name="Path 12966" d="M0,0A26.237,26.237,0,0,0-1.136,4.982L9.7,6.358a15.356,15.356,0,0,1,.662-2.9Z" transform="translate(166.096 6849.856)" fill="#ff361e"/>
    <path id="Path_12967" data-name="Path 12967" d="M0,0-4.974-9.728a26.2,26.2,0,0,0-4.3,2.755l6.763,8.581A15.432,15.432,0,0,1,0,0" transform="translate(184.057 6844.466)" fill="#ff361e"/>
  </g>
</svg>
