<svg xmlns="http://www.w3.org/2000/svg" width="158.622" height="133.935" viewBox="0 0 158.622 133.935">
  <g id="Group_42920" data-name="Group 42920" transform="translate(-273.224 -6922.331)">
    <path id="Path_12954" data-name="Path 12954" d="M0,0A42.091,42.091,0,0,0-4.768-.438Q-5.44-.462-6.114-.462a.227.227,0,0,0,0,.453A41.521,41.521,0,0,1-1.437.263Q-.777.34-.12.437A.233.233,0,0,0,.158.279.229.229,0,0,0,0,0" transform="translate(409.682 6929.271)"/>
    <g id="Group_42919" data-name="Group 42919">
      <path id="Path_12791" data-name="Path 12791" d="M0,0C.231-.659.877-1.709-.082-2.7A15.4,15.4,0,0,0-5.088-5.222a.7.7,0,0,0-.335-.04.6.6,0,0,0-.316.286A15.8,15.8,0,0,0-7.512-.369a27.088,27.088,0,0,0-.973,5.9,1.344,1.344,0,0,0,1,1.367l2.982.8a1.3,1.3,0,0,0,1.6-.953" transform="translate(414.667 6953.635)" fill="#ff3b00"/>
      <path id="Path_12792" data-name="Path 12792" d="M0,0Q-.746.808-1.431,1.652C-5.764,6.973-9.078,13.991-5.624,20.669c2.331,4.506,7.584,7.072,12.657,6.957s9.888-2.6,13.589-6.074a28.5,28.5,0,0,0,8.23-14.329,14.924,14.924,0,0,0,.063-7.568c-1.67-5.587-8.15-8.716-13.945-8.064C9.116-7.749,3.945-4.28,0,0" transform="translate(285.713 7022.348)" fill="#ff3b00"/>
      <path id="Path_12793" data-name="Path 12793" d="M0,0Q-.746.808-1.431,1.652C-5.764,6.973-9.078,13.991-5.624,20.669c2.331,4.506,7.584,7.072,12.657,6.957s9.888-2.6,13.589-6.074a28.5,28.5,0,0,0,8.23-14.329,14.924,14.924,0,0,0,.063-7.568c-1.67-5.587-8.15-8.717-13.945-8.064C9.116-7.749,3.945-4.28,0,0" transform="translate(332.509 7028.197)" fill="#ff3b00"/>
      <path id="Path_12794" data-name="Path 12794" d="M0,0C-.006-.033-.01-.066-.015-.1c0-.01,0,.035,0-.01,0-.021,0-.043-.007-.065-.011-.1-.02-.189-.028-.285-.019-.225-.031-.451-.041-.678-.025-.541-.035-1.084-.034-1.627,0-.5.007-1,.039-1.493a4.371,4.371,0,0,1,.3-1.536,1.581,1.581,0,0,1,.549-.66c.309-.214.645-.384.953-.6A11.327,11.327,0,0,0,3.417-8.515a9.273,9.273,0,0,0,2.2-3.773,8.33,8.33,0,0,0-.19-4.621c-.025-.085-.051-.169-.078-.253-.016-.049-.032-.1-.049-.147a.326.326,0,0,0-.022-.062c-.014-.027,0-.066-.022-.014-.02.032-.039.065-.057.1-.04.036-.013.01.006,0s.041-.022.062-.033c.038-.02.074-.041.112-.06a3.4,3.4,0,0,0,.541-.321,3.521,3.521,0,0,0,.832-.914,1.183,1.183,0,0,0,.21-1.132.8.8,0,0,0-.93-.394A3.21,3.21,0,0,1,3.8-20.389a6.318,6.318,0,0,1-.954-.7c-.343-.287-.692-.566-1.043-.844q-.624-.494-1.261-.972c-.347-.261-.69-.543-1.061-.771-.242-.148-.464.233-.222.381.19.117.366.255.547.388q.387.285.77.577.744.564,1.47,1.152c.43.347.841.728,1.3,1.034a3.285,3.285,0,0,0,1.633.531,3.87,3.87,0,0,0,.753-.025c.116-.015.232-.033.347-.057a.558.558,0,0,1,.286-.019c.517.16.057.827-.123,1.074a2.8,2.8,0,0,1-.556.574,4.076,4.076,0,0,1-.582.34c-.05.026-.1.05-.15.08a.3.3,0,0,0-.1.4c.1.292.19.589.265.888A10.183,10.183,0,0,1,5.4-14.6a5.984,5.984,0,0,1-.109,1.816A8.586,8.586,0,0,1,3.822-9.673a10.092,10.092,0,0,1-2.513,2.36A4.374,4.374,0,0,0,0-6.322,3.033,3.033,0,0,0-.454-4.989,16.634,16.634,0,0,0-.568-2.638c0,.787.014,1.58.093,2.364.013.131.028.262.05.391A.223.223,0,0,0-.154.271.226.226,0,0,0,0,0" transform="translate(401.649 6948.104)"/>
      <path id="Path_12795" data-name="Path 12795" d="M0,0A3.8,3.8,0,0,1-1.237,1.47a3.017,3.017,0,0,1-1.834.5A3.439,3.439,0,0,1-5.882.111a5.107,5.107,0,0,1-.5-3.234A4.05,4.05,0,0,1-4.742-5.882a3.362,3.362,0,0,1,3.012-.4,3.069,3.069,0,0,1,.358.155.234.234,0,0,0,.311-.082.23.23,0,0,0-.082-.31,3.8,3.8,0,0,0-3.46.027A4.294,4.294,0,0,0-6.73-3.655,5.738,5.738,0,0,0-6.441,0,3.975,3.975,0,0,0-3.579,2.363a3.559,3.559,0,0,0,2.13-.255A3.845,3.845,0,0,0,.128.688,4.865,4.865,0,0,0,.392.229.232.232,0,0,0,.31-.081.228.228,0,0,0,0,0" transform="translate(400.458 6935.232)"/>
      <path id="Path_12796" data-name="Path 12796" d="M0,0A2.6,2.6,0,0,0,1.406-3.081a4,4,0,0,1,.138-3.253C4.3-10.418,7.379-7.359,7.379-7.359a5.376,5.376,0,0,0-.909-4.053l.956-.442A2.943,2.943,0,0,0,9.1-14.991l-.009-.055A17.385,17.385,0,0,1,4.269-13.02c-2.214.54-5.55,1.2-7.324,4.513a9.33,9.33,0,0,0-.723,6.074,7.952,7.952,0,0,0,.209.848A2.591,2.591,0,0,0,0,0" transform="translate(392.623 6937.377)"/>
      <path id="Path_12797" data-name="Path 12797" d="M0,0C1.663.228,3.505.49,4.693,1.8a3.059,3.059,0,0,1,.633,1.061c.09.268.515.153.425-.117A3.9,3.9,0,0,0,4.258.84a6.668,6.668,0,0,0-2.5-1C1.212-.275.664-.35.117-.425a.229.229,0,0,0-.271.154A.222.222,0,0,0,0,0" transform="translate(356.981 6974.932)"/>
      <path id="Path_12798" data-name="Path 12798" d="M0,0A9.084,9.084,0,0,1,1.751-3.043a10.182,10.182,0,0,1,2.3-1.912,18.125,18.125,0,0,1,2.294-1.17c1.183-.518,2.367-1.034,3.537-1.582q3.951-1.848,7.745-4.008t7.428-4.627q3.606-2.451,7.01-5.183.414-.332.824-.668c.22-.18-.093-.49-.311-.312q-3.4,2.782-7.017,5.282t-7.415,4.7q-3.8,2.2-7.767,4.093-1.927.921-3.889,1.763A22.561,22.561,0,0,0,4.243-5.584,10.082,10.082,0,0,0-.079-.994q-.192.431-.346.877C-.518.152-.092.267,0,0" transform="translate(361.271 6980.763)"/>
      <path id="Path_12799" data-name="Path 12799" d="M0,0A22.2,22.2,0,0,0-1.125-3.907,18.722,18.722,0,0,0-2.258-6.35a7.264,7.264,0,0,0-.694-1.031,2.256,2.256,0,0,0-.855-.7.937.937,0,0,0-1,.175A1.424,1.424,0,0,0-5.029-6.34a8.567,8.567,0,0,0,.394.907c.145.3.277.6.4.91l.893,2.235.424-.117A3.9,3.9,0,0,0-4.572-4.042c-.312-.2-.634-.378-.954-.561a14.172,14.172,0,0,0-1.256-.676,2.482,2.482,0,0,0-1.271-.3A1,1,0,0,0-8.917-5a1.025,1.025,0,0,0,.281.975,6.739,6.739,0,0,0,.725.748A11.125,11.125,0,0,0-5.13-1.325c.056-.135.113-.269.169-.4A25.418,25.418,0,0,0-7.769-2.21a10.362,10.362,0,0,0-1.387-.049c-.231.009-.463.028-.693.057a2.226,2.226,0,0,0-.617.13.9.9,0,0,0-.227,1.449,1.535,1.535,0,0,0,.514.27c.213.081.433.148.651.216q.677.208,1.364.382a27.131,27.131,0,0,0,3.174.6c.245.031.3-.384.058-.433A12.616,12.616,0,0,0-8.251.177,12.765,12.765,0,0,0-9.9.393c-.407.08-.877.136-1.077.556a.861.861,0,0,0,.163.986,1.431,1.431,0,0,0,.486.269,4.549,4.549,0,0,0,.507.166,10.74,10.74,0,0,0,2.5.307,20.646,20.646,0,0,0,2.813-.121.227.227,0,0,0,.22-.22.221.221,0,0,0-.22-.22,21.435,21.435,0,0,1-2.308.127,12.779,12.779,0,0,1-2.392-.186,5.458,5.458,0,0,1-.99-.273.878.878,0,0,1-.338-.2c-.03-.035-.014-.018-.009-.01a.494.494,0,0,1-.03-.049.3.3,0,0,1-.021-.04c-.017-.037.013.045-.007-.021a.371.371,0,0,1-.022-.172c0-.01.007-.057,0-.019l.009-.044a.484.484,0,0,1,.027-.084c-.013.031.007-.011.012-.018s.018-.033.029-.048a.258.258,0,0,1,.054-.059.461.461,0,0,1,.131-.076A3.275,3.275,0,0,1-10.01.864,11.842,11.842,0,0,1-8.5.637a12.152,12.152,0,0,1,3.452.2C-5.029.69-5.01.545-4.99.4Q-6.283.234-7.554-.061-8.2-.211-8.843-.394c-.416-.118-.836-.237-1.239-.391a1.564,1.564,0,0,1-.226-.1.387.387,0,0,1-.122-.1.478.478,0,0,1-.1-.23c0,.01,0-.053,0-.068s.006-.077,0-.038a.634.634,0,0,1,.019-.084c0-.011.03-.08.016-.048a.393.393,0,0,1,.178-.2,1.411,1.411,0,0,1,.447-.1c.21-.029.422-.046.633-.056a9.8,9.8,0,0,1,1.282.028A22.985,22.985,0,0,1-5.078-1.3a.222.222,0,0,0,.26-.128.219.219,0,0,0-.09-.275A10.177,10.177,0,0,1-7.271-3.294c-.251-.221-.5-.449-.735-.688a3.372,3.372,0,0,1-.325-.371,1.632,1.632,0,0,1-.122-.188A.528.528,0,0,1-8.516-4.7c-.017-.06,0,.025,0-.01,0-.014,0-.028,0-.042A.176.176,0,0,1-8.51-4.83a.342.342,0,0,1,.066-.124.59.59,0,0,1,.323-.171.757.757,0,0,1,.2-.026,1.011,1.011,0,0,1,.188.009,3.038,3.038,0,0,1,.638.2A10.364,10.364,0,0,1-5.888-4.3c.289.167.582.328.867.5a7.711,7.711,0,0,1,1.008.7,2.382,2.382,0,0,1,.672.813.226.226,0,0,0,.27.154A.222.222,0,0,0-2.917-2.4l-.762-1.91c-.117-.292-.227-.588-.355-.875-.114-.256-.242-.505-.36-.759a1.859,1.859,0,0,1-.269-1.4.638.638,0,0,1,.193-.259.58.58,0,0,1,.082-.05l.049-.025c-.049.022.021-.005.031-.008a.717.717,0,0,1,.083-.019c-.059.01.039,0,.058,0s.033,0,.05,0c.057,0-.047-.011.009,0,.034.008.067.015.1.026l.05.017c.056.021-.04-.02.014.007.028.013.056.027.083.042s.067.041.1.063l.049.034c.03.022-.009-.009.029.023a3.048,3.048,0,0,1,.373.372,6.382,6.382,0,0,1,.635.934A17.067,17.067,0,0,1-1.641-4.019,22.225,22.225,0,0,1-.425.117.222.222,0,0,0-.154.271.225.225,0,0,0,0,0" transform="translate(418.03 6960.607)"/>
      <path id="Path_12800" data-name="Path 12800" d="M0,0A7.38,7.38,0,0,1,3.439,1.646a7.209,7.209,0,0,1,1.3,1.36,9.247,9.247,0,0,1,.989,1.841,17.907,17.907,0,0,1,1.065,3.9l.027.176c0,.015,0,.029.005.043.005.037-.007-.055,0,0,.005.037.009.074.014.111.019.153.035.307.051.46.038.384.069.768.1,1.152.155,2.171.228,4.349.294,6.523q.057,1.838.094,3.676c.025,1.144.07,2.292.059,3.436A3.247,3.247,0,0,1,5.971,27a3.282,3.282,0,0,1-2.288.49L.338,27-4,26.352c-.28-.041-.562-.08-.841-.125a3.272,3.272,0,0,1-2.45-1.84A3.29,3.29,0,0,1-7.4,21.949l.468-1.437q.658-2.022,1.316-4.045c.029-.09.059-.181.088-.272.088-.271-.337-.386-.425-.117q-.542,1.667-1.085,3.334-.324,1-.651,2a5.03,5.03,0,0,0-.335,1.711,3.721,3.721,0,0,0,1.5,2.869,3.929,3.929,0,0,0,1.822.7l3.825.568,4.106.608a5.12,5.12,0,0,0,1.553.058,3.668,3.668,0,0,0,3.089-3.517c.017-.558-.012-1.121-.022-1.679q-.031-1.833-.078-3.665c-.06-2.368-.133-4.736-.265-7.1-.048-.845-.1-1.691-.188-2.533a18.533,18.533,0,0,0-.557-2.868A11.307,11.307,0,0,0,4.995,2.618,8.453,8.453,0,0,0,1.894.147,6.668,6.668,0,0,0,.118-.425a.226.226,0,0,0-.271.154A.221.221,0,0,0,0,0" transform="translate(389.353 6949.886)"/>
      <path id="Path_12801" data-name="Path 12801" d="M0,0A9.191,9.191,0,0,0,.5-1.5,2.36,2.36,0,0,0,.062-3.378a3.654,3.654,0,0,0-.867-.768c-.405-.281-.827-.537-1.254-.782A22.236,22.236,0,0,0-5.4-6.517c-.267-.1-.537-.189-.81-.267-.129-.036-.259-.069-.389-.1a.985.985,0,0,0-.6-.029c-.342.133-.534.529-.711.826A11.362,11.362,0,0,0-8.447-5.07,28.173,28.173,0,0,0-9.918-.66a36.321,36.321,0,0,0-1.02,4.972q-.164,1.247-.233,2.5a2.117,2.117,0,0,0,.156.989,1.875,1.875,0,0,0,.547.718,2.351,2.351,0,0,0,.89.412l.907.243,2.291.612a5.32,5.32,0,0,0,.569.143,1.884,1.884,0,0,0,1.7-.583,1.9,1.9,0,0,0,.432-.813.22.22,0,0,0-.424-.117A1.448,1.448,0,0,1-5.17,9.482a1.682,1.682,0,0,1-.842-.051l-2-.536c-.539-.144-1.079-.285-1.618-.433a1.49,1.49,0,0,1-1.018-.927,2.293,2.293,0,0,1-.069-.933q.037-.606.1-1.21A34.067,34.067,0,0,1-9.8.624c.184-.751.394-1.5.6-2.24.2-.712.414-1.422.669-2.118A12.948,12.948,0,0,1-7.6-5.747c.093-.158.188-.315.289-.468A.7.7,0,0,1-7.052-6.5a.359.359,0,0,1,.222.012l.231.057c.127.032.254.067.38.105a17.617,17.617,0,0,1,3.2,1.371q.714.378,1.4.8c.186.116.371.235.552.359.078.053.155.107.231.163l.091.067.014.011.048.038a2.064,2.064,0,0,1,.765,1.2A2.853,2.853,0,0,1-.174-.757c-.082.213-.175.424-.251.64A.222.222,0,0,0-.271.154.225.225,0,0,0,0,0" transform="translate(415.935 6954.674)"/>
      <path id="Path_12802" data-name="Path 12802" d="M0,0A31.689,31.689,0,0,0-7.068,11.367a16.837,16.837,0,0,0-.854,6.317,14.392,14.392,0,0,0,1.885,6.193,15.133,15.133,0,0,0,8.97,6.7A18.725,18.725,0,0,0,14.96,29.8a27.635,27.635,0,0,0,10.46-7.538A32.278,32.278,0,0,0,31.787,11.2c1.392-4.165,2.235-9.044.242-13.157a13.724,13.724,0,0,0-7.9-6.651,16.665,16.665,0,0,0-5.269-.95,19.1,19.1,0,0,0-5.9.913,28.606,28.606,0,0,0-10.8,6.481Q1.035-1.124,0,0C-.192.208.119.521.312.312A31.746,31.746,0,0,1,10.18-7.1,19.012,19.012,0,0,1,21.443-8.859,14.719,14.719,0,0,1,30.314-3.84a10.979,10.979,0,0,1,2.235,4.9,17.664,17.664,0,0,1-.366,7.1A31.673,31.673,0,0,1,27,19.573,29.15,29.15,0,0,1,17.67,28.03,20.039,20.039,0,0,1,5.776,30.7a15.786,15.786,0,0,1-9.814-4.843,13.942,13.942,0,0,1-3.3-11.5A25.536,25.536,0,0,1-1.872,2.893Q-.836,1.557.312.312C.5.1.192-.209,0,0" transform="translate(330.765 7025.032)"/>
      <path id="Path_12803" data-name="Path 12803" d="M0,0A21.292,21.292,0,0,0-4.752,7.644,11.344,11.344,0,0,0-5.327,11.9a9.721,9.721,0,0,0,1.272,4.183A10.214,10.214,0,0,0,2,20.6a12.6,12.6,0,0,0,8.093-.521,18.587,18.587,0,0,0,7.037-5.066A21.694,21.694,0,0,0,21.41,7.575c.94-2.81,1.5-6.095.155-8.868A9.258,9.258,0,0,0,16.23-5.78a11.234,11.234,0,0,0-3.548-.64A12.846,12.846,0,0,0,8.711-5.8,19.243,19.243,0,0,0,1.443-1.446Q.693-.753,0,0C-.192.208.119.521.312.312A21.189,21.189,0,0,1,6.906-4.643a12.657,12.657,0,0,1,7.487-1.169A9.8,9.8,0,0,1,20.3-2.469,7.273,7.273,0,0,1,21.78.783a11.746,11.746,0,0,1-.245,4.72,21.166,21.166,0,0,1-3.46,7.62,19.446,19.446,0,0,1-6.226,5.637A13.359,13.359,0,0,1,3.92,20.54,10.5,10.5,0,0,1-2.6,17.318,9.258,9.258,0,0,1-4.79,9.686,17.034,17.034,0,0,1-1.151,2.04Q-.457,1.146.312.312C.5.1.193-.209,0,0" transform="translate(336.947 7030.461)"/>
      <path id="Path_12804" data-name="Path 12804" d="M0,0A31.68,31.68,0,0,0-7.068,11.367a16.834,16.834,0,0,0-.854,6.317,14.383,14.383,0,0,0,1.885,6.192,15.131,15.131,0,0,0,8.97,6.7A18.719,18.719,0,0,0,14.96,29.8a27.622,27.622,0,0,0,10.46-7.537A32.278,32.278,0,0,0,31.787,11.2c1.392-4.165,2.235-9.044.242-13.157a13.721,13.721,0,0,0-7.9-6.651,16.665,16.665,0,0,0-5.269-.95,19.069,19.069,0,0,0-5.9.913,28.614,28.614,0,0,0-10.8,6.481Q1.035-1.124,0,0C-.192.208.119.521.312.312A31.73,31.73,0,0,1,10.18-7.1,19.021,19.021,0,0,1,21.443-8.86a14.725,14.725,0,0,1,8.871,5.02,10.979,10.979,0,0,1,2.235,4.9,17.664,17.664,0,0,1-.366,7.1,31.676,31.676,0,0,1-5.177,11.4,29.141,29.141,0,0,1-9.336,8.457A20.032,20.032,0,0,1,5.776,30.7a15.791,15.791,0,0,1-9.814-4.843,13.942,13.942,0,0,1-3.3-11.5A25.531,25.531,0,0,1-1.872,2.893Q-.836,1.557.312.312C.5.1.192-.209,0,0" transform="translate(284.788 7018.014)"/>
      <path id="Path_12805" data-name="Path 12805" d="M0,0A21.284,21.284,0,0,0-4.752,7.644,11.344,11.344,0,0,0-5.327,11.9a9.725,9.725,0,0,0,1.272,4.183A10.211,10.211,0,0,0,2,20.6a12.6,12.6,0,0,0,8.093-.521,18.587,18.587,0,0,0,7.037-5.066A21.694,21.694,0,0,0,21.41,7.575c.94-2.81,1.5-6.095.155-8.868A9.261,9.261,0,0,0,16.23-5.78a11.234,11.234,0,0,0-3.548-.64A12.846,12.846,0,0,0,8.711-5.8,19.243,19.243,0,0,0,1.443-1.446Q.693-.753,0,0C-.192.208.119.521.312.312A21.189,21.189,0,0,1,6.906-4.643a12.647,12.647,0,0,1,7.486-1.169A9.8,9.8,0,0,1,20.3-2.469,7.3,7.3,0,0,1,21.78.783a11.765,11.765,0,0,1-.245,4.72,21.171,21.171,0,0,1-3.46,7.619,19.437,19.437,0,0,1-6.226,5.638A13.359,13.359,0,0,1,3.92,20.54,10.492,10.492,0,0,1-2.6,17.317,9.256,9.256,0,0,1-4.79,9.686,17.029,17.029,0,0,1-1.151,2.04Q-.457,1.144.312.312C.5.1.193-.209,0,0" transform="translate(289.04 7021.861)"/>
      <path id="Path_12806" data-name="Path 12806" d="M0,0A42.84,42.84,0,0,1,4.379.461.228.228,0,0,0,4.651.307.223.223,0,0,0,4.5.036,44.008,44.008,0,0,0,0-.441C-.283-.456-.283-.015,0,0" transform="translate(396.771 6965.35)"/>
      <path id="Path_12807" data-name="Path 12807" d="M0,0A15.561,15.561,0,0,0,1.579,2.194c.642.767,1.329,1.5,2.038,2.2A42.733,42.733,0,0,0,7.486,7.829a17.69,17.69,0,0,0,2.026,1.36A10.2,10.2,0,0,0,12.948,10.5a5.684,5.684,0,0,0,1.722.039,4.118,4.118,0,0,0,3.26-2.658,5.629,5.629,0,0,0,.091-3.174,7.811,7.811,0,0,0-1.384-2.948,7.284,7.284,0,0,0-.508-.6c-.2-.206-.508.106-.312.312A7.2,7.2,0,0,1,17.4,4.133a5.949,5.949,0,0,1,.275,3.031,3.685,3.685,0,0,1-1.428,2.267,3.8,3.8,0,0,1-1.216.587,4.32,4.32,0,0,1-1.494.114A8.638,8.638,0,0,1,10.21,9.07,16.364,16.364,0,0,1,7.971,7.65L7.9,7.6l-.043-.033-.014-.011-.186-.144c-.128-.1-.257-.2-.384-.309q-.45-.366-.89-.746Q5.354,5.465,4.375,4.521C3.668,3.838,2.98,3.132,2.33,2.394A18.586,18.586,0,0,1,.69.282C.583.116.479-.052.381-.222A.221.221,0,0,0,0,0" transform="translate(401.844 6959.348)"/>
      <path id="Path_12808" data-name="Path 12808" d="M0,0C-.787,3.947-1.784,7.85-2.924,11.71c-1.167,3.95-2.482,7.855-3.887,11.726C-8.232,27.35-9.745,31.23-11.3,35.092c-1.548,3.845-3.14,7.673-4.729,11.5-1.555,3.747-3.107,7.494-4.609,11.263q-.277.7-.551,1.393a.222.222,0,0,0,.153.271l6.766,2.044.965.291a.226.226,0,0,0,.249-.1q2.192-3.675,4.482-7.29c1.155-1.832,2.321-3.659,3.439-5.515q1.8-2.991,3.42-6.085C-.159,39.9,1.3,36.88,2.724,33.848,4.958,29.094,7.107,24.3,9.235,19.5q.5-1.124.995-2.249c.114-.257-.266-.482-.38-.223C7.611,22.1,5.353,27.166,3.013,32.193c-1.5,3.214-3.022,6.415-4.649,9.565C-2.74,43.9-3.9,46-5.125,48.072c-1.09,1.835-2.232,3.639-3.372,5.444-1.453,2.3-2.894,4.611-4.3,6.943-.215.358-.429.715-.643,1.074l.249-.1-6.766-2.044c-.322-.1-.643-.194-.965-.291l.155.271c1.481-3.758,3.02-7.494,4.567-11.227,1.585-3.823,3.178-7.642,4.734-11.476,1.567-3.86,3.1-7.735,4.54-11.642,1.43-3.871,2.777-7.774,3.982-11.721C-1.762,9.439-.717,5.534.123,1.584Q.279.852.425.117C.48-.16.056-.278,0,0" transform="translate(384.8 6976.375)"/>
      <path id="Path_12809" data-name="Path 12809" d="M0,0A21.464,21.464,0,0,0-6.93-.591,34.534,34.534,0,0,0-12.7.268,40.137,40.137,0,0,0-23.231,4.447a47.925,47.925,0,0,0-9.15,6.765A49.89,49.89,0,0,0-39.618,19.7a45.045,45.045,0,0,0-2.72,4.589,40.923,40.923,0,0,0-2.293,5.257c-.168.484-.319.974-.461,1.468a.221.221,0,0,0,.425.117,35.791,35.791,0,0,1,2.16-5.509,43.614,43.614,0,0,1,2.548-4.6,48.976,48.976,0,0,1,6.85-8.495,48.131,48.131,0,0,1,8.847-6.963,40.782,40.782,0,0,1,10.243-4.5A34.806,34.806,0,0,1-8.508-.014a24.606,24.606,0,0,1,6.76.08Q-.924.205-.117.425A.221.221,0,0,0,0,0" transform="translate(352.561 6978.006)"/>
      <path id="Path_12810" data-name="Path 12810" d="M0,0A38.72,38.72,0,0,0,4.438-7.346a32.961,32.961,0,0,0,2.476-7.682,26.456,26.456,0,0,0,.334-7.716,23.658,23.658,0,0,0-2.016-7.325A22.538,22.538,0,0,0,1-36.263q-.332-.342-.674-.669c-.206-.2-.518.115-.312.311a22.216,22.216,0,0,1,4.445,5.956A22.947,22.947,0,0,1,6.7-23.586a25.393,25.393,0,0,1-.07,7.627A31.869,31.869,0,0,1,4.427-8.4,38.113,38.113,0,0,1,.255-1.076q-.312.431-.636.854C-.553,0-.17.223,0,0" transform="translate(359.958 7019.438)"/>
      <path id="Path_12811" data-name="Path 12811" d="M0,0A21.534,21.534,0,0,0-5.913.132a28.56,28.56,0,0,0-4.809,1.144A34.024,34.024,0,0,0-19.6,5.8a39.436,39.436,0,0,0-7.334,6.7,36.906,36.906,0,0,0-5.211,7.945,30.206,30.206,0,0,0-1.346,3.436q-.631,1.87-1.2,3.762c-.061.2-.122.409-.181.614a.221.221,0,0,0,.425.117c.324-1.133.685-2.257,1.051-3.378s.735-2.3,1.2-3.377a34.639,34.639,0,0,1,4.812-7.879A39.223,39.223,0,0,1-20.374,6.9,34.525,34.525,0,0,1-11.76,2.108,26.364,26.364,0,0,1-1.507.311Q-.751.342,0,.441C.119.457.219.328.221.221A.226.226,0,0,0,0,0" transform="translate(347.372 6983.277)"/>
      <path id="Path_12812" data-name="Path 12812" d="M0,0A30.759,30.759,0,0,0,3.348-5.46a26.686,26.686,0,0,0,1.989-5.75,21.576,21.576,0,0,0,.491-5.783,18.877,18.877,0,0,0-1.22-5.754,18.058,18.058,0,0,0-2.9-4.972q-.228-.277-.467-.545c-.19-.212-.5.1-.312.312a17.569,17.569,0,0,1,3.03,4.774,18.211,18.211,0,0,1,1.381,5.537,20.736,20.736,0,0,1-.306,5.713A25.626,25.626,0,0,1,3.25-6.3,30.214,30.214,0,0,1,.1-.875c-.159.22-.321.437-.486.653A.222.222,0,0,0-.3.079.227.227,0,0,0,0,0" transform="translate(355.089 7016.508)"/>
      <path id="Path_12813" data-name="Path 12813" d="M0,0A3.146,3.146,0,0,0-.2-3.02c-.155-.236-.537-.016-.381.223A2.693,2.693,0,0,1-.381-.222.228.228,0,0,0-.3.079.223.223,0,0,0,0,0" transform="translate(361.433 6983.803)"/>
      <path id="Path_12814" data-name="Path 12814" d="M0,0A10.16,10.16,0,0,0,.954,3.341,18.457,18.457,0,0,1,2.2,6.793,10.8,10.8,0,0,1,2.446,9.04c0,.219,0,.437-.014.656,0,.051-.01.1-.008.155a.44.44,0,0,0,.067.184c.046.085.092.171.139.256a9.149,9.149,0,0,0,.6.94,7.8,7.8,0,0,0,3.752,2.755,7.366,7.366,0,0,0,5.111-.028q.3-.122.584-.271c.252-.132.029-.512-.222-.38a6.611,6.611,0,0,1-4.574.48,7.4,7.4,0,0,1-3.75-2.151,8.514,8.514,0,0,1-1.3-1.9c.009.037.02.074.029.111a11.71,11.71,0,0,0-.632-4.567C1.827,4.136,1.258,3.072.863,1.942A7.581,7.581,0,0,1,.441,0,.226.226,0,0,0,.22-.221.223.223,0,0,0,0,0" transform="translate(388.867 6934.666)"/>
      <path id="Path_12815" data-name="Path 12815" d="M0,0A1.145,1.145,0,0,1-.435.8a1.789,1.789,0,0,1-.8.444A1.339,1.339,0,0,1-2.707.53,2.606,2.606,0,0,1-2.98-.605a.251.251,0,0,0-.247-.246.248.248,0,0,0-.246.246A2.494,2.494,0,0,0-2.4,1.542,1.923,1.923,0,0,0-.176,1.234,1.672,1.672,0,0,0,.494,0,.247.247,0,0,0,0,0" transform="translate(400.586 6951.933)"/>
      <path id="Path_12816" data-name="Path 12816" d="M0,0Q.534,2.256.891,4.547c.117.753.24,1.511.3,2.271a3.119,3.119,0,0,1-.063,1.077,3.285,3.285,0,0,1-.437.9c-.473.726-1,1.419-1.5,2.125h.381q-.476-.97-.949-1.94A6.917,6.917,0,0,1-1.806,8a3.768,3.768,0,0,1-.108-1.765q.155-.87.308-1.739.244-1.375.488-2.751c.1-.557.2-1.114.3-1.673,0-.008,0-.017,0-.025A.226.226,0,0,0-.972-.224a.222.222,0,0,0-.271.153q-.124.708-.25,1.413-.244,1.383-.49,2.765-.171.974-.344,1.945a4.549,4.549,0,0,0-.04,1.454,4.855,4.855,0,0,0,.489,1.449l1.042,2.131.027.056a.224.224,0,0,0,.381,0C.03,10.5.5,9.859.944,9.21a4.712,4.712,0,0,0,.526-.943,2.863,2.863,0,0,0,.182-1.1,10.189,10.189,0,0,0-.109-1.142q-.076-.6-.165-1.19Q1.2,3.662.983,2.5.732,1.184.425-.117C.36-.393-.065-.276,0,0" transform="translate(399.528 6953.429)"/>
      <path id="Path_12817" data-name="Path 12817" d="M0,0Q-.981,2.154-2.1,4.238q-.316.59-.644,1.172a.223.223,0,0,0,.131.323L1.012,6.956l.9.3a1.556,1.556,0,0,1,.648.286A.409.409,0,0,1,2.6,7.6c0,.016.013.023,0,.04a.518.518,0,0,1-.245.12c-.242.071-.488.134-.733.2a28,28,0,0,1-6.4.763,25.941,25.941,0,0,1-3.424-.176l.191.332c.158-.331.318-.662.477-.993Q-6.973,6.7-6.4,5.521l1.385-2.877q.6-1.238,1.193-2.477c.193-.4.392-.8.58-1.2a.089.089,0,0,1,.008-.017.228.228,0,0,0-.079-.3.224.224,0,0,0-.3.079L-4.1-.284-5.233,2.079-6.619,4.956q-.6,1.238-1.192,2.477c-.194.4-.392.8-.58,1.2,0,.006-.005.012-.008.017a.224.224,0,0,0,.19.332A28.239,28.239,0,0,0-1.6,8.965a26.375,26.375,0,0,0,3.348-.586c.259-.064.52-.127.774-.209s.495-.236.514-.524a.667.667,0,0,0-.412-.587,5.619,5.619,0,0,0-.873-.317L-2.5,5.309l.132.323q1.16-2.062,2.181-4.2Q.1.831.381.223A.229.229,0,0,0,.3-.079.222.222,0,0,0,0,0" transform="translate(367.25 7036.85)"/>
      <path id="Path_12818" data-name="Path 12818" d="M0,0C.207.344.428.683.619,1.036c.083.154.144.319.215.478.126.277.259.55.393.823a.221.221,0,0,0,.3.079L4.519.171l.738-.554A2.665,2.665,0,0,1,5.9-.82a.368.368,0,0,1,.123-.028c.018,0,.046.012.035,0,.064.064.026.168,0,.245-.072.24-.162.477-.25.712a27.985,27.985,0,0,1-3,5.736A25.632,25.632,0,0,1,.736,8.567l.346.044-1.227-2.2q-.977-1.75-1.954-3.5l-.445-.8c-.139-.247-.519-.025-.381.223l1.227,2.2,1.954,3.5q.223.4.445.8a.223.223,0,0,0,.347.044,28.54,28.54,0,0,0,3.767-5.52A26.313,26.313,0,0,0,6.222.261c.092-.246.189-.494.262-.746a.606.606,0,0,0-.2-.738.744.744,0,0,0-.721.077,7.284,7.284,0,0,0-.736.541L1.306,2.035l.3.079C1.43,1.753,1.254,1.39,1.1,1.02A3.642,3.642,0,0,0,.851.558C.695.3.538.038.38-.223A.22.22,0,0,0,0,0" transform="translate(425.32 7038.551)"/>
      <path id="Path_12819" data-name="Path 12819" d="M0,0C.664,1.926,1.261,3.876,1.745,5.855a47.048,47.048,0,0,1,1.143,6.593c.132,1.352.2,2.711.2,4.069a.221.221,0,0,0,.441,0,43.093,43.093,0,0,0-.6-7.126A53.17,53.17,0,0,0,1.451,3.078Q.975,1.469.425-.117A.225.225,0,0,0,.154-.271.223.223,0,0,0,0,0" transform="translate(305.371 7016.482)"/>
      <path id="Path_12820" data-name="Path 12820" d="M0,0C.425,1.581.836,3.167,1.216,4.759c.347,1.454.669,2.914.953,4.381q.413,2.124.712,4.266.3,2.191.486,4.4c.135,1.607.226,3.218.288,4.83q.012.326.022.649c.01.283.45.284.441,0C4.064,21.639,3.98,20,3.853,18.36q-.175-2.241-.466-4.472Q3.1,11.723,2.7,9.578c-.272-1.457-.583-2.907-.921-4.351C1.41,3.648,1.01,2.077.593.51L.425-.117A.221.221,0,0,0,0,0" transform="translate(299.514 7015.947)"/>
      <path id="Path_12821" data-name="Path 12821" d="M0,0C.372,1.608.732,3.22,1.066,4.837c.309,1.494.594,2.992.846,4.5q.36,2.163.618,4.343.264,2.253.41,4.518.158,2.438.2,4.882.006.321.011.643a.22.22,0,0,0,.44,0c-.024-1.657-.078-3.313-.176-4.966Q3.28,16.472,3.031,14.2q-.246-2.22-.6-4.425c-.24-1.494-.516-2.984-.816-4.467C1.287,3.7.935,2.106.57.51.522.3.474.091.425-.118.361-.394-.064-.277,0,0" transform="translate(292.67 7018.844)"/>
      <path id="Path_12822" data-name="Path 12822" d="M0,0C.312,1.358.63,2.714.939,4.072c.244,1.072.482,2.146.686,3.226.177.931.325,1.851.425,2.775s.157,1.872.169,2.811c.015,1.09-.024,2.18-.091,3.268-.009.153-.02.307-.03.461a.222.222,0,0,0,.22.22.226.226,0,0,0,.221-.22c.076-1.121.127-2.244.124-3.368,0-.953-.046-1.9-.139-2.854S2.291,8.5,2.121,7.56c-.192-1.055-.418-2.1-.654-3.148C1.17,3.091.86,1.772.556.453Q.492.168.425-.117C.361-.394-.064-.276,0,0" transform="translate(286.791 7024.723)"/>
      <path id="Path_12823" data-name="Path 12823" d="M0,0C-1.143.6-2.262,1.241-3.364,1.911q-1.86,1.132-3.654,2.37Q-8.917,5.587-10.737,7c-1.2.934-2.372,1.906-3.5,2.925a42.725,42.725,0,0,0-3.054,3.025q-.171.188-.337.378a.249.249,0,0,0,0,.343.245.245,0,0,0,.343,0,40.233,40.233,0,0,1,2.968-3.017c1.113-1.027,2.271-2.005,3.457-2.945S-8.451,5.868-7.207,5q1.8-1.254,3.658-2.407C-2.435,1.9-1.3,1.245-.15.627q.2-.1.4-.208C.521.274.276-.145,0,0" transform="translate(302.101 7015.468)"/>
      <path id="Path_12824" data-name="Path 12824" d="M0,0A48.415,48.415,0,0,0-4.407,2.069C-6.084,2.95-7.723,3.9-9.331,4.9q-2.634,1.638-5.156,3.446-2.6,1.863-5.075,3.9c-1.6,1.321-3.152,2.7-4.632,4.153-.177.174-.352.349-.527.524a.243.243,0,0,0,.343.343c1.448-1.456,2.97-2.838,4.54-4.16q2.422-2.042,4.991-3.9Q-12.34,7.38-9.719,5.719c1.618-1.025,3.268-2,4.955-2.911C-3.334,2.037-1.851,1.3-.369.673q.247-.1.5-.2A.25.25,0,0,0,.3.169.244.244,0,0,0,0,0" transform="translate(308.722 7018.163)"/>
      <path id="Path_12825" data-name="Path 12825" d="M0,0C-1.591.719-3.144,1.519-4.671,2.366Q-7.242,3.794-9.712,5.393q-2.613,1.686-5.112,3.537c-1.658,1.23-3.277,2.513-4.838,3.863a57.75,57.75,0,0,0-4.215,4c-.157.165-.312.332-.466.5-.21.229.132.573.344.343a54.668,54.668,0,0,1,4.117-4.01c1.529-1.352,3.118-2.637,4.748-3.865Q-12.662,7.9-10.07,6.2q2.482-1.629,5.065-3.1c1.537-.87,3.1-1.693,4.7-2.44C-.12.585.062.5.244.419A.245.245,0,0,0,.332.087.248.248,0,0,0,0,0" transform="translate(310.9 7022.393)"/>
      <path id="Path_12826" data-name="Path 12826" d="M0,0Q-2.2,1.377-4.356,2.828q-1.924,1.3-3.8,2.678-1.773,1.3-3.5,2.677t-3.406,2.794q-1.8,1.512-3.567,3.058l-.46.4a.257.257,0,0,0,0,.362.261.261,0,0,0,.362,0q1.786-1.552,3.591-3.088,1.681-1.425,3.4-2.809,1.688-1.353,3.423-2.646,1.84-1.367,3.736-2.66Q-2.47,2.159-.313.8L.259.443C.538.268.281-.175,0,0" transform="translate(310.506 7027.776)"/>
      <path id="Path_12827" data-name="Path 12827" d="M0,0,.364,6.426q.051.91.1,1.82c.017.29.47.292.453,0L.556,1.82Q.505.911.453,0C.437-.29-.017-.292,0,0" transform="translate(404.386 6923.69)"/>
      <path id="Path_12829" data-name="Path 12829" d="M0,0A1.582,1.582,0,0,0,1.187.9.252.252,0,0,0,1.362.876.238.238,0,0,0,1.467.74.228.228,0,0,0,1.308.462,1.361,1.361,0,0,1,1.142.427C1.117.421,1.092.413,1.068.405L1.024.389c-.007,0-.05-.017-.016-.006S1,.379.993.376L.951.356C.928.345.9.332.883.32A1.467,1.467,0,0,1,.74.226C.707.2.765.247.744.229L.714.2C.692.185.671.167.651.147.612.109.577.069.541.027s.029.041,0,0C.531.014.523,0,.516-.007S.484-.054.47-.078A1.2,1.2,0,0,1,.391-.229.228.228,0,0,0,.081-.31.233.233,0,0,0,0,0" transform="translate(405.634 6931.79)"/>
      <path id="Path_12830" data-name="Path 12830" d="M0,0A10.082,10.082,0,0,1-1.656,4.5a10.781,10.781,0,0,1-1.57,1.9,8.967,8.967,0,0,1-.92.776,4.517,4.517,0,0,1-1.027.618,20.6,20.6,0,0,0-4.589,2.393c-1.221.853-2.356,1.823-3.507,2.767l-9.88,8.107-9.879,8.107-4.94,4.053c-.415.34-.819.708-1.262,1.01-.4.272-.811.528-1.221.785a13.165,13.165,0,0,0-2.241,1.647c-1.209,1.183-2.017,3.084-1.06,4.667a2.47,2.47,0,0,0,1.918,1.217,2.861,2.861,0,0,0,2.254-.915,3.627,3.627,0,0,0,.674-1,1.919,1.919,0,0,0,.233-1.146.8.8,0,0,0-.778-.636,1.127,1.127,0,0,0-.935.528,3.915,3.915,0,0,0-.412,2.593,2.686,2.686,0,0,0,1.127,2.107c1.526.936,3.257-.908,3.234-2.408a1.657,1.657,0,0,0-.351-1.053.551.551,0,0,0-.883.111A2.823,2.823,0,0,0-38.092,42a3.656,3.656,0,0,0,.049,1.327,1.753,1.753,0,0,0,1.667,1.4,2.651,2.651,0,0,0,2.043-.883,2.376,2.376,0,0,0,.624-2.232c-.122-.372-.418-.73-.84-.512a1.729,1.729,0,0,0-.693.935,2.18,2.18,0,0,0,.374,2.246,1.558,1.558,0,0,0,1.652.192,3.011,3.011,0,0,0,1.3-1.248A6.673,6.673,0,0,0-31.1,41.04a8.854,8.854,0,0,0,.118-2.594c-.028-.28-.468-.283-.44,0a7.581,7.581,0,0,1-.78,4.408,2.833,2.833,0,0,1-1.11,1.187,1.07,1.07,0,0,1-1.371-.228A1.881,1.881,0,0,1-34.6,41.76a1,1,0,0,1,.189-.216c.1-.08.149-.059.215.037a1.127,1.127,0,0,1,.127.644,2.061,2.061,0,0,1-.355,1.03,2.284,2.284,0,0,1-1.714,1.034,1.479,1.479,0,0,1-1.02-.277,1.505,1.505,0,0,1-.485-.938,3.356,3.356,0,0,1,.033-1.275c.031-.144.278-1.129.516-.869a1.334,1.334,0,0,1,.205.994,2.366,2.366,0,0,1-.394,1,1.771,1.771,0,0,1-1.927.889,2.083,2.083,0,0,1-1.144-1.844,3.52,3.52,0,0,1,.352-2.37c.179-.242.671-.505.867-.126.157.3-.058.754-.192,1.028a2.826,2.826,0,0,1-1.6,1.495,2.034,2.034,0,0,1-2.1-.448c-1.194-1.187-.7-3.042.284-4.185a8.668,8.668,0,0,1,1.893-1.568,25.3,25.3,0,0,0,2.164-1.416c2.931-2.374,5.832-4.786,8.748-7.178l8.747-7.178,8.783-7.206c.964-.791,1.921-1.592,2.948-2.3A19.136,19.136,0,0,1-5.435,8.36a5.608,5.608,0,0,0,1.028-.476,8.886,8.886,0,0,0,.842-.6A10.262,10.262,0,0,0-2.04,5.766,11.546,11.546,0,0,0,.038,1.974,9.426,9.426,0,0,0,.441,0C.467-.282.027-.28,0,0" transform="translate(391.33 6944.217)"/>
      <path id="Path_12831" data-name="Path 12831" d="M0,0A22.2,22.2,0,0,0-2.951,4.849c-.215.5-.409,1.009-.576,1.527-.088.27.337.386.424.117A19.17,19.17,0,0,1-.6,1.558Q-.166.921.312.312A.229.229,0,0,0,.312,0,.223.223,0,0,0,0,0" transform="translate(398.81 6948.737)"/>
      <path id="Path_12832" data-name="Path 12832" d="M0,0A20.617,20.617,0,0,1,2.363,3.7,10.286,10.286,0,0,1,3.206,5.88a5.443,5.443,0,0,1,0,1.282q-.024.684-.052,1.367-.219,5.2-.766,10.374-.279,2.647-.644,5.286a10.83,10.83,0,0,0-.211,2.353,5.27,5.27,0,0,0,.543,1.946c.626,1.241,1.406,2.422,2.1,3.629q1.065,1.865,2.106,3.742c2.931,5.279,5.74,10.625,8.482,16q4.2,8.249,8.218,16.589Q26.77,76.3,30.461,84.188q.424.9.846,1.8c.026-.1.052-.2.079-.3l-7.234,5.536L23.139,92l.3.079c-4.992-8.344-9.775-16.81-14.513-25.3C4.2,58.309-.477,49.813-5.275,41.383q-4.036-7.095-8.215-14.109a.221.221,0,0,0-.381.222C-8.878,35.84-4.095,44.307.641,52.8c4.726,8.471,9.407,16.967,14.2,25.4q4.038,7.1,8.215,14.109a.221.221,0,0,0,.3.079L30.6,86.846l1.012-.775a.228.228,0,0,0,.079-.3q-3.66-7.819-7.4-15.6Q20.272,61.811,16.1,53.53c-2.744-5.423-5.553-10.814-8.476-16.144q-2.06-3.758-4.209-7.465A18.036,18.036,0,0,1,2.337,28a4.817,4.817,0,0,1-.348-2.417c.19-1.715.473-3.422.67-5.137q.6-5.167.864-10.366.068-1.322.115-2.644c.015-.425.034-.851.04-1.277a2.948,2.948,0,0,0-.242-1A16.765,16.765,0,0,0,1.514,1.337C1.136.771.73.225.312-.312.137-.535-.172-.221,0,0" transform="translate(398.693 6949.049)"/>
      <path id="Path_12833" data-name="Path 12833" d="M0,0A5.062,5.062,0,0,0,1.676,2.735c.715.608,1.568,1.021,2.3,1.6a3.7,3.7,0,0,1,1,1.135c.134.25.515.028.381-.222A5.528,5.528,0,0,0,3.334,3.358c-.39-.251-.787-.494-1.154-.778a4.952,4.952,0,0,1-1-1.031A4.438,4.438,0,0,1,.425-.117C.366-.394-.059-.277,0,0" transform="translate(401.21 6948.133)"/>
      <path id="Path_12834" data-name="Path 12834" d="M0,0Q-3.452.181-6.908.2q-.977,0-1.953,0a.221.221,0,0,0,0,.441q3.456.03,6.91-.105Q-.974.493,0,.441C.282.426.284-.015,0,0" transform="translate(426.272 7046.968)"/>
      <path id="Path_12835" data-name="Path 12835" d="M0,0C-1.731.091-3.459.249-5.193.286-5.763.3-6.332.3-6.9.295a.22.22,0,0,0,0,.44c.934.008,1.868,0,2.8-.045C-3.3.653-2.505.6-1.708.543-1.138.506-.57.471,0,.441.282.426.284-.015,0,0" transform="translate(370.615 7045.229)"/>
      <path id="Path_12836" data-name="Path 12836" d="M0,0-4.71-12.151a31.475,31.475,0,0,0-5.429,2.734L-3.183,1.6A18.6,18.6,0,0,1,0,0" transform="translate(292.171 7004.281)" fill="#ff361e"/>
      <path id="Path_12837" data-name="Path 12837" d="M0,0A31.258,31.258,0,0,0-4,4.6L6.62,12.149A18.293,18.293,0,0,1,8.952,9.47Z" transform="translate(277.224 6998.596)" fill="#ff361e"/>
      <path id="Path_12838" data-name="Path 12838" d="M0,0,.25-13.029a31.276,31.276,0,0,0-6.069.475L-3.543.278A18.3,18.3,0,0,1,0,0" transform="translate(299.142 7003.046)" fill="#ff361e"/>
      <path id="Path_12917" data-name="Path 12917" d="M0,0C.231-.659.877-1.709-.082-2.7A15.4,15.4,0,0,0-5.088-5.222a.7.7,0,0,0-.335-.04.6.6,0,0,0-.316.286A15.8,15.8,0,0,0-7.512-.369a27.088,27.088,0,0,0-.973,5.9,1.344,1.344,0,0,0,1,1.367l2.982.8a1.3,1.3,0,0,0,1.6-.953" transform="translate(414.667 6953.635)" fill="#ff3b00"/>
      <path id="Path_12918" data-name="Path 12918" d="M0,0Q-.746.808-1.431,1.652C-5.764,6.973-9.078,13.991-5.624,20.669c2.331,4.506,7.584,7.072,12.657,6.957s9.888-2.6,13.589-6.074a28.5,28.5,0,0,0,8.23-14.329,14.924,14.924,0,0,0,.063-7.568c-1.67-5.587-8.15-8.716-13.945-8.064C9.116-7.749,3.945-4.28,0,0" transform="translate(285.713 7022.348)" fill="#ff3b00"/>
      <path id="Path_12919" data-name="Path 12919" d="M0,0Q-.746.808-1.431,1.652C-5.764,6.973-9.078,13.991-5.624,20.669c2.331,4.506,7.584,7.072,12.657,6.957s9.888-2.6,13.589-6.074a28.5,28.5,0,0,0,8.23-14.329,14.924,14.924,0,0,0,.063-7.568c-1.67-5.587-8.15-8.717-13.945-8.064C9.116-7.749,3.945-4.28,0,0" transform="translate(332.509 7028.197)" fill="#ff3b00"/>
      <path id="Path_12920" data-name="Path 12920" d="M0,0C-.006-.033-.01-.066-.015-.1c0-.01,0,.035,0-.01,0-.021,0-.043-.007-.065-.011-.1-.02-.189-.028-.285-.019-.225-.031-.451-.041-.678-.025-.541-.035-1.084-.034-1.627,0-.5.007-1,.039-1.493a4.371,4.371,0,0,1,.3-1.536,1.581,1.581,0,0,1,.549-.66c.309-.214.645-.384.953-.6A11.327,11.327,0,0,0,3.417-8.515a9.273,9.273,0,0,0,2.2-3.773,8.33,8.33,0,0,0-.19-4.621c-.025-.085-.051-.169-.078-.253-.016-.049-.032-.1-.049-.147a.326.326,0,0,0-.022-.062c-.014-.027,0-.066-.022-.014-.02.032-.039.065-.057.1-.04.036-.013.01.006,0s.041-.022.062-.033c.038-.02.074-.041.112-.06a3.4,3.4,0,0,0,.541-.321,3.521,3.521,0,0,0,.832-.914,1.183,1.183,0,0,0,.21-1.132.8.8,0,0,0-.93-.394A3.21,3.21,0,0,1,3.8-20.389a6.318,6.318,0,0,1-.954-.7c-.343-.287-.692-.566-1.043-.844q-.624-.494-1.261-.972c-.347-.261-.69-.543-1.061-.771-.242-.148-.464.233-.222.381.19.117.366.255.547.388q.387.285.77.577.744.564,1.47,1.152c.43.347.841.728,1.3,1.034a3.285,3.285,0,0,0,1.633.531,3.87,3.87,0,0,0,.753-.025c.116-.015.232-.033.347-.057a.558.558,0,0,1,.286-.019c.517.16.057.827-.123,1.074a2.8,2.8,0,0,1-.556.574,4.076,4.076,0,0,1-.582.34c-.05.026-.1.05-.15.08a.3.3,0,0,0-.1.4c.1.292.19.589.265.888A10.183,10.183,0,0,1,5.4-14.6a5.984,5.984,0,0,1-.109,1.816A8.586,8.586,0,0,1,3.822-9.673a10.092,10.092,0,0,1-2.513,2.36A4.374,4.374,0,0,0,0-6.322,3.033,3.033,0,0,0-.454-4.989,16.634,16.634,0,0,0-.568-2.638c0,.787.014,1.58.093,2.364.013.131.028.262.05.391A.223.223,0,0,0-.154.271.226.226,0,0,0,0,0" transform="translate(401.649 6948.104)"/>
      <path id="Path_12921" data-name="Path 12921" d="M0,0A3.8,3.8,0,0,1-1.237,1.47a3.017,3.017,0,0,1-1.834.5A3.439,3.439,0,0,1-5.882.111a5.107,5.107,0,0,1-.5-3.234A4.05,4.05,0,0,1-4.742-5.882a3.362,3.362,0,0,1,3.012-.4,3.069,3.069,0,0,1,.358.155.234.234,0,0,0,.311-.082.23.23,0,0,0-.082-.31,3.8,3.8,0,0,0-3.46.027A4.294,4.294,0,0,0-6.73-3.655,5.738,5.738,0,0,0-6.441,0,3.975,3.975,0,0,0-3.579,2.363a3.559,3.559,0,0,0,2.13-.255A3.845,3.845,0,0,0,.128.688,4.865,4.865,0,0,0,.392.229.232.232,0,0,0,.31-.081.228.228,0,0,0,0,0" transform="translate(400.458 6935.232)"/>
      <path id="Path_12922" data-name="Path 12922" d="M0,0A2.6,2.6,0,0,0,1.406-3.081a4,4,0,0,1,.138-3.253C4.3-10.418,7.379-7.359,7.379-7.359a5.376,5.376,0,0,0-.909-4.053l.956-.442A2.943,2.943,0,0,0,9.1-14.991l-.009-.055A17.385,17.385,0,0,1,4.269-13.02c-2.214.54-5.55,1.2-7.324,4.513a9.33,9.33,0,0,0-.723,6.074,7.952,7.952,0,0,0,.209.848A2.591,2.591,0,0,0,0,0" transform="translate(392.623 6937.377)"/>
      <path id="Path_12923" data-name="Path 12923" d="M0,0C1.663.228,3.505.49,4.693,1.8a3.059,3.059,0,0,1,.633,1.061c.09.268.515.153.425-.117A3.9,3.9,0,0,0,4.258.84a6.668,6.668,0,0,0-2.5-1C1.212-.275.664-.35.117-.425a.229.229,0,0,0-.271.154A.222.222,0,0,0,0,0" transform="translate(356.981 6974.932)"/>
      <path id="Path_12924" data-name="Path 12924" d="M0,0A9.084,9.084,0,0,1,1.751-3.043a10.182,10.182,0,0,1,2.3-1.912,18.125,18.125,0,0,1,2.294-1.17c1.183-.518,2.367-1.034,3.537-1.582q3.951-1.848,7.745-4.008t7.428-4.627q3.606-2.451,7.01-5.183.414-.332.824-.668c.22-.18-.093-.49-.311-.312q-3.4,2.782-7.017,5.282t-7.415,4.7q-3.8,2.2-7.767,4.093-1.927.921-3.889,1.763A22.561,22.561,0,0,0,4.243-5.584,10.082,10.082,0,0,0-.079-.994q-.192.431-.346.877C-.518.152-.092.267,0,0" transform="translate(361.271 6980.763)"/>
      <path id="Path_12925" data-name="Path 12925" d="M0,0A22.2,22.2,0,0,0-1.125-3.907,18.722,18.722,0,0,0-2.258-6.35a7.264,7.264,0,0,0-.694-1.031,2.256,2.256,0,0,0-.855-.7.937.937,0,0,0-1,.175A1.424,1.424,0,0,0-5.029-6.34a8.567,8.567,0,0,0,.394.907c.145.3.277.6.4.91l.893,2.235.424-.117A3.9,3.9,0,0,0-4.572-4.042c-.312-.2-.634-.378-.954-.561a14.172,14.172,0,0,0-1.256-.676,2.482,2.482,0,0,0-1.271-.3A1,1,0,0,0-8.917-5a1.025,1.025,0,0,0,.281.975,6.739,6.739,0,0,0,.725.748A11.125,11.125,0,0,0-5.13-1.325c.056-.135.113-.269.169-.4A25.418,25.418,0,0,0-7.769-2.21a10.362,10.362,0,0,0-1.387-.049c-.231.009-.463.028-.693.057a2.226,2.226,0,0,0-.617.13.9.9,0,0,0-.227,1.449,1.535,1.535,0,0,0,.514.27c.213.081.433.148.651.216q.677.208,1.364.382a27.131,27.131,0,0,0,3.174.6c.245.031.3-.384.058-.433A12.616,12.616,0,0,0-8.251.177,12.765,12.765,0,0,0-9.9.393c-.407.08-.877.136-1.077.556a.861.861,0,0,0,.163.986,1.431,1.431,0,0,0,.486.269,4.549,4.549,0,0,0,.507.166,10.74,10.74,0,0,0,2.5.307,20.646,20.646,0,0,0,2.813-.121.227.227,0,0,0,.22-.22.221.221,0,0,0-.22-.22,21.435,21.435,0,0,1-2.308.127,12.779,12.779,0,0,1-2.392-.186,5.458,5.458,0,0,1-.99-.273.878.878,0,0,1-.338-.2c-.03-.035-.014-.018-.009-.01a.494.494,0,0,1-.03-.049.3.3,0,0,1-.021-.04c-.017-.037.013.045-.007-.021a.371.371,0,0,1-.022-.172c0-.01.007-.057,0-.019l.009-.044a.484.484,0,0,1,.027-.084c-.013.031.007-.011.012-.018s.018-.033.029-.048a.258.258,0,0,1,.054-.059.461.461,0,0,1,.131-.076A3.275,3.275,0,0,1-10.01.864,11.842,11.842,0,0,1-8.5.637a12.152,12.152,0,0,1,3.452.2C-5.029.69-5.01.545-4.99.4Q-6.283.234-7.554-.061-8.2-.211-8.843-.394c-.416-.118-.836-.237-1.239-.391a1.564,1.564,0,0,1-.226-.1.387.387,0,0,1-.122-.1.478.478,0,0,1-.1-.23c0,.01,0-.053,0-.068s.006-.077,0-.038a.634.634,0,0,1,.019-.084c0-.011.03-.08.016-.048a.393.393,0,0,1,.178-.2,1.411,1.411,0,0,1,.447-.1c.21-.029.422-.046.633-.056a9.8,9.8,0,0,1,1.282.028A22.985,22.985,0,0,1-5.078-1.3a.222.222,0,0,0,.26-.128.219.219,0,0,0-.09-.275A10.177,10.177,0,0,1-7.271-3.294c-.251-.221-.5-.449-.735-.688a3.372,3.372,0,0,1-.325-.371,1.632,1.632,0,0,1-.122-.188A.528.528,0,0,1-8.516-4.7c-.017-.06,0,.025,0-.01,0-.014,0-.028,0-.042A.176.176,0,0,1-8.51-4.83a.342.342,0,0,1,.066-.124.59.59,0,0,1,.323-.171.757.757,0,0,1,.2-.026,1.011,1.011,0,0,1,.188.009,3.038,3.038,0,0,1,.638.2A10.364,10.364,0,0,1-5.888-4.3c.289.167.582.328.867.5a7.711,7.711,0,0,1,1.008.7,2.382,2.382,0,0,1,.672.813.226.226,0,0,0,.27.154A.222.222,0,0,0-2.917-2.4l-.762-1.91c-.117-.292-.227-.588-.355-.875-.114-.256-.242-.505-.36-.759a1.859,1.859,0,0,1-.269-1.4.638.638,0,0,1,.193-.259.58.58,0,0,1,.082-.05l.049-.025c-.049.022.021-.005.031-.008a.717.717,0,0,1,.083-.019c-.059.01.039,0,.058,0s.033,0,.05,0c.057,0-.047-.011.009,0,.034.008.067.015.1.026l.05.017c.056.021-.04-.02.014.007.028.013.056.027.083.042s.067.041.1.063l.049.034c.03.022-.009-.009.029.023a3.048,3.048,0,0,1,.373.372,6.382,6.382,0,0,1,.635.934A17.067,17.067,0,0,1-1.641-4.019,22.225,22.225,0,0,1-.425.117.222.222,0,0,0-.154.271.225.225,0,0,0,0,0" transform="translate(418.03 6960.607)"/>
      <path id="Path_12926" data-name="Path 12926" d="M0,0A7.38,7.38,0,0,1,3.439,1.646a7.209,7.209,0,0,1,1.3,1.36,9.247,9.247,0,0,1,.989,1.841,17.907,17.907,0,0,1,1.065,3.9l.027.176c0,.015,0,.029.005.043.005.037-.007-.055,0,0,.005.037.009.074.014.111.019.153.035.307.051.46.038.384.069.768.1,1.152.155,2.171.228,4.349.294,6.523q.057,1.838.094,3.676c.025,1.144.07,2.292.059,3.436A3.247,3.247,0,0,1,5.971,27a3.282,3.282,0,0,1-2.288.49L.338,27-4,26.352c-.28-.041-.562-.08-.841-.125a3.272,3.272,0,0,1-2.45-1.84A3.29,3.29,0,0,1-7.4,21.949l.468-1.437q.658-2.022,1.316-4.045c.029-.09.059-.181.088-.272.088-.271-.337-.386-.425-.117q-.542,1.667-1.085,3.334-.324,1-.651,2a5.03,5.03,0,0,0-.335,1.711,3.721,3.721,0,0,0,1.5,2.869,3.929,3.929,0,0,0,1.822.7l3.825.568,4.106.608a5.12,5.12,0,0,0,1.553.058,3.668,3.668,0,0,0,3.089-3.517c.017-.558-.012-1.121-.022-1.679q-.031-1.833-.078-3.665c-.06-2.368-.133-4.736-.265-7.1-.048-.845-.1-1.691-.188-2.533a18.533,18.533,0,0,0-.557-2.868A11.307,11.307,0,0,0,4.995,2.618,8.453,8.453,0,0,0,1.894.147,6.668,6.668,0,0,0,.118-.425a.226.226,0,0,0-.271.154A.221.221,0,0,0,0,0" transform="translate(389.353 6949.886)"/>
      <path id="Path_12927" data-name="Path 12927" d="M0,0A9.191,9.191,0,0,0,.5-1.5,2.36,2.36,0,0,0,.062-3.378a3.654,3.654,0,0,0-.867-.768c-.405-.281-.827-.537-1.254-.782A22.236,22.236,0,0,0-5.4-6.517c-.267-.1-.537-.189-.81-.267-.129-.036-.259-.069-.389-.1a.985.985,0,0,0-.6-.029c-.342.133-.534.529-.711.826A11.362,11.362,0,0,0-8.447-5.07,28.173,28.173,0,0,0-9.918-.66a36.321,36.321,0,0,0-1.02,4.972q-.164,1.247-.233,2.5a2.117,2.117,0,0,0,.156.989,1.875,1.875,0,0,0,.547.718,2.351,2.351,0,0,0,.89.412l.907.243,2.291.612a5.32,5.32,0,0,0,.569.143,1.884,1.884,0,0,0,1.7-.583,1.9,1.9,0,0,0,.432-.813.22.22,0,0,0-.424-.117A1.448,1.448,0,0,1-5.17,9.482a1.682,1.682,0,0,1-.842-.051l-2-.536c-.539-.144-1.079-.285-1.618-.433a1.49,1.49,0,0,1-1.018-.927,2.293,2.293,0,0,1-.069-.933q.037-.606.1-1.21A34.067,34.067,0,0,1-9.8.624c.184-.751.394-1.5.6-2.24.2-.712.414-1.422.669-2.118A12.948,12.948,0,0,1-7.6-5.747c.093-.158.188-.315.289-.468A.7.7,0,0,1-7.052-6.5a.359.359,0,0,1,.222.012l.231.057c.127.032.254.067.38.105a17.617,17.617,0,0,1,3.2,1.371q.714.378,1.4.8c.186.116.371.235.552.359.078.053.155.107.231.163l.091.067.014.011.048.038a2.064,2.064,0,0,1,.765,1.2A2.853,2.853,0,0,1-.174-.757c-.082.213-.175.424-.251.64A.222.222,0,0,0-.271.154.225.225,0,0,0,0,0" transform="translate(415.935 6954.674)"/>
      <path id="Path_12928" data-name="Path 12928" d="M0,0A31.689,31.689,0,0,0-7.068,11.367a16.837,16.837,0,0,0-.854,6.317,14.392,14.392,0,0,0,1.885,6.193,15.133,15.133,0,0,0,8.97,6.7A18.725,18.725,0,0,0,14.96,29.8a27.635,27.635,0,0,0,10.46-7.538A32.278,32.278,0,0,0,31.787,11.2c1.392-4.165,2.235-9.044.242-13.157a13.724,13.724,0,0,0-7.9-6.651,16.665,16.665,0,0,0-5.269-.95,19.1,19.1,0,0,0-5.9.913,28.606,28.606,0,0,0-10.8,6.481Q1.035-1.124,0,0C-.192.208.119.521.312.312A31.746,31.746,0,0,1,10.18-7.1,19.012,19.012,0,0,1,21.443-8.859,14.719,14.719,0,0,1,30.314-3.84a10.979,10.979,0,0,1,2.235,4.9,17.664,17.664,0,0,1-.366,7.1A31.673,31.673,0,0,1,27,19.573,29.15,29.15,0,0,1,17.67,28.03,20.039,20.039,0,0,1,5.776,30.7a15.786,15.786,0,0,1-9.814-4.843,13.942,13.942,0,0,1-3.3-11.5A25.536,25.536,0,0,1-1.872,2.893Q-.836,1.557.312.312C.5.1.192-.209,0,0" transform="translate(330.765 7025.032)"/>
      <path id="Path_12929" data-name="Path 12929" d="M0,0A21.292,21.292,0,0,0-4.752,7.644,11.344,11.344,0,0,0-5.327,11.9a9.721,9.721,0,0,0,1.272,4.183A10.214,10.214,0,0,0,2,20.6a12.6,12.6,0,0,0,8.093-.521,18.587,18.587,0,0,0,7.037-5.066A21.694,21.694,0,0,0,21.41,7.575c.94-2.81,1.5-6.095.155-8.868A9.258,9.258,0,0,0,16.23-5.78a11.234,11.234,0,0,0-3.548-.64A12.846,12.846,0,0,0,8.711-5.8,19.243,19.243,0,0,0,1.443-1.446Q.693-.753,0,0C-.192.208.119.521.312.312A21.189,21.189,0,0,1,6.906-4.643a12.657,12.657,0,0,1,7.487-1.169A9.8,9.8,0,0,1,20.3-2.469,7.273,7.273,0,0,1,21.78.783a11.746,11.746,0,0,1-.245,4.72,21.166,21.166,0,0,1-3.46,7.62,19.446,19.446,0,0,1-6.226,5.637A13.359,13.359,0,0,1,3.92,20.54,10.5,10.5,0,0,1-2.6,17.318,9.258,9.258,0,0,1-4.79,9.686,17.034,17.034,0,0,1-1.151,2.04Q-.457,1.146.312.312C.5.1.193-.209,0,0" transform="translate(336.947 7030.461)"/>
      <path id="Path_12930" data-name="Path 12930" d="M0,0A31.68,31.68,0,0,0-7.068,11.367a16.834,16.834,0,0,0-.854,6.317,14.383,14.383,0,0,0,1.885,6.192,15.131,15.131,0,0,0,8.97,6.7A18.719,18.719,0,0,0,14.96,29.8a27.622,27.622,0,0,0,10.46-7.537A32.278,32.278,0,0,0,31.787,11.2c1.392-4.165,2.235-9.044.242-13.157a13.721,13.721,0,0,0-7.9-6.651,16.665,16.665,0,0,0-5.269-.95,19.069,19.069,0,0,0-5.9.913,28.614,28.614,0,0,0-10.8,6.481Q1.035-1.124,0,0C-.192.208.119.521.312.312A31.73,31.73,0,0,1,10.18-7.1,19.021,19.021,0,0,1,21.443-8.86a14.725,14.725,0,0,1,8.871,5.02,10.979,10.979,0,0,1,2.235,4.9,17.664,17.664,0,0,1-.366,7.1,31.676,31.676,0,0,1-5.177,11.4,29.141,29.141,0,0,1-9.336,8.457A20.032,20.032,0,0,1,5.776,30.7a15.791,15.791,0,0,1-9.814-4.843,13.942,13.942,0,0,1-3.3-11.5A25.531,25.531,0,0,1-1.872,2.893Q-.836,1.557.312.312C.5.1.192-.209,0,0" transform="translate(284.788 7018.014)"/>
      <path id="Path_12931" data-name="Path 12931" d="M0,0A21.284,21.284,0,0,0-4.752,7.644,11.344,11.344,0,0,0-5.327,11.9a9.725,9.725,0,0,0,1.272,4.183A10.211,10.211,0,0,0,2,20.6a12.6,12.6,0,0,0,8.093-.521,18.587,18.587,0,0,0,7.037-5.066A21.694,21.694,0,0,0,21.41,7.575c.94-2.81,1.5-6.095.155-8.868A9.261,9.261,0,0,0,16.23-5.78a11.234,11.234,0,0,0-3.548-.64A12.846,12.846,0,0,0,8.711-5.8,19.243,19.243,0,0,0,1.443-1.446Q.693-.753,0,0C-.192.208.119.521.312.312A21.189,21.189,0,0,1,6.906-4.643a12.647,12.647,0,0,1,7.486-1.169A9.8,9.8,0,0,1,20.3-2.469,7.3,7.3,0,0,1,21.78.783a11.765,11.765,0,0,1-.245,4.72,21.171,21.171,0,0,1-3.46,7.619,19.437,19.437,0,0,1-6.226,5.638A13.359,13.359,0,0,1,3.92,20.54,10.492,10.492,0,0,1-2.6,17.317,9.256,9.256,0,0,1-4.79,9.686,17.029,17.029,0,0,1-1.151,2.04Q-.457,1.144.312.312C.5.1.193-.209,0,0" transform="translate(289.04 7021.861)"/>
      <path id="Path_12932" data-name="Path 12932" d="M0,0A42.84,42.84,0,0,1,4.379.461.228.228,0,0,0,4.651.307.223.223,0,0,0,4.5.036,44.008,44.008,0,0,0,0-.441C-.283-.456-.283-.015,0,0" transform="translate(396.771 6965.35)"/>
      <path id="Path_12933" data-name="Path 12933" d="M0,0A15.561,15.561,0,0,0,1.579,2.194c.642.767,1.329,1.5,2.038,2.2A42.733,42.733,0,0,0,7.486,7.829a17.69,17.69,0,0,0,2.026,1.36A10.2,10.2,0,0,0,12.948,10.5a5.684,5.684,0,0,0,1.722.039,4.118,4.118,0,0,0,3.26-2.658,5.629,5.629,0,0,0,.091-3.174,7.811,7.811,0,0,0-1.384-2.948,7.284,7.284,0,0,0-.508-.6c-.2-.206-.508.106-.312.312A7.2,7.2,0,0,1,17.4,4.133a5.949,5.949,0,0,1,.275,3.031,3.685,3.685,0,0,1-1.428,2.267,3.8,3.8,0,0,1-1.216.587,4.32,4.32,0,0,1-1.494.114A8.638,8.638,0,0,1,10.21,9.07,16.364,16.364,0,0,1,7.971,7.65L7.9,7.6l-.043-.033-.014-.011-.186-.144c-.128-.1-.257-.2-.384-.309q-.45-.366-.89-.746Q5.354,5.465,4.375,4.521C3.668,3.838,2.98,3.132,2.33,2.394A18.586,18.586,0,0,1,.69.282C.583.116.479-.052.381-.222A.221.221,0,0,0,0,0" transform="translate(401.844 6959.348)"/>
      <path id="Path_12934" data-name="Path 12934" d="M0,0C-.787,3.947-1.784,7.85-2.924,11.71c-1.167,3.95-2.482,7.855-3.887,11.726C-8.232,27.35-9.745,31.23-11.3,35.092c-1.548,3.845-3.14,7.673-4.729,11.5-1.555,3.747-3.107,7.494-4.609,11.263q-.277.7-.551,1.393a.222.222,0,0,0,.153.271l6.766,2.044.965.291a.226.226,0,0,0,.249-.1q2.192-3.675,4.482-7.29c1.155-1.832,2.321-3.659,3.439-5.515q1.8-2.991,3.42-6.085C-.159,39.9,1.3,36.88,2.724,33.848,4.958,29.094,7.107,24.3,9.235,19.5q.5-1.124.995-2.249c.114-.257-.266-.482-.38-.223C7.611,22.1,5.353,27.166,3.013,32.193c-1.5,3.214-3.022,6.415-4.649,9.565C-2.74,43.9-3.9,46-5.125,48.072c-1.09,1.835-2.232,3.639-3.372,5.444-1.453,2.3-2.894,4.611-4.3,6.943-.215.358-.429.715-.643,1.074l.249-.1-6.766-2.044c-.322-.1-.643-.194-.965-.291l.155.271c1.481-3.758,3.02-7.494,4.567-11.227,1.585-3.823,3.178-7.642,4.734-11.476,1.567-3.86,3.1-7.735,4.54-11.642,1.43-3.871,2.777-7.774,3.982-11.721C-1.762,9.439-.717,5.534.123,1.584Q.279.852.425.117C.48-.16.056-.278,0,0" transform="translate(384.8 6976.375)"/>
      <path id="Path_12935" data-name="Path 12935" d="M0,0A21.464,21.464,0,0,0-6.93-.591,34.534,34.534,0,0,0-12.7.268,40.137,40.137,0,0,0-23.231,4.447a47.925,47.925,0,0,0-9.15,6.765A49.89,49.89,0,0,0-39.618,19.7a45.045,45.045,0,0,0-2.72,4.589,40.923,40.923,0,0,0-2.293,5.257c-.168.484-.319.974-.461,1.468a.221.221,0,0,0,.425.117,35.791,35.791,0,0,1,2.16-5.509,43.614,43.614,0,0,1,2.548-4.6,48.976,48.976,0,0,1,6.85-8.495,48.131,48.131,0,0,1,8.847-6.963,40.782,40.782,0,0,1,10.243-4.5A34.806,34.806,0,0,1-8.508-.014a24.606,24.606,0,0,1,6.76.08Q-.924.205-.117.425A.221.221,0,0,0,0,0" transform="translate(352.561 6978.006)"/>
      <path id="Path_12936" data-name="Path 12936" d="M0,0A38.72,38.72,0,0,0,4.438-7.346a32.961,32.961,0,0,0,2.476-7.682,26.456,26.456,0,0,0,.334-7.716,23.658,23.658,0,0,0-2.016-7.325A22.538,22.538,0,0,0,1-36.263q-.332-.342-.674-.669c-.206-.2-.518.115-.312.311a22.216,22.216,0,0,1,4.445,5.956A22.947,22.947,0,0,1,6.7-23.586a25.393,25.393,0,0,1-.07,7.627A31.869,31.869,0,0,1,4.427-8.4,38.113,38.113,0,0,1,.255-1.076q-.312.431-.636.854C-.553,0-.17.223,0,0" transform="translate(359.958 7019.438)"/>
      <path id="Path_12937" data-name="Path 12937" d="M0,0A21.534,21.534,0,0,0-5.913.132a28.56,28.56,0,0,0-4.809,1.144A34.024,34.024,0,0,0-19.6,5.8a39.436,39.436,0,0,0-7.334,6.7,36.906,36.906,0,0,0-5.211,7.945,30.206,30.206,0,0,0-1.346,3.436q-.631,1.87-1.2,3.762c-.061.2-.122.409-.181.614a.221.221,0,0,0,.425.117c.324-1.133.685-2.257,1.051-3.378s.735-2.3,1.2-3.377a34.639,34.639,0,0,1,4.812-7.879A39.223,39.223,0,0,1-20.374,6.9,34.525,34.525,0,0,1-11.76,2.108,26.364,26.364,0,0,1-1.507.311Q-.751.342,0,.441C.119.457.219.328.221.221A.226.226,0,0,0,0,0" transform="translate(347.372 6983.277)"/>
      <path id="Path_12938" data-name="Path 12938" d="M0,0A30.759,30.759,0,0,0,3.348-5.46a26.686,26.686,0,0,0,1.989-5.75,21.576,21.576,0,0,0,.491-5.783,18.877,18.877,0,0,0-1.22-5.754,18.058,18.058,0,0,0-2.9-4.972q-.228-.277-.467-.545c-.19-.212-.5.1-.312.312a17.569,17.569,0,0,1,3.03,4.774,18.211,18.211,0,0,1,1.381,5.537,20.736,20.736,0,0,1-.306,5.713A25.626,25.626,0,0,1,3.25-6.3,30.214,30.214,0,0,1,.1-.875c-.159.22-.321.437-.486.653A.222.222,0,0,0-.3.079.227.227,0,0,0,0,0" transform="translate(355.089 7016.508)"/>
      <path id="Path_12939" data-name="Path 12939" d="M0,0A3.146,3.146,0,0,0-.2-3.02c-.155-.236-.537-.016-.381.223A2.693,2.693,0,0,1-.381-.222.228.228,0,0,0-.3.079.223.223,0,0,0,0,0" transform="translate(361.433 6983.803)"/>
      <path id="Path_12940" data-name="Path 12940" d="M0,0A10.16,10.16,0,0,0,.954,3.341,18.457,18.457,0,0,1,2.2,6.793,10.8,10.8,0,0,1,2.446,9.04c0,.219,0,.437-.014.656,0,.051-.01.1-.008.155a.44.44,0,0,0,.067.184c.046.085.092.171.139.256a9.149,9.149,0,0,0,.6.94,7.8,7.8,0,0,0,3.752,2.755,7.366,7.366,0,0,0,5.111-.028q.3-.122.584-.271c.252-.132.029-.512-.222-.38a6.611,6.611,0,0,1-4.574.48,7.4,7.4,0,0,1-3.75-2.151,8.514,8.514,0,0,1-1.3-1.9c.009.037.02.074.029.111a11.71,11.71,0,0,0-.632-4.567C1.827,4.136,1.258,3.072.863,1.942A7.581,7.581,0,0,1,.441,0,.226.226,0,0,0,.22-.221.223.223,0,0,0,0,0" transform="translate(388.867 6934.666)"/>
      <path id="Path_12941" data-name="Path 12941" d="M0,0A1.145,1.145,0,0,1-.435.8a1.789,1.789,0,0,1-.8.444A1.339,1.339,0,0,1-2.707.53,2.606,2.606,0,0,1-2.98-.605a.251.251,0,0,0-.247-.246.248.248,0,0,0-.246.246A2.494,2.494,0,0,0-2.4,1.542,1.923,1.923,0,0,0-.176,1.234,1.672,1.672,0,0,0,.494,0,.247.247,0,0,0,0,0" transform="translate(400.586 6951.933)"/>
      <path id="Path_12942" data-name="Path 12942" d="M0,0Q.534,2.256.891,4.547c.117.753.24,1.511.3,2.271a3.119,3.119,0,0,1-.063,1.077,3.285,3.285,0,0,1-.437.9c-.473.726-1,1.419-1.5,2.125h.381q-.476-.97-.949-1.94A6.917,6.917,0,0,1-1.806,8a3.768,3.768,0,0,1-.108-1.765q.155-.87.308-1.739.244-1.375.488-2.751c.1-.557.2-1.114.3-1.673,0-.008,0-.017,0-.025A.226.226,0,0,0-.972-.224a.222.222,0,0,0-.271.153q-.124.708-.25,1.413-.244,1.383-.49,2.765-.171.974-.344,1.945a4.549,4.549,0,0,0-.04,1.454,4.855,4.855,0,0,0,.489,1.449l1.042,2.131.027.056a.224.224,0,0,0,.381,0C.03,10.5.5,9.859.944,9.21a4.712,4.712,0,0,0,.526-.943,2.863,2.863,0,0,0,.182-1.1,10.189,10.189,0,0,0-.109-1.142q-.076-.6-.165-1.19Q1.2,3.662.983,2.5.732,1.184.425-.117C.36-.393-.065-.276,0,0" transform="translate(399.528 6953.429)"/>
      <path id="Path_12943" data-name="Path 12943" d="M0,0Q-.981,2.154-2.1,4.238q-.316.59-.644,1.172a.223.223,0,0,0,.131.323L1.012,6.956l.9.3a1.556,1.556,0,0,1,.648.286A.409.409,0,0,1,2.6,7.6c0,.016.013.023,0,.04a.518.518,0,0,1-.245.12c-.242.071-.488.134-.733.2a28,28,0,0,1-6.4.763,25.941,25.941,0,0,1-3.424-.176l.191.332c.158-.331.318-.662.477-.993Q-6.973,6.7-6.4,5.521l1.385-2.877q.6-1.238,1.193-2.477c.193-.4.392-.8.58-1.2a.089.089,0,0,1,.008-.017.228.228,0,0,0-.079-.3.224.224,0,0,0-.3.079L-4.1-.284-5.233,2.079-6.619,4.956q-.6,1.238-1.192,2.477c-.194.4-.392.8-.58,1.2,0,.006-.005.012-.008.017a.224.224,0,0,0,.19.332A28.239,28.239,0,0,0-1.6,8.965a26.375,26.375,0,0,0,3.348-.586c.259-.064.52-.127.774-.209s.495-.236.514-.524a.667.667,0,0,0-.412-.587,5.619,5.619,0,0,0-.873-.317L-2.5,5.309l.132.323q1.16-2.062,2.181-4.2Q.1.831.381.223A.229.229,0,0,0,.3-.079.222.222,0,0,0,0,0" transform="translate(367.25 7036.85)"/>
      <path id="Path_12944" data-name="Path 12944" d="M0,0C.207.344.428.683.619,1.036c.083.154.144.319.215.478.126.277.259.55.393.823a.221.221,0,0,0,.3.079L4.519.171l.738-.554A2.665,2.665,0,0,1,5.9-.82a.368.368,0,0,1,.123-.028c.018,0,.046.012.035,0,.064.064.026.168,0,.245-.072.24-.162.477-.25.712a27.985,27.985,0,0,1-3,5.736A25.632,25.632,0,0,1,.736,8.567l.346.044-1.227-2.2q-.977-1.75-1.954-3.5l-.445-.8c-.139-.247-.519-.025-.381.223l1.227,2.2,1.954,3.5q.223.4.445.8a.223.223,0,0,0,.347.044,28.54,28.54,0,0,0,3.767-5.52A26.313,26.313,0,0,0,6.222.261c.092-.246.189-.494.262-.746a.606.606,0,0,0-.2-.738.744.744,0,0,0-.721.077,7.284,7.284,0,0,0-.736.541L1.306,2.035l.3.079C1.43,1.753,1.254,1.39,1.1,1.02A3.642,3.642,0,0,0,.851.558C.695.3.538.038.38-.223A.22.22,0,0,0,0,0" transform="translate(425.32 7038.551)"/>
      <path id="Path_12945" data-name="Path 12945" d="M0,0C.664,1.926,1.261,3.876,1.745,5.855a47.048,47.048,0,0,1,1.143,6.593c.132,1.352.2,2.711.2,4.069a.221.221,0,0,0,.441,0,43.093,43.093,0,0,0-.6-7.126A53.17,53.17,0,0,0,1.451,3.078Q.975,1.469.425-.117A.225.225,0,0,0,.154-.271.223.223,0,0,0,0,0" transform="translate(305.371 7016.482)"/>
      <path id="Path_12946" data-name="Path 12946" d="M0,0C.425,1.581.836,3.167,1.216,4.759c.347,1.454.669,2.914.953,4.381q.413,2.124.712,4.266.3,2.191.486,4.4c.135,1.607.226,3.218.288,4.83q.012.326.022.649c.01.283.45.284.441,0C4.064,21.639,3.98,20,3.853,18.36q-.175-2.241-.466-4.472Q3.1,11.723,2.7,9.578c-.272-1.457-.583-2.907-.921-4.351C1.41,3.648,1.01,2.077.593.51L.425-.117A.221.221,0,0,0,0,0" transform="translate(299.514 7015.947)"/>
      <path id="Path_12947" data-name="Path 12947" d="M0,0C.372,1.608.732,3.22,1.066,4.837c.309,1.494.594,2.992.846,4.5q.36,2.163.618,4.343.264,2.253.41,4.518.158,2.438.2,4.882.006.321.011.643a.22.22,0,0,0,.44,0c-.024-1.657-.078-3.313-.176-4.966Q3.28,16.472,3.031,14.2q-.246-2.22-.6-4.425c-.24-1.494-.516-2.984-.816-4.467C1.287,3.7.935,2.106.57.51.522.3.474.091.425-.118.361-.394-.064-.277,0,0" transform="translate(292.67 7018.844)"/>
      <path id="Path_12948" data-name="Path 12948" d="M0,0C.312,1.358.63,2.714.939,4.072c.244,1.072.482,2.146.686,3.226.177.931.325,1.851.425,2.775s.157,1.872.169,2.811c.015,1.09-.024,2.18-.091,3.268-.009.153-.02.307-.03.461a.222.222,0,0,0,.22.22.226.226,0,0,0,.221-.22c.076-1.121.127-2.244.124-3.368,0-.953-.046-1.9-.139-2.854S2.291,8.5,2.121,7.56c-.192-1.055-.418-2.1-.654-3.148C1.17,3.091.86,1.772.556.453Q.492.168.425-.117C.361-.394-.064-.276,0,0" transform="translate(286.791 7024.723)"/>
      <path id="Path_12949" data-name="Path 12949" d="M0,0C-1.143.6-2.262,1.241-3.364,1.911q-1.86,1.132-3.654,2.37Q-8.917,5.587-10.737,7c-1.2.934-2.372,1.906-3.5,2.925a42.725,42.725,0,0,0-3.054,3.025q-.171.188-.337.378a.249.249,0,0,0,0,.343.245.245,0,0,0,.343,0,40.233,40.233,0,0,1,2.968-3.017c1.113-1.027,2.271-2.005,3.457-2.945S-8.451,5.868-7.207,5q1.8-1.254,3.658-2.407C-2.435,1.9-1.3,1.245-.15.627q.2-.1.4-.208C.521.274.276-.145,0,0" transform="translate(302.101 7015.468)"/>
      <path id="Path_12950" data-name="Path 12950" d="M0,0A48.415,48.415,0,0,0-4.407,2.069C-6.084,2.95-7.723,3.9-9.331,4.9q-2.634,1.638-5.156,3.446-2.6,1.863-5.075,3.9c-1.6,1.321-3.152,2.7-4.632,4.153-.177.174-.352.349-.527.524a.243.243,0,0,0,.343.343c1.448-1.456,2.97-2.838,4.54-4.16q2.422-2.042,4.991-3.9Q-12.34,7.38-9.719,5.719c1.618-1.025,3.268-2,4.955-2.911C-3.334,2.037-1.851,1.3-.369.673q.247-.1.5-.2A.25.25,0,0,0,.3.169.244.244,0,0,0,0,0" transform="translate(308.722 7018.163)"/>
      <path id="Path_12951" data-name="Path 12951" d="M0,0C-1.591.719-3.144,1.519-4.671,2.366Q-7.242,3.794-9.712,5.393q-2.613,1.686-5.112,3.537c-1.658,1.23-3.277,2.513-4.838,3.863a57.75,57.75,0,0,0-4.215,4c-.157.165-.312.332-.466.5-.21.229.132.573.344.343a54.668,54.668,0,0,1,4.117-4.01c1.529-1.352,3.118-2.637,4.748-3.865Q-12.662,7.9-10.07,6.2q2.482-1.629,5.065-3.1c1.537-.87,3.1-1.693,4.7-2.44C-.12.585.062.5.244.419A.245.245,0,0,0,.332.087.248.248,0,0,0,0,0" transform="translate(310.9 7022.393)"/>
      <path id="Path_12952" data-name="Path 12952" d="M0,0Q-2.2,1.377-4.356,2.828q-1.924,1.3-3.8,2.678-1.773,1.3-3.5,2.677t-3.406,2.794q-1.8,1.512-3.567,3.058l-.46.4a.257.257,0,0,0,0,.362.261.261,0,0,0,.362,0q1.786-1.552,3.591-3.088,1.681-1.425,3.4-2.809,1.688-1.353,3.423-2.646,1.84-1.367,3.736-2.66Q-2.47,2.159-.313.8L.259.443C.538.268.281-.175,0,0" transform="translate(310.506 7027.776)"/>
      <path id="Path_12953" data-name="Path 12953" d="M0,0,.364,6.426q.051.91.1,1.82c.017.29.47.292.453,0L.556,1.82Q.505.911.453,0C.437-.29-.017-.292,0,0" transform="translate(404.386 6923.69)"/>
      <path id="Path_12955" data-name="Path 12955" d="M0,0A1.582,1.582,0,0,0,1.187.9.252.252,0,0,0,1.362.876.238.238,0,0,0,1.467.74.228.228,0,0,0,1.308.462,1.361,1.361,0,0,1,1.142.427C1.117.421,1.092.413,1.068.405L1.024.389c-.007,0-.05-.017-.016-.006S1,.379.993.376L.951.356C.928.345.9.332.883.32A1.467,1.467,0,0,1,.74.226C.707.2.765.247.744.229L.714.2C.692.185.671.167.651.147.612.109.577.069.541.027s.029.041,0,0C.531.014.523,0,.516-.007S.484-.054.47-.078A1.2,1.2,0,0,1,.391-.229.228.228,0,0,0,.081-.31.233.233,0,0,0,0,0" transform="translate(405.634 6931.79)"/>
      <path id="Path_12956" data-name="Path 12956" d="M0,0A10.082,10.082,0,0,1-1.656,4.5a10.781,10.781,0,0,1-1.57,1.9,8.967,8.967,0,0,1-.92.776,4.517,4.517,0,0,1-1.027.618,20.6,20.6,0,0,0-4.589,2.393c-1.221.853-2.356,1.823-3.507,2.767l-9.88,8.107-9.879,8.107-4.94,4.053c-.415.34-.819.708-1.262,1.01-.4.272-.811.528-1.221.785a13.165,13.165,0,0,0-2.241,1.647c-1.209,1.183-2.017,3.084-1.06,4.667a2.47,2.47,0,0,0,1.918,1.217,2.861,2.861,0,0,0,2.254-.915,3.627,3.627,0,0,0,.674-1,1.919,1.919,0,0,0,.233-1.146.8.8,0,0,0-.778-.636,1.127,1.127,0,0,0-.935.528,3.915,3.915,0,0,0-.412,2.593,2.686,2.686,0,0,0,1.127,2.107c1.526.936,3.257-.908,3.234-2.408a1.657,1.657,0,0,0-.351-1.053.551.551,0,0,0-.883.111A2.823,2.823,0,0,0-38.092,42a3.656,3.656,0,0,0,.049,1.327,1.753,1.753,0,0,0,1.667,1.4,2.651,2.651,0,0,0,2.043-.883,2.376,2.376,0,0,0,.624-2.232c-.122-.372-.418-.73-.84-.512a1.729,1.729,0,0,0-.693.935,2.18,2.18,0,0,0,.374,2.246,1.558,1.558,0,0,0,1.652.192,3.011,3.011,0,0,0,1.3-1.248A6.673,6.673,0,0,0-31.1,41.04a8.854,8.854,0,0,0,.118-2.594c-.028-.28-.468-.283-.44,0a7.581,7.581,0,0,1-.78,4.408,2.833,2.833,0,0,1-1.11,1.187,1.07,1.07,0,0,1-1.371-.228A1.881,1.881,0,0,1-34.6,41.76a1,1,0,0,1,.189-.216c.1-.08.149-.059.215.037a1.127,1.127,0,0,1,.127.644,2.061,2.061,0,0,1-.355,1.03,2.284,2.284,0,0,1-1.714,1.034,1.479,1.479,0,0,1-1.02-.277,1.505,1.505,0,0,1-.485-.938,3.356,3.356,0,0,1,.033-1.275c.031-.144.278-1.129.516-.869a1.334,1.334,0,0,1,.205.994,2.366,2.366,0,0,1-.394,1,1.771,1.771,0,0,1-1.927.889,2.083,2.083,0,0,1-1.144-1.844,3.52,3.52,0,0,1,.352-2.37c.179-.242.671-.505.867-.126.157.3-.058.754-.192,1.028a2.826,2.826,0,0,1-1.6,1.495,2.034,2.034,0,0,1-2.1-.448c-1.194-1.187-.7-3.042.284-4.185a8.668,8.668,0,0,1,1.893-1.568,25.3,25.3,0,0,0,2.164-1.416c2.931-2.374,5.832-4.786,8.748-7.178l8.747-7.178,8.783-7.206c.964-.791,1.921-1.592,2.948-2.3A19.136,19.136,0,0,1-5.435,8.36a5.608,5.608,0,0,0,1.028-.476,8.886,8.886,0,0,0,.842-.6A10.262,10.262,0,0,0-2.04,5.766,11.546,11.546,0,0,0,.038,1.974,9.426,9.426,0,0,0,.441,0C.467-.282.027-.28,0,0" transform="translate(391.33 6944.217)"/>
      <path id="Path_12957" data-name="Path 12957" d="M0,0A22.2,22.2,0,0,0-2.951,4.849c-.215.5-.409,1.009-.576,1.527-.088.27.337.386.424.117A19.17,19.17,0,0,1-.6,1.558Q-.166.921.312.312A.229.229,0,0,0,.312,0,.223.223,0,0,0,0,0" transform="translate(398.81 6948.737)"/>
      <path id="Path_12958" data-name="Path 12958" d="M0,0A20.617,20.617,0,0,1,2.363,3.7,10.286,10.286,0,0,1,3.206,5.88a5.443,5.443,0,0,1,0,1.282q-.024.684-.052,1.367-.219,5.2-.766,10.374-.279,2.647-.644,5.286a10.83,10.83,0,0,0-.211,2.353,5.27,5.27,0,0,0,.543,1.946c.626,1.241,1.406,2.422,2.1,3.629q1.065,1.865,2.106,3.742c2.931,5.279,5.74,10.625,8.482,16q4.2,8.249,8.218,16.589Q26.77,76.3,30.461,84.188q.424.9.846,1.8c.026-.1.052-.2.079-.3l-7.234,5.536L23.139,92l.3.079c-4.992-8.344-9.775-16.81-14.513-25.3C4.2,58.309-.477,49.813-5.275,41.383q-4.036-7.095-8.215-14.109a.221.221,0,0,0-.381.222C-8.878,35.84-4.095,44.307.641,52.8c4.726,8.471,9.407,16.967,14.2,25.4q4.038,7.1,8.215,14.109a.221.221,0,0,0,.3.079L30.6,86.846l1.012-.775a.228.228,0,0,0,.079-.3q-3.66-7.819-7.4-15.6Q20.272,61.811,16.1,53.53c-2.744-5.423-5.553-10.814-8.476-16.144q-2.06-3.758-4.209-7.465A18.036,18.036,0,0,1,2.337,28a4.817,4.817,0,0,1-.348-2.417c.19-1.715.473-3.422.67-5.137q.6-5.167.864-10.366.068-1.322.115-2.644c.015-.425.034-.851.04-1.277a2.948,2.948,0,0,0-.242-1A16.765,16.765,0,0,0,1.514,1.337C1.136.771.73.225.312-.312.137-.535-.172-.221,0,0" transform="translate(398.693 6949.049)"/>
      <path id="Path_12959" data-name="Path 12959" d="M0,0A5.062,5.062,0,0,0,1.676,2.735c.715.608,1.568,1.021,2.3,1.6a3.7,3.7,0,0,1,1,1.135c.134.25.515.028.381-.222A5.528,5.528,0,0,0,3.334,3.358c-.39-.251-.787-.494-1.154-.778a4.952,4.952,0,0,1-1-1.031A4.438,4.438,0,0,1,.425-.117C.366-.394-.059-.277,0,0" transform="translate(401.21 6948.133)"/>
      <path id="Path_12960" data-name="Path 12960" d="M0,0Q-3.452.181-6.908.2q-.977,0-1.953,0a.221.221,0,0,0,0,.441q3.456.03,6.91-.105Q-.974.493,0,.441C.282.426.284-.015,0,0" transform="translate(426.272 7046.968)"/>
      <path id="Path_12961" data-name="Path 12961" d="M0,0C-1.731.091-3.459.249-5.193.286-5.763.3-6.332.3-6.9.295a.22.22,0,0,0,0,.44c.934.008,1.868,0,2.8-.045C-3.3.653-2.505.6-1.708.543-1.138.506-.57.471,0,.441.282.426.284-.015,0,0" transform="translate(370.615 7045.229)"/>
      <path id="Path_12962" data-name="Path 12962" d="M0,0-4.71-12.151a31.475,31.475,0,0,0-5.429,2.734L-3.183,1.6A18.6,18.6,0,0,1,0,0" transform="translate(292.171 7004.281)" fill="#ff361e"/>
      <path id="Path_12963" data-name="Path 12963" d="M0,0A31.258,31.258,0,0,0-4,4.6L6.62,12.149A18.293,18.293,0,0,1,8.952,9.47Z" transform="translate(277.224 6998.596)" fill="#ff361e"/>
      <path id="Path_12964" data-name="Path 12964" d="M0,0,.25-13.029a31.276,31.276,0,0,0-6.069.475L-3.543.278A18.3,18.3,0,0,1,0,0" transform="translate(299.142 7003.046)" fill="#ff361e"/>
    </g>
  </g>
</svg>
