<svg xmlns="http://www.w3.org/2000/svg" width="119" height="116.675" viewBox="0 0 119 116.675">
  <g id="Group_42922" data-name="Group 42922" transform="translate(-465.904 -6953.464)">
    <path id="Path_12789" data-name="Path 12789" d="M2.306.643A35,35,0,0,0-3.668-2.6L-9.32,10.794a20.51,20.51,0,0,1,3.483,1.89Z" transform="translate(567.891 6956.064)" fill="#ff361e"/>
    <g id="Group_42921" data-name="Group 42921" transform="translate(465.904 6953.464)">
      <path id="Path_12771" data-name="Path 12771" d="M.079.8Q0,6.577-.077,12.354q-.079,5.795-.156,11.591Q-.276,27.2-.319,30.453a.388.388,0,0,0,.383.384,42.848,42.848,0,0,0,8.541-.531q1.2-.2,2.38-.46a.4.4,0,0,0,.282-.37q.7-6.283,1.155-12.589T13.08,4.261Q13.2.7,13.231-2.863a.384.384,0,0,0-.768,0Q12.4,3.459,12.085,9.773t-.874,12.612q-.318,3.55-.712,7.09l.282-.37a41.688,41.688,0,0,1-8.329.99q-1.194.021-2.388-.026l.385.384Q.526,24.677.6,18.9.681,13.1.76,7.308L.847.8A.384.384,0,0,0,.079.8" transform="translate(40.05 74.019)"/>
      <path id="Path_12772" data-name="Path 12772" d="M.116,1.292C.064,5.168-.015,9.042-.1,12.915s-.178,7.737-.254,11.6q-.065,3.263-.11,6.528a.391.391,0,0,0,.385.385,42.464,42.464,0,0,0,8.54-.535q1.2-.2,2.38-.463a.4.4,0,0,0,.283-.372c.242-2.189.44-4.382.609-6.578q.262-3.454.438-6.916.18-3.5.294-7.009.116-3.477.185-6.957.069-3.331.1-6.66l.007-.792a.386.386,0,0,0-.771,0q-.034,3.3-.095,6.608-.064,3.465-.172,6.932Q11.61,12.2,11.44,15.7q-.17,3.475-.418,6.943c-.162,2.213-.352,4.425-.586,6.63q-.041.395-.085.79l.282-.373a41.3,41.3,0,0,1-8.328,1q-1.194.021-2.386-.026l.385.385c.051-3.875.131-7.75.218-11.624S.7,11.688.778,7.82Q.842,4.556.886,1.292a.386.386,0,0,0-.771,0" transform="translate(57.697 67.715)"/>
      <path id="Path_12773" data-name="Path 12773" d="M4.308,11.385A94.674,94.674,0,0,0,17.365,9.953,104.338,104.338,0,0,0,29.977,6.985,108.881,108.881,0,0,0,53.064-3.021,104.708,104.708,0,0,0,63.335-9.786a48.4,48.4,0,0,0,8.329-7.638c2.411-2.9,4.655-6.437,5.2-10.235a9.385,9.385,0,0,0-.833-5.476A12.59,12.59,0,0,0,72.7-37.275a29.078,29.078,0,0,0-4.818-3.036,46.884,46.884,0,0,0-5.375-2.451,47.548,47.548,0,0,0-11.69-2.819,82.1,82.1,0,0,0-11.955-.367,93.609,93.609,0,0,0-12.035,1.2,76.736,76.736,0,0,0-22.348,7.26C-2.413-33.976-8.848-29.221-13.05-22.619-16.942-16.5-18.615-9-16.468-1.946A19.38,19.38,0,0,0-11.1,6.766a18.235,18.235,0,0,0,9.969,4.365,34.1,34.1,0,0,0,5.434.254.386.386,0,0,0,0-.771A24.7,24.7,0,0,1-6.433,8.9,16.532,16.532,0,0,1-14,1.872c-3.525-6.215-3.338-13.819-.467-20.238,3.086-6.9,8.73-12.206,15.1-16.1a71.476,71.476,0,0,1,21.264-8.529,90.981,90.981,0,0,1,23.3-2.193,56,56,0,0,1,11.49,1.417,46.036,46.036,0,0,1,10.954,4.2c3.195,1.725,6.473,3.762,7.926,7.265,1.554,3.746-.069,7.774-2.057,11.019a35.356,35.356,0,0,1-7.263,8.2,84.066,84.066,0,0,1-9.382,6.845A108.014,108.014,0,0,1,35.1,4.483,108.985,108.985,0,0,1,10.655,10.11c-2.109.242-4.224.443-6.347.5-.494.014-.5.786,0,.771" transform="translate(17.412 66.37)"/>
      <path id="Path_12774" data-name="Path 12774" d="M3.877,10.279c2.572-.07,5.148-.377,7.572-.672A96.181,96.181,0,0,0,35.744,3.283,98.815,98.815,0,0,0,56.817-8.383c4.766-3.465,9.336-7.531,11.862-12.855a11.213,11.213,0,0,0,1.26-6.4,10.084,10.084,0,0,0-3.681-5.986,19.533,19.533,0,0,0-2.094-1.442A42.717,42.717,0,0,0,44.945-41.3c-12.187-.942-25.72.8-36.719,5.607A50.906,50.906,0,0,0-7.039-26.005c-4.35,4.218-7.639,9.708-8.45,15.711s1.1,12.5,5.615,16.536c3.823,3.42,8.781,4.171,13.752,4.037" transform="translate(19.136 63.101)" fill="#ff3b00"/>
      <path id="Path_12775" data-name="Path 12775" d="M1,.022A13.745,13.745,0,0,0-3.267,6.049a14,14,0,0,0-.583,7.008A14.7,14.7,0,0,0-.7,19.909a15.294,15.294,0,0,0,5.864,4.282,21.647,21.647,0,0,0,7.485,1.756q.451.021.9.02a.386.386,0,0,0,0-.771,20.528,20.528,0,0,1-7.206-1.353,15.359,15.359,0,0,1-5.816-3.7A13.988,13.988,0,0,1-2.922,13.76a13.31,13.31,0,0,1,.136-6.685A12.874,12.874,0,0,1,.829,1.193C1.061.976,1.3.768,1.547.567a.387.387,0,0,0,0-.545A.4.4,0,0,0,1,.022" transform="translate(17.761 45.363)"/>
      <path id="Path_12776" data-name="Path 12776" d="M1.637,1.983a6.083,6.083,0,0,0,.651-6.191A6.411,6.411,0,0,0,.319-6.645,6.609,6.609,0,0,0-2.57-7.868a9.316,9.316,0,0,0-3.77.095c-.483.115-.278.858.2.743a7.5,7.5,0,0,1,5.69.785A5.585,5.585,0,0,1,2.088-1.557,5.332,5.332,0,0,1,.971,1.594a.388.388,0,0,0,.138.528.4.4,0,0,0,.528-.138" transform="translate(85.098 38.279)"/>
      <path id="Path_12777" data-name="Path 12777" d="M5.063,6.711A20.92,20.92,0,0,0,7.579-3.327a24.854,24.854,0,0,0-2.122-9.981A24.486,24.486,0,0,0-.007-21.191,21.392,21.392,0,0,0-8.592-26.23a20.381,20.381,0,0,0-10.335-.418q-.638.146-1.264.336c-.474.143-.272.888.2.743A19.241,19.241,0,0,1-9.98-25.805,20.43,20.43,0,0,1-1.4-21.418,23.528,23.528,0,0,1,4.285-14a24.219,24.219,0,0,1,2.49,9.384,20.586,20.586,0,0,1-1.81,9.827c-.177.378-.368.748-.569,1.114-.24.435.427.825.666.389" transform="translate(25.195 69.935)"/>
      <path id="Path_12778" data-name="Path 12778" d="M.472.021a10.373,10.373,0,0,0-2.31,5.235,9.183,9.183,0,0,0,.816,5.011,11.558,11.558,0,0,0,8.265,6.028A13.672,13.672,0,0,0,13.7,15.96a.357.357,0,0,0-.19-.689,13.1,13.1,0,0,1-5.467.444,12.951,12.951,0,0,1-4.861-1.8A9.045,9.045,0,0,1-1.184,5.981,9.367,9.367,0,0,1,.977.526a.369.369,0,0,0,0-.505.359.359,0,0,0-.505,0" transform="translate(80.059 24.53)"/>
      <path id="Path_12779" data-name="Path 12779" d="M.108.076C-.052,2.953-.18,5.83-.324,8.707q-.054,1.07-.114,2.142a.39.39,0,0,0,.282.37,29.983,29.983,0,0,0,3.306.6,32.511,32.511,0,0,0,7.336.218,19.734,19.734,0,0,0,4.528-.918.389.389,0,0,0,.23-.565A12.259,12.259,0,0,0,10.724,6.8C9.109,6.011,7,5.245,6.364,3.369a7.6,7.6,0,0,1-.1-3.291.389.389,0,0,0-.385-.385A.394.394,0,0,0,5.5.078a9.148,9.148,0,0,0,.017,3.112,4.49,4.49,0,0,0,1.5,2.38A11.337,11.337,0,0,0,9.6,7.113a15.964,15.964,0,0,1,2.719,1.542,10.947,10.947,0,0,1,2.265,2.283c.076-.188.153-.375.23-.565a22.261,22.261,0,0,1-7.815.994,35.7,35.7,0,0,1-5.853-.654c-.365-.07-.732-.145-1.093-.236.094.125.188.248.282.372C.491,7.972.619,5.094.763,2.218Q.818,1.148.878.076C.9-.418.136-.417.108.076" transform="translate(40.752 104.525)"/>
      <path id="Path_12780" data-name="Path 12780" d="M.1.157C-.052,2.927-.165,5.7-.3,8.472Q-.352,9.535-.41,10.6a.388.388,0,0,0,.282.372,29.814,29.814,0,0,0,3.306.6,32.441,32.441,0,0,0,7.336.22,19.612,19.612,0,0,0,4.529-.926.389.389,0,0,0,.231-.565,12.247,12.247,0,0,0-4.488-3.755c-1.608-.8-3.712-1.557-4.37-3.413A7.542,7.542,0,0,1,6.3-.249a.388.388,0,0,0-.385-.385.394.394,0,0,0-.385.385,9.28,9.28,0,0,0,.016,3.135A4.543,4.543,0,0,0,7.067,5.3a11.79,11.79,0,0,0,2.62,1.563,15.384,15.384,0,0,1,2.666,1.529,10.941,10.941,0,0,1,2.255,2.292c.076-.19.153-.378.231-.568a22.147,22.147,0,0,1-7.815,1,35.535,35.535,0,0,1-5.853-.657c-.365-.071-.732-.146-1.093-.237l.283.372c.153-2.771.267-5.544.4-8.315Q.815,1.217.872.157C.9-.34.129-.337.1.157" transform="translate(58.53 98.733)"/>
      <path id="Path_12781" data-name="Path 12781" d="M3.149,0Q-2.889.316-8.937.347q-1.71.007-3.417-.007a.386.386,0,0,0,0,.771q6.046.054,12.09-.182Q1.442.861,3.149.772c.494-.026.5-.8,0-.772" transform="translate(37.803 114.747)"/>
      <path id="Path_12782" data-name="Path 12782" d="M1.87,0H-7.186a.386.386,0,0,0,0,.771H1.87A.386.386,0,0,0,1.87,0" transform="translate(56.89 108.944)"/>
      <path id="Path_12783" data-name="Path 12783" d="M.074.153a.386.386,0,0,0,0-.771.386.386,0,0,0,0,.771" transform="translate(46.048 30.862)"/>
      <path id="Path_12784" data-name="Path 12784" d="M.074.153a.386.386,0,0,0,0-.771.386.386,0,0,0,0,.771" transform="translate(52.803 30.043)"/>
      <path id="Path_12785" data-name="Path 12785" d="M.009.114a13.759,13.759,0,0,0,2.3,3.629A13.3,13.3,0,0,0,3.846,5.231c.574.473,1.191.889,1.8,1.322a8.413,8.413,0,0,1,1.775,1.6V7.61a1.389,1.389,0,0,1-1.22.127,7.49,7.49,0,0,1-1.524-.6A12.187,12.187,0,0,1,1.839,5.189c-.364-.336-.912.208-.545.545A12.867,12.867,0,0,0,4.522,7.915c1.035.486,2.426,1.092,3.44.242a.4.4,0,0,0,0-.546A17.466,17.466,0,0,0,4.662,4.9,12.967,12.967,0,0,1,1.809,1.827,13.335,13.335,0,0,1,.675-.275.389.389,0,0,0,.147-.413.394.394,0,0,0,.009.114" transform="translate(48.221 28.056)"/>
      <path id="Path_12786" data-name="Path 12786" d="M.024.129a7.338,7.338,0,0,0,3.023,1.6,5.764,5.764,0,0,0,3.3.039c.468-.158.268-.9-.2-.743A5.013,5.013,0,0,1,3.251.987,6.5,6.5,0,0,1,.569-.416C.2-.751-.344-.207.024.129" transform="translate(45.402 33.664)"/>
      <path id="Path_12787" data-name="Path 12787" d="M.115.452A6.988,6.988,0,0,0,2.3-1.172a.392.392,0,0,0,0-.545.39.39,0,0,0-.545,0q-.228.245-.475.47c-.085.076-.17.15-.257.223l-.131.1C.87-.9.845-.885.877-.91L.8-.855A5.759,5.759,0,0,1-.274-.214.387.387,0,0,0-.413.314.4.4,0,0,0,.115.452" transform="translate(54.08 34.144)"/>
      <path id="Path_12788" data-name="Path 12788" d="M.5,2.642l12.09-8.071A35.1,35.1,0,0,0,8.3-10.677L-2.016-.436A20.612,20.612,0,0,1,.5,2.642" transform="translate(101.222 18.253)" fill="#ff361e"/>
      <path id="Path_12790" data-name="Path 12790" d="M.23,1.86,14.476-1.023A34.845,34.845,0,0,0,12.49-7.516L-.93-1.931A20.471,20.471,0,0,1,.23,1.86" transform="translate(104.524 26.325)" fill="#ff361e"/>
      <path id="Path_12897" data-name="Path 12897" d="M.079.8Q0,6.577-.077,12.354q-.079,5.795-.156,11.591Q-.276,27.2-.319,30.453a.388.388,0,0,0,.383.384,42.848,42.848,0,0,0,8.541-.531q1.2-.2,2.38-.46a.4.4,0,0,0,.282-.37q.7-6.283,1.155-12.589T13.08,4.261Q13.2.7,13.231-2.863a.384.384,0,0,0-.768,0Q12.4,3.459,12.085,9.773t-.874,12.612q-.318,3.55-.712,7.09l.282-.37a41.688,41.688,0,0,1-8.329.99q-1.194.021-2.388-.026l.385.384Q.526,24.677.6,18.9.681,13.1.76,7.308L.847.8A.384.384,0,0,0,.079.8" transform="translate(40.05 74.019)"/>
      <path id="Path_12898" data-name="Path 12898" d="M.116,1.292C.064,5.168-.015,9.042-.1,12.915s-.178,7.737-.254,11.6q-.065,3.263-.11,6.528a.391.391,0,0,0,.385.385,42.464,42.464,0,0,0,8.54-.535q1.2-.2,2.38-.463a.4.4,0,0,0,.283-.372c.242-2.189.44-4.382.609-6.578q.262-3.454.438-6.916.18-3.5.294-7.009.116-3.477.185-6.957.069-3.331.1-6.66l.007-.792a.386.386,0,0,0-.771,0q-.034,3.3-.095,6.608-.064,3.465-.172,6.932Q11.61,12.2,11.44,15.7q-.17,3.475-.418,6.943c-.162,2.213-.352,4.425-.586,6.63q-.041.395-.085.79l.282-.373a41.3,41.3,0,0,1-8.328,1q-1.194.021-2.386-.026l.385.385c.051-3.875.131-7.75.218-11.624S.7,11.688.778,7.82Q.842,4.556.886,1.292a.386.386,0,0,0-.771,0" transform="translate(57.697 67.715)"/>
      <path id="Path_12899" data-name="Path 12899" d="M4.308,11.385A94.674,94.674,0,0,0,17.365,9.953,104.338,104.338,0,0,0,29.977,6.985,108.881,108.881,0,0,0,53.064-3.021,104.708,104.708,0,0,0,63.335-9.786a48.4,48.4,0,0,0,8.329-7.638c2.411-2.9,4.655-6.437,5.2-10.235a9.385,9.385,0,0,0-.833-5.476A12.59,12.59,0,0,0,72.7-37.275a29.078,29.078,0,0,0-4.818-3.036,46.884,46.884,0,0,0-5.375-2.451,47.548,47.548,0,0,0-11.69-2.819,82.1,82.1,0,0,0-11.955-.367,93.609,93.609,0,0,0-12.035,1.2,76.736,76.736,0,0,0-22.348,7.26C-2.413-33.976-8.848-29.221-13.05-22.619-16.942-16.5-18.615-9-16.468-1.946A19.38,19.38,0,0,0-11.1,6.766a18.235,18.235,0,0,0,9.969,4.365,34.1,34.1,0,0,0,5.434.254.386.386,0,0,0,0-.771A24.7,24.7,0,0,1-6.433,8.9,16.532,16.532,0,0,1-14,1.872c-3.525-6.215-3.338-13.819-.467-20.238,3.086-6.9,8.73-12.206,15.1-16.1a71.476,71.476,0,0,1,21.264-8.529,90.981,90.981,0,0,1,23.3-2.193,56,56,0,0,1,11.49,1.417,46.036,46.036,0,0,1,10.954,4.2c3.195,1.725,6.473,3.762,7.926,7.265,1.554,3.746-.069,7.774-2.057,11.019a35.356,35.356,0,0,1-7.263,8.2,84.066,84.066,0,0,1-9.382,6.845A108.014,108.014,0,0,1,35.1,4.483,108.985,108.985,0,0,1,10.655,10.11c-2.109.242-4.224.443-6.347.5-.494.014-.5.786,0,.771" transform="translate(17.412 66.37)"/>
      <path id="Path_12900" data-name="Path 12900" d="M3.877,10.279c2.572-.07,5.148-.377,7.572-.672A96.181,96.181,0,0,0,35.744,3.283,98.815,98.815,0,0,0,56.817-8.383c4.766-3.465,9.336-7.531,11.862-12.855a11.213,11.213,0,0,0,1.26-6.4,10.084,10.084,0,0,0-3.681-5.986,19.533,19.533,0,0,0-2.094-1.442A42.717,42.717,0,0,0,44.945-41.3c-12.187-.942-25.72.8-36.719,5.607A50.906,50.906,0,0,0-7.039-26.005c-4.35,4.218-7.639,9.708-8.45,15.711s1.1,12.5,5.615,16.536c3.823,3.42,8.781,4.171,13.752,4.037" transform="translate(19.136 63.101)" fill="#ff3b00"/>
      <path id="Path_12901" data-name="Path 12901" d="M1,.022A13.745,13.745,0,0,0-3.267,6.049a14,14,0,0,0-.583,7.008A14.7,14.7,0,0,0-.7,19.909a15.294,15.294,0,0,0,5.864,4.282,21.647,21.647,0,0,0,7.485,1.756q.451.021.9.02a.386.386,0,0,0,0-.771,20.528,20.528,0,0,1-7.206-1.353,15.359,15.359,0,0,1-5.816-3.7A13.988,13.988,0,0,1-2.922,13.76a13.31,13.31,0,0,1,.136-6.685A12.874,12.874,0,0,1,.829,1.193C1.061.976,1.3.768,1.547.567a.387.387,0,0,0,0-.545A.4.4,0,0,0,1,.022" transform="translate(17.761 45.363)"/>
      <path id="Path_12902" data-name="Path 12902" d="M1.637,1.983a6.083,6.083,0,0,0,.651-6.191A6.411,6.411,0,0,0,.319-6.645,6.609,6.609,0,0,0-2.57-7.868a9.316,9.316,0,0,0-3.77.095c-.483.115-.278.858.2.743a7.5,7.5,0,0,1,5.69.785A5.585,5.585,0,0,1,2.088-1.557,5.332,5.332,0,0,1,.971,1.594a.388.388,0,0,0,.138.528.4.4,0,0,0,.528-.138" transform="translate(85.098 38.279)"/>
      <path id="Path_12903" data-name="Path 12903" d="M5.063,6.711A20.92,20.92,0,0,0,7.579-3.327a24.854,24.854,0,0,0-2.122-9.981A24.486,24.486,0,0,0-.007-21.191,21.392,21.392,0,0,0-8.592-26.23a20.381,20.381,0,0,0-10.335-.418q-.638.146-1.264.336c-.474.143-.272.888.2.743A19.241,19.241,0,0,1-9.98-25.805,20.43,20.43,0,0,1-1.4-21.418,23.528,23.528,0,0,1,4.285-14a24.219,24.219,0,0,1,2.49,9.384,20.586,20.586,0,0,1-1.81,9.827c-.177.378-.368.748-.569,1.114-.24.435.427.825.666.389" transform="translate(25.195 69.935)"/>
      <path id="Path_12904" data-name="Path 12904" d="M.472.021a10.373,10.373,0,0,0-2.31,5.235,9.183,9.183,0,0,0,.816,5.011,11.558,11.558,0,0,0,8.265,6.028A13.672,13.672,0,0,0,13.7,15.96a.357.357,0,0,0-.19-.689,13.1,13.1,0,0,1-5.467.444,12.951,12.951,0,0,1-4.861-1.8A9.045,9.045,0,0,1-1.184,5.981,9.367,9.367,0,0,1,.977.526a.369.369,0,0,0,0-.505.359.359,0,0,0-.505,0" transform="translate(80.059 24.53)"/>
      <path id="Path_12905" data-name="Path 12905" d="M.108.076C-.052,2.953-.18,5.83-.324,8.707q-.054,1.07-.114,2.142a.39.39,0,0,0,.282.37,29.983,29.983,0,0,0,3.306.6,32.511,32.511,0,0,0,7.336.218,19.734,19.734,0,0,0,4.528-.918.389.389,0,0,0,.23-.565A12.259,12.259,0,0,0,10.724,6.8C9.109,6.011,7,5.245,6.364,3.369a7.6,7.6,0,0,1-.1-3.291.389.389,0,0,0-.385-.385A.394.394,0,0,0,5.5.078a9.148,9.148,0,0,0,.017,3.112,4.49,4.49,0,0,0,1.5,2.38A11.337,11.337,0,0,0,9.6,7.113a15.964,15.964,0,0,1,2.719,1.542,10.947,10.947,0,0,1,2.265,2.283c.076-.188.153-.375.23-.565a22.261,22.261,0,0,1-7.815.994,35.7,35.7,0,0,1-5.853-.654c-.365-.07-.732-.145-1.093-.236.094.125.188.248.282.372C.491,7.972.619,5.094.763,2.218Q.818,1.148.878.076C.9-.418.136-.417.108.076" transform="translate(40.752 104.525)"/>
      <path id="Path_12906" data-name="Path 12906" d="M.1.157C-.052,2.927-.165,5.7-.3,8.472Q-.352,9.535-.41,10.6a.388.388,0,0,0,.282.372,29.814,29.814,0,0,0,3.306.6,32.441,32.441,0,0,0,7.336.22,19.612,19.612,0,0,0,4.529-.926.389.389,0,0,0,.231-.565,12.247,12.247,0,0,0-4.488-3.755c-1.608-.8-3.712-1.557-4.37-3.413A7.542,7.542,0,0,1,6.3-.249a.388.388,0,0,0-.385-.385.394.394,0,0,0-.385.385,9.28,9.28,0,0,0,.016,3.135A4.543,4.543,0,0,0,7.067,5.3a11.79,11.79,0,0,0,2.62,1.563,15.384,15.384,0,0,1,2.666,1.529,10.941,10.941,0,0,1,2.255,2.292c.076-.19.153-.378.231-.568a22.147,22.147,0,0,1-7.815,1,35.535,35.535,0,0,1-5.853-.657c-.365-.071-.732-.146-1.093-.237l.283.372c.153-2.771.267-5.544.4-8.315Q.815,1.217.872.157C.9-.34.129-.337.1.157" transform="translate(58.53 98.733)"/>
      <path id="Path_12907" data-name="Path 12907" d="M3.149,0Q-2.889.316-8.937.347q-1.71.007-3.417-.007a.386.386,0,0,0,0,.771q6.046.054,12.09-.182Q1.442.861,3.149.772c.494-.026.5-.8,0-.772" transform="translate(37.803 114.747)"/>
      <path id="Path_12908" data-name="Path 12908" d="M1.87,0H-7.186a.386.386,0,0,0,0,.771H1.87A.386.386,0,0,0,1.87,0" transform="translate(56.89 108.944)"/>
      <path id="Path_12909" data-name="Path 12909" d="M.074.153a.386.386,0,0,0,0-.771.386.386,0,0,0,0,.771" transform="translate(46.048 30.862)"/>
      <path id="Path_12910" data-name="Path 12910" d="M.074.153a.386.386,0,0,0,0-.771.386.386,0,0,0,0,.771" transform="translate(52.803 30.043)"/>
      <path id="Path_12911" data-name="Path 12911" d="M.009.114a13.759,13.759,0,0,0,2.3,3.629A13.3,13.3,0,0,0,3.846,5.231c.574.473,1.191.889,1.8,1.322a8.413,8.413,0,0,1,1.775,1.6V7.61a1.389,1.389,0,0,1-1.22.127,7.49,7.49,0,0,1-1.524-.6A12.187,12.187,0,0,1,1.839,5.189c-.364-.336-.912.208-.545.545A12.867,12.867,0,0,0,4.522,7.915c1.035.486,2.426,1.092,3.44.242a.4.4,0,0,0,0-.546A17.466,17.466,0,0,0,4.662,4.9,12.967,12.967,0,0,1,1.809,1.827,13.335,13.335,0,0,1,.675-.275.389.389,0,0,0,.147-.413.394.394,0,0,0,.009.114" transform="translate(48.221 28.056)"/>
      <path id="Path_12912" data-name="Path 12912" d="M.024.129a7.338,7.338,0,0,0,3.023,1.6,5.764,5.764,0,0,0,3.3.039c.468-.158.268-.9-.2-.743A5.013,5.013,0,0,1,3.251.987,6.5,6.5,0,0,1,.569-.416C.2-.751-.344-.207.024.129" transform="translate(45.402 33.664)"/>
      <path id="Path_12913" data-name="Path 12913" d="M.115.452A6.988,6.988,0,0,0,2.3-1.172a.392.392,0,0,0,0-.545.39.39,0,0,0-.545,0q-.228.245-.475.47c-.085.076-.17.15-.257.223l-.131.1C.87-.9.845-.885.877-.91L.8-.855A5.759,5.759,0,0,1-.274-.214.387.387,0,0,0-.413.314.4.4,0,0,0,.115.452" transform="translate(54.08 34.144)"/>
      <path id="Path_12914" data-name="Path 12914" d="M.5,2.642l12.09-8.071A35.1,35.1,0,0,0,8.3-10.677L-2.016-.436A20.612,20.612,0,0,1,.5,2.642" transform="translate(101.222 18.253)" fill="#ff361e"/>
      <path id="Path_12915" data-name="Path 12915" d="M2.306.643A35,35,0,0,0-3.668-2.6L-9.32,10.794a20.51,20.51,0,0,1,3.483,1.89Z" transform="translate(101.987 2.6)" fill="#ff361e"/>
    </g>
  </g>
</svg>
