<svg xmlns="http://www.w3.org/2000/svg" width="113.025" height="107.465" viewBox="0 0 113.025 107.465">
  <g id="Group_42923" data-name="Group 42923" transform="translate(-583.021 -6946.392)">
    <path id="Path_12842" data-name="Path 12842" d="M.1,5.134a9.092,9.092,0,0,0,10.673,4.26C45.66-2.342,62.017,8.481,74.554,7.271a17.75,17.75,0,0,0,9.758-4.3c3.767-3.264,5.46-8.337,6.14-13.275,1.933-14.04-2.135-28.429-9.881-40.3C76.929-56.18,71.191-61.574,64.681-63a16.638,16.638,0,0,0-11.721,1.607c-9.586,4.857-11.632,23.743-23.594,35.63C18.642-15.1,11.783-11.932,3.613-7.731A9.163,9.163,0,0,0-.118,4.742c.069.13.143.262.217.392" transform="translate(584.888 7010.943)" fill="#fff"/>
    <path id="Path_12843" data-name="Path 12843" d="M0,.19C2.4,8.7,4.817,17.231,8.3,25.354c.64,1.493,1.428,3.087,2.9,3.771a5.562,5.562,0,0,0,3.511.158,13.854,13.854,0,0,0,6-2.969c1.225-1.041,2.336-2.549,2.017-4.125-.289-1.425-1.648-2.369-2.992-2.923a15.576,15.576,0,0,1-3.954-1.791,2.427,2.427,0,0,1-.851-1.111,3.272,3.272,0,0,1,.647-2.528l1.681-2.879a2.915,2.915,0,0,0,.506-1.334c.038-1.295-1.519-1.98-2.8-2.148S12.14,7.155,11.548,6c-.539-1.051.058-2.3.571-3.36s.9-2.467.082-3.317c-.572-.6-1.667-.847-1.7-1.671" transform="translate(599.462 7019.876)" fill="#ff3b00"/>
    <path id="Path_12844" data-name="Path 12844" d="M.092,4.754A8.418,8.418,0,0,0,9.975,8.7C42.281-2.168,57.427,7.853,69.037,6.733a16.444,16.444,0,0,0,9.036-3.982C81.56-.272,83.128-4.97,83.757-9.541c1.79-13-1.977-26.324-9.15-37.315C71.234-52.024,65.923-57.018,59.9-58.333a15.4,15.4,0,0,0-10.854,1.488c-8.877,4.5-10.771,21.985-21.848,32.993-9.932,9.869-16.282,12.8-23.848,16.693A8.484,8.484,0,0,0-.109,4.39c.065.121.132.242.2.364" transform="translate(585.679 7012.753)" fill="#ff3b00"/>
    <path id="Path_12845" data-name="Path 12845" d="M.014.511l12.711.759a39.069,39.069,0,0,0-.286-7.587L-.174-4.6A26.15,26.15,0,0,1,.014.511" transform="translate(683.252 6981.056)" fill="#ff3b00"/>
    <path id="Path_12846" data-name="Path 12846" d="M.159.825,12.2-3.291a39.238,39.238,0,0,0-3.133-6.9L-1.96-3.84A26.452,26.452,0,0,1,.159.825" transform="translate(681.74 6970.643)" fill="#ff3b00"/>
    <path id="Path_12847" data-name="Path 12847" d="M.279,1.017l9.6-8.364A39.1,39.1,0,0,0,4.35-12.565L-3.441-2.5A26.356,26.356,0,0,1,.279,1.017" transform="translate(676.527 6961.615)" fill="#ff3b00"/>
    <path id="Path_12848" data-name="Path 12848" d="M.1,5.211a9.989,9.989,0,0,0,5.01,4.311,9.6,9.6,0,0,0,6.642.028A110.545,110.545,0,0,1,28.15,5.39,84.067,84.067,0,0,1,52.94,4.814c3.083.374,6.142.907,9.2,1.455,2.586.464,5.174.944,7.788,1.215a22.123,22.123,0,0,0,8.619-.529,18.821,18.821,0,0,0,6.875-3.782,16.663,16.663,0,0,0,4.29-5.984c2.088-4.755,2.6-10.177,2.545-15.321a58.062,58.062,0,0,0-2.5-16.1,65.848,65.848,0,0,0-6.709-15.045A36.157,36.157,0,0,0,72.768-60.7,18.985,18.985,0,0,0,58.216-64.03a16.974,16.974,0,0,0-6.4,2.733,17.052,17.052,0,0,0-3.4,3.408,53.73,53.73,0,0,0-5.625,9.98c-1.911,4.036-3.758,8.109-6.008,11.973a52.608,52.608,0,0,1-3.859,5.788,51.277,51.277,0,0,1-5.274,5.667,83.4,83.4,0,0,1-11.429,9.241A104.253,104.253,0,0,1,6.262-9.585,16.6,16.6,0,0,0,1.2-6.324,9.735,9.735,0,0,0-1.244-.742,10.062,10.062,0,0,0,.1,5.211a.433.433,0,0,0,.747-.437A9.144,9.144,0,0,1-.308-1.274,8.775,8.775,0,0,1,2.627-6.508,12.872,12.872,0,0,1,5.205-8.073Q6.429-8.7,7.651-9.327c1.62-.837,3.233-1.69,4.817-2.594a75.258,75.258,0,0,0,10.281-7.066c2.058-1.679,4.034-3.456,5.948-5.3a49.5,49.5,0,0,0,4.991-5.447,67.547,67.547,0,0,0,6.929-11.59c1.811-3.69,3.438-7.474,5.381-11.1,1.57-2.932,3.4-5.953,6.081-8a16.079,16.079,0,0,1,6.062-2.71,16.352,16.352,0,0,1,7.726.149c4.895,1.242,9.064,4.57,12.31,8.333a43.244,43.244,0,0,1,4.4,6.281,66.814,66.814,0,0,1,3.683,7.156,61.267,61.267,0,0,1,4.521,15.469A51.874,51.874,0,0,1,90.8-9.8c-.785,4.859-2.609,9.714-6.583,12.845A17.652,17.652,0,0,1,77.13,6.427a18.567,18.567,0,0,1-4.305.375,47.571,47.571,0,0,1-7.042-.769c-2.791-.467-5.569-1.005-8.363-1.452-3.308-.528-6.634-.936-9.978-1.137a83.311,83.311,0,0,0-12.07.156A95.851,95.851,0,0,0,20.923,6c-2.819.685-5.61,1.485-8.371,2.378a14.188,14.188,0,0,1-3.644.9A8.569,8.569,0,0,1,5.7,8.82,9.049,9.049,0,0,1,.851,4.775.433.433,0,0,0,.1,5.211" transform="translate(584.309 7010.773)"/>
    <path id="Path_12849" data-name="Path 12849" d="M1.146,0A12.8,12.8,0,0,0-6.663,2.223a15.8,15.8,0,0,0-5.408,6.369c-2.772,5.786-2.387,12.391-1.1,18.51a63.268,63.268,0,0,0,6.5,17.459c2.6,4.719,6.018,9.533,11.123,11.743a15.978,15.978,0,0,0,14.942-1.35,15.163,15.163,0,0,0,1.546-1.18c.42-.365-.193-.974-.612-.611A15.088,15.088,0,0,1,6.31,56.073c-5.1-1.545-8.675-5.907-11.3-10.322a61.8,61.8,0,0,1-6.8-16.53c-1.482-5.89-2.348-12.287-.357-18.164A16.285,16.285,0,0,1-7.819,4.215,12.727,12.727,0,0,1-.79.912,11.246,11.246,0,0,1,1.146.866C1.7.9,1.7.036,1.146,0" transform="translate(650.122 6950.379)"/>
    <path id="Path_12850" data-name="Path 12850" d="M.974.055A5.864,5.864,0,0,1,2.537,4.608,4.262,4.262,0,0,1-.283,7.921a4.354,4.354,0,0,1-2.626.037.437.437,0,0,0-.489.635,6.412,6.412,0,0,1,1.14,3.834,2.393,2.393,0,0,1-.816,1.53,2.842,2.842,0,0,1-1.632.6,5.525,5.525,0,0,1-2.415-.51c-.4-.168-.734.452-.42.722a1.966,1.966,0,0,1,.473,2.367,1.96,1.96,0,0,1-2.239.9.438.438,0,0,0-.489.636,2.506,2.506,0,0,1,.229,1.189,1.226,1.226,0,0,1-.35.839,2.067,2.067,0,0,1-.753.435,2.728,2.728,0,0,1-.427.106,1.656,1.656,0,0,1-.231.009.444.444,0,0,1-.165-.021c-.542-.126-.773.707-.23.833a2.809,2.809,0,0,0,2.456-.787,2.744,2.744,0,0,0,.219-3.04l-.489.636a2.834,2.834,0,0,0,3.216-1.3,2.832,2.832,0,0,0-.609-3.414c-.141.241-.281.481-.42.722A4.822,4.822,0,0,0-2.76,14.8a3.686,3.686,0,0,0,1.241-4.045A11.433,11.433,0,0,0-2.65,8.157l-.489.635A5.175,5.175,0,0,0,1.991,7.5a5.225,5.225,0,0,0,1.24-5.122A8.8,8.8,0,0,0,1.586-.557a.436.436,0,0,0-.612,0,.442.442,0,0,0,0,.612" transform="translate(648.291 6951.142)"/>
    <path id="Path_12851" data-name="Path 12851" d="M.06.286A2.292,2.292,0,0,1,2.315-.954,5.382,5.382,0,0,1,5.369.535a.437.437,0,0,0,.723-.42A2.09,2.09,0,0,1,7.705-2.019a3.869,3.869,0,0,1,3.316.992.437.437,0,0,0,.723-.42,1.1,1.1,0,0,1,.473-.951,1.725,1.725,0,0,1,1.417-.212,2.737,2.737,0,0,1,1.125.562,1.623,1.623,0,0,1,.678.967.435.435,0,0,0,.532.3.444.444,0,0,0,.3-.532A2.383,2.383,0,0,0,15.3-2.719a3.617,3.617,0,0,0-1.746-.78,2.47,2.47,0,0,0-1.981.519,1.943,1.943,0,0,0-.66,1.764l.723-.42A4.693,4.693,0,0,0,7.357-2.817,2.935,2.935,0,0,0,5.258.345l.723-.42A6.236,6.236,0,0,0,2.255-1.821,3.127,3.127,0,0,0-.687-.151.446.446,0,0,0-.532.44.435.435,0,0,0,.06.286" transform="translate(654.196 7005.464)"/>
    <path id="Path_12852" data-name="Path 12852" d="M.281.055A8.242,8.242,0,0,1,1.427,1.789c.124.251.255.491.056.733a2.356,2.356,0,0,1-.721.5,4.98,4.98,0,0,1-3.7.352.433.433,0,0,0-.229.834A5.826,5.826,0,0,0,.48,4.09a4.181,4.181,0,0,0,1.592-.934,1.332,1.332,0,0,0,.388-.842,2.118,2.118,0,0,0-.32-1.029A9.173,9.173,0,0,0,.893-.557a.438.438,0,0,0-.612,0,.441.441,0,0,0,0,.612" transform="translate(613.834 6990.504)"/>
    <path id="Path_12853" data-name="Path 12853" d="M.313.055A10.086,10.086,0,0,1,1.5,1.985c.122.261.317.632.2.92a.889.889,0,0,1-.5.418,4.755,4.755,0,0,1-.945.25q-.616.122-1.236.211a21.894,21.894,0,0,1-2.465.2C-4,4-4,4.868-3.444,4.851A20.879,20.879,0,0,0,.981,4.3a2.271,2.271,0,0,0,1.4-.841A2,2,0,0,0,2.2,1.444a11.064,11.064,0,0,0-1.274-2,.436.436,0,0,0-.612,0,.443.443,0,0,0,0,.612" transform="translate(620.908 6984.962)"/>
    <path id="Path_12854" data-name="Path 12854" d="M0,.032a36.652,36.652,0,0,0,1.543,7.59A23.515,23.515,0,0,0,5.5,15.393a12.432,12.432,0,0,0,3.526,3.041.433.433,0,0,0,.436-.747A14.055,14.055,0,0,1,4.141,11.72,30.623,30.623,0,0,1,1.454,3.862,34.161,34.161,0,0,1,.865.032.445.445,0,0,0,.432-.4.435.435,0,0,0,0,.032" transform="translate(594.307 6999.495)"/>
    <path id="Path_12855" data-name="Path 12855" d="M0,.263C.993,3.772,1.985,7.281,3.032,10.774c1.04,3.463,2.134,6.912,3.337,10.322q.91,2.576,1.907,5.119c.628,1.593,1.248,3.208,2,4.749a7.346,7.346,0,0,0,2.7,3.273,6.687,6.687,0,0,0,4.82.4,16.618,16.618,0,0,0,4.51-1.72,13.61,13.61,0,0,0,3.77-2.952,4.947,4.947,0,0,0,1.35-4.284,5.175,5.175,0,0,0-2.723-3.106c-1.358-.746-2.892-1.073-4.281-1.749a4.991,4.991,0,0,1-1.814-1.319,2.026,2.026,0,0,1-.123-2.1,19.239,19.239,0,0,1,1.279-2.3c.465-.8.945-1.588,1.394-2.394a2.768,2.768,0,0,0,.39-2.241,2.789,2.789,0,0,0-1.19-1.412,5.433,5.433,0,0,0-1.777-.7c-.629-.137-1.278-.175-1.911-.294a4.573,4.573,0,0,1-1.73-.613,1.857,1.857,0,0,1-.818-1.538,5.23,5.23,0,0,1,.635-2.2,10.164,10.164,0,0,0,.817-2.1,3.394,3.394,0,0,0-.131-2.141,3.316,3.316,0,0,0-1.39-1.345,3.958,3.958,0,0,1-.641-.454.764.764,0,0,1-.272-.488.443.443,0,0,0-.432-.432.436.436,0,0,0-.432.432,1.939,1.939,0,0,0,1,1.468A3.917,3.917,0,0,1,14.593-.307a2.356,2.356,0,0,1,.138,1.748,10.8,10.8,0,0,1-.794,2,6.2,6.2,0,0,0-.673,2.364A2.745,2.745,0,0,0,14.027,7.8c.93.952,2.38,1.113,3.631,1.276,1.032.134,2.406.454,2.962,1.408a1.723,1.723,0,0,1-.164,1.721c-.433.8-.911,1.57-1.368,2.352a25.619,25.619,0,0,0-1.295,2.3,3.24,3.24,0,0,0-.277,2.412,3.782,3.782,0,0,0,1.549,1.768,10.367,10.367,0,0,0,2.121,1.038,15.444,15.444,0,0,1,3.956,1.794A3.316,3.316,0,0,1,26.608,27.2a6.635,6.635,0,0,1-2.574,3.526,15.541,15.541,0,0,1-4.045,2.342,11.592,11.592,0,0,1-4.619.963,4.219,4.219,0,0,1-2.113-.635A5.014,5.014,0,0,1,11.9,32.047a20.506,20.506,0,0,1-1.987-4.067q-1.02-2.466-1.939-4.973c-1.237-3.353-2.356-6.749-3.41-10.164s-2.044-6.858-3.02-10.3L.835.033A.433.433,0,0,0,0,.263" transform="translate(598.587 7018.964)"/>
    <path id="Path_12856" data-name="Path 12856" d="M.041.085a5.177,5.177,0,0,1,5.724,1.83,6.956,6.956,0,0,1,1.3,3.12A10.7,10.7,0,0,1,7,8.382a7.255,7.255,0,0,1-.409,1.56,8.61,8.61,0,0,1-.878,1.591c-.311.464.438.9.746.437A8.273,8.273,0,0,0,7.782,8.9a12.081,12.081,0,0,0,.181-3.673A7.894,7.894,0,0,0,6.672,1.7,6.438,6.438,0,0,0,3.8-.613,5.594,5.594,0,0,0-.189-.748a.442.442,0,0,0-.3.531.436.436,0,0,0,.532.3" transform="translate(639.762 6985.065)"/>
    <path id="Path_12968" data-name="Path 12968" d="M.1,5.134a9.092,9.092,0,0,0,10.673,4.26C45.66-2.342,62.017,8.481,74.554,7.271a17.75,17.75,0,0,0,9.758-4.3c3.767-3.264,5.46-8.337,6.14-13.275,1.933-14.04-2.135-28.429-9.881-40.3C76.929-56.18,71.191-61.574,64.681-63a16.638,16.638,0,0,0-11.721,1.607c-9.586,4.857-11.632,23.743-23.594,35.63C18.642-15.1,11.783-11.932,3.613-7.731A9.163,9.163,0,0,0-.118,4.742c.069.13.143.262.217.392" transform="translate(584.888 7010.943)" fill="#fff"/>
    <path id="Path_12969" data-name="Path 12969" d="M0,.19C2.4,8.7,4.817,17.231,8.3,25.354c.64,1.493,1.428,3.087,2.9,3.771a5.562,5.562,0,0,0,3.511.158,13.854,13.854,0,0,0,6-2.969c1.225-1.041,2.336-2.549,2.017-4.125-.289-1.425-1.648-2.369-2.992-2.923a15.576,15.576,0,0,1-3.954-1.791,2.427,2.427,0,0,1-.851-1.111,3.272,3.272,0,0,1,.647-2.528l1.681-2.879a2.915,2.915,0,0,0,.506-1.334c.038-1.295-1.519-1.98-2.8-2.148S12.14,7.155,11.548,6c-.539-1.051.058-2.3.571-3.36s.9-2.467.082-3.317c-.572-.6-1.667-.847-1.7-1.671" transform="translate(599.462 7019.876)" fill="#ff3b00"/>
    <path id="Path_12970" data-name="Path 12970" d="M.092,4.754A8.418,8.418,0,0,0,9.975,8.7C42.281-2.168,57.427,7.853,69.037,6.733a16.444,16.444,0,0,0,9.036-3.982C81.56-.272,83.128-4.97,83.757-9.541c1.79-13-1.977-26.324-9.15-37.315C71.234-52.024,65.923-57.018,59.9-58.333a15.4,15.4,0,0,0-10.854,1.488c-8.877,4.5-10.771,21.985-21.848,32.993-9.932,9.869-16.282,12.8-23.848,16.693A8.484,8.484,0,0,0-.109,4.39c.065.121.132.242.2.364" transform="translate(585.679 7012.753)" fill="#ff3b00"/>
    <path id="Path_12971" data-name="Path 12971" d="M.014.511l12.711.759a39.069,39.069,0,0,0-.286-7.587L-.174-4.6A26.15,26.15,0,0,1,.014.511" transform="translate(683.252 6981.056)" fill="#ff3b00"/>
    <path id="Path_12972" data-name="Path 12972" d="M.159.825,12.2-3.291a39.238,39.238,0,0,0-3.133-6.9L-1.96-3.84A26.452,26.452,0,0,1,.159.825" transform="translate(681.74 6970.643)" fill="#ff3b00"/>
    <path id="Path_12973" data-name="Path 12973" d="M.279,1.017l9.6-8.364A39.1,39.1,0,0,0,4.35-12.565L-3.441-2.5A26.356,26.356,0,0,1,.279,1.017" transform="translate(676.527 6961.615)" fill="#ff3b00"/>
    <path id="Path_12974" data-name="Path 12974" d="M.1,5.211a9.989,9.989,0,0,0,5.01,4.311,9.6,9.6,0,0,0,6.642.028A110.545,110.545,0,0,1,28.15,5.39,84.067,84.067,0,0,1,52.94,4.814c3.083.374,6.142.907,9.2,1.455,2.586.464,5.174.944,7.788,1.215a22.123,22.123,0,0,0,8.619-.529,18.821,18.821,0,0,0,6.875-3.782,16.663,16.663,0,0,0,4.29-5.984c2.088-4.755,2.6-10.177,2.545-15.321a58.062,58.062,0,0,0-2.5-16.1,65.848,65.848,0,0,0-6.709-15.045A36.157,36.157,0,0,0,72.768-60.7,18.985,18.985,0,0,0,58.216-64.03a16.974,16.974,0,0,0-6.4,2.733,17.052,17.052,0,0,0-3.4,3.408,53.73,53.73,0,0,0-5.625,9.98c-1.911,4.036-3.758,8.109-6.008,11.973a52.608,52.608,0,0,1-3.859,5.788,51.277,51.277,0,0,1-5.274,5.667,83.4,83.4,0,0,1-11.429,9.241A104.253,104.253,0,0,1,6.262-9.585,16.6,16.6,0,0,0,1.2-6.324,9.735,9.735,0,0,0-1.244-.742,10.062,10.062,0,0,0,.1,5.211a.433.433,0,0,0,.747-.437A9.144,9.144,0,0,1-.308-1.274,8.775,8.775,0,0,1,2.627-6.508,12.872,12.872,0,0,1,5.205-8.073Q6.429-8.7,7.651-9.327c1.62-.837,3.233-1.69,4.817-2.594a75.258,75.258,0,0,0,10.281-7.066c2.058-1.679,4.034-3.456,5.948-5.3a49.5,49.5,0,0,0,4.991-5.447,67.547,67.547,0,0,0,6.929-11.59c1.811-3.69,3.438-7.474,5.381-11.1,1.57-2.932,3.4-5.953,6.081-8a16.079,16.079,0,0,1,6.062-2.71,16.352,16.352,0,0,1,7.726.149c4.895,1.242,9.064,4.57,12.31,8.333a43.244,43.244,0,0,1,4.4,6.281,66.814,66.814,0,0,1,3.683,7.156,61.267,61.267,0,0,1,4.521,15.469A51.874,51.874,0,0,1,90.8-9.8c-.785,4.859-2.609,9.714-6.583,12.845A17.652,17.652,0,0,1,77.13,6.427a18.567,18.567,0,0,1-4.305.375,47.571,47.571,0,0,1-7.042-.769c-2.791-.467-5.569-1.005-8.363-1.452-3.308-.528-6.634-.936-9.978-1.137a83.311,83.311,0,0,0-12.07.156A95.851,95.851,0,0,0,20.923,6c-2.819.685-5.61,1.485-8.371,2.378a14.188,14.188,0,0,1-3.644.9A8.569,8.569,0,0,1,5.7,8.82,9.049,9.049,0,0,1,.851,4.775.433.433,0,0,0,.1,5.211" transform="translate(584.309 7010.773)"/>
    <path id="Path_12975" data-name="Path 12975" d="M1.146,0A12.8,12.8,0,0,0-6.663,2.223a15.8,15.8,0,0,0-5.408,6.369c-2.772,5.786-2.387,12.391-1.1,18.51a63.268,63.268,0,0,0,6.5,17.459c2.6,4.719,6.018,9.533,11.123,11.743a15.978,15.978,0,0,0,14.942-1.35,15.163,15.163,0,0,0,1.546-1.18c.42-.365-.193-.974-.612-.611A15.088,15.088,0,0,1,6.31,56.073c-5.1-1.545-8.675-5.907-11.3-10.322a61.8,61.8,0,0,1-6.8-16.53c-1.482-5.89-2.348-12.287-.357-18.164A16.285,16.285,0,0,1-7.819,4.215,12.727,12.727,0,0,1-.79.912,11.246,11.246,0,0,1,1.146.866C1.7.9,1.7.036,1.146,0" transform="translate(650.122 6950.379)"/>
    <path id="Path_12976" data-name="Path 12976" d="M.974.055A5.864,5.864,0,0,1,2.537,4.608,4.262,4.262,0,0,1-.283,7.921a4.354,4.354,0,0,1-2.626.037.437.437,0,0,0-.489.635,6.412,6.412,0,0,1,1.14,3.834,2.393,2.393,0,0,1-.816,1.53,2.842,2.842,0,0,1-1.632.6,5.525,5.525,0,0,1-2.415-.51c-.4-.168-.734.452-.42.722a1.966,1.966,0,0,1,.473,2.367,1.96,1.96,0,0,1-2.239.9.438.438,0,0,0-.489.636,2.506,2.506,0,0,1,.229,1.189,1.226,1.226,0,0,1-.35.839,2.067,2.067,0,0,1-.753.435,2.728,2.728,0,0,1-.427.106,1.656,1.656,0,0,1-.231.009.444.444,0,0,1-.165-.021c-.542-.126-.773.707-.23.833a2.809,2.809,0,0,0,2.456-.787,2.744,2.744,0,0,0,.219-3.04l-.489.636a2.834,2.834,0,0,0,3.216-1.3,2.832,2.832,0,0,0-.609-3.414c-.141.241-.281.481-.42.722A4.822,4.822,0,0,0-2.76,14.8a3.686,3.686,0,0,0,1.241-4.045A11.433,11.433,0,0,0-2.65,8.157l-.489.635A5.175,5.175,0,0,0,1.991,7.5a5.225,5.225,0,0,0,1.24-5.122A8.8,8.8,0,0,0,1.586-.557a.436.436,0,0,0-.612,0,.442.442,0,0,0,0,.612" transform="translate(648.291 6951.142)"/>
    <path id="Path_12977" data-name="Path 12977" d="M.06.286A2.292,2.292,0,0,1,2.315-.954,5.382,5.382,0,0,1,5.369.535a.437.437,0,0,0,.723-.42A2.09,2.09,0,0,1,7.705-2.019a3.869,3.869,0,0,1,3.316.992.437.437,0,0,0,.723-.42,1.1,1.1,0,0,1,.473-.951,1.725,1.725,0,0,1,1.417-.212,2.737,2.737,0,0,1,1.125.562,1.623,1.623,0,0,1,.678.967.435.435,0,0,0,.532.3.444.444,0,0,0,.3-.532A2.383,2.383,0,0,0,15.3-2.719a3.617,3.617,0,0,0-1.746-.78,2.47,2.47,0,0,0-1.981.519,1.943,1.943,0,0,0-.66,1.764l.723-.42A4.693,4.693,0,0,0,7.357-2.817,2.935,2.935,0,0,0,5.258.345l.723-.42A6.236,6.236,0,0,0,2.255-1.821,3.127,3.127,0,0,0-.687-.151.446.446,0,0,0-.532.44.435.435,0,0,0,.06.286" transform="translate(654.196 7005.464)"/>
    <path id="Path_12978" data-name="Path 12978" d="M.281.055A8.242,8.242,0,0,1,1.427,1.789c.124.251.255.491.056.733a2.356,2.356,0,0,1-.721.5,4.98,4.98,0,0,1-3.7.352.433.433,0,0,0-.229.834A5.826,5.826,0,0,0,.48,4.09a4.181,4.181,0,0,0,1.592-.934,1.332,1.332,0,0,0,.388-.842,2.118,2.118,0,0,0-.32-1.029A9.173,9.173,0,0,0,.893-.557a.438.438,0,0,0-.612,0,.441.441,0,0,0,0,.612" transform="translate(613.834 6990.504)"/>
    <path id="Path_12979" data-name="Path 12979" d="M.313.055A10.086,10.086,0,0,1,1.5,1.985c.122.261.317.632.2.92a.889.889,0,0,1-.5.418,4.755,4.755,0,0,1-.945.25q-.616.122-1.236.211a21.894,21.894,0,0,1-2.465.2C-4,4-4,4.868-3.444,4.851A20.879,20.879,0,0,0,.981,4.3a2.271,2.271,0,0,0,1.4-.841A2,2,0,0,0,2.2,1.444a11.064,11.064,0,0,0-1.274-2,.436.436,0,0,0-.612,0,.443.443,0,0,0,0,.612" transform="translate(620.908 6984.962)"/>
    <path id="Path_12980" data-name="Path 12980" d="M0,.032a36.652,36.652,0,0,0,1.543,7.59A23.515,23.515,0,0,0,5.5,15.393a12.432,12.432,0,0,0,3.526,3.041.433.433,0,0,0,.436-.747A14.055,14.055,0,0,1,4.141,11.72,30.623,30.623,0,0,1,1.454,3.862,34.161,34.161,0,0,1,.865.032.445.445,0,0,0,.432-.4.435.435,0,0,0,0,.032" transform="translate(594.307 6999.495)"/>
    <path id="Path_12981" data-name="Path 12981" d="M0,.263C.993,3.772,1.985,7.281,3.032,10.774c1.04,3.463,2.134,6.912,3.337,10.322q.91,2.576,1.907,5.119c.628,1.593,1.248,3.208,2,4.749a7.346,7.346,0,0,0,2.7,3.273,6.687,6.687,0,0,0,4.82.4,16.618,16.618,0,0,0,4.51-1.72,13.61,13.61,0,0,0,3.77-2.952,4.947,4.947,0,0,0,1.35-4.284,5.175,5.175,0,0,0-2.723-3.106c-1.358-.746-2.892-1.073-4.281-1.749a4.991,4.991,0,0,1-1.814-1.319,2.026,2.026,0,0,1-.123-2.1,19.239,19.239,0,0,1,1.279-2.3c.465-.8.945-1.588,1.394-2.394a2.768,2.768,0,0,0,.39-2.241,2.789,2.789,0,0,0-1.19-1.412,5.433,5.433,0,0,0-1.777-.7c-.629-.137-1.278-.175-1.911-.294a4.573,4.573,0,0,1-1.73-.613,1.857,1.857,0,0,1-.818-1.538,5.23,5.23,0,0,1,.635-2.2,10.164,10.164,0,0,0,.817-2.1,3.394,3.394,0,0,0-.131-2.141,3.316,3.316,0,0,0-1.39-1.345,3.958,3.958,0,0,1-.641-.454.764.764,0,0,1-.272-.488.443.443,0,0,0-.432-.432.436.436,0,0,0-.432.432,1.939,1.939,0,0,0,1,1.468A3.917,3.917,0,0,1,14.593-.307a2.356,2.356,0,0,1,.138,1.748,10.8,10.8,0,0,1-.794,2,6.2,6.2,0,0,0-.673,2.364A2.745,2.745,0,0,0,14.027,7.8c.93.952,2.38,1.113,3.631,1.276,1.032.134,2.406.454,2.962,1.408a1.723,1.723,0,0,1-.164,1.721c-.433.8-.911,1.57-1.368,2.352a25.619,25.619,0,0,0-1.295,2.3,3.24,3.24,0,0,0-.277,2.412,3.782,3.782,0,0,0,1.549,1.768,10.367,10.367,0,0,0,2.121,1.038,15.444,15.444,0,0,1,3.956,1.794A3.316,3.316,0,0,1,26.608,27.2a6.635,6.635,0,0,1-2.574,3.526,15.541,15.541,0,0,1-4.045,2.342,11.592,11.592,0,0,1-4.619.963,4.219,4.219,0,0,1-2.113-.635A5.014,5.014,0,0,1,11.9,32.047a20.506,20.506,0,0,1-1.987-4.067q-1.02-2.466-1.939-4.973c-1.237-3.353-2.356-6.749-3.41-10.164s-2.044-6.858-3.02-10.3L.835.033A.433.433,0,0,0,0,.263" transform="translate(598.587 7018.964)"/>
    <path id="Path_12982" data-name="Path 12982" d="M.041.085a5.177,5.177,0,0,1,5.724,1.83,6.956,6.956,0,0,1,1.3,3.12A10.7,10.7,0,0,1,7,8.382a7.255,7.255,0,0,1-.409,1.56,8.61,8.61,0,0,1-.878,1.591c-.311.464.438.9.746.437A8.273,8.273,0,0,0,7.782,8.9a12.081,12.081,0,0,0,.181-3.673A7.894,7.894,0,0,0,6.672,1.7,6.438,6.438,0,0,0,3.8-.613,5.594,5.594,0,0,0-.189-.748a.442.442,0,0,0-.3.531.436.436,0,0,0,.532.3" transform="translate(639.762 6985.065)"/>
  </g>
</svg>
